  0
SECTION
  2
HEADER
  9
$ACADVER
  1
AC1009
  9
$INSBASE
 10
0.0
 20
0.0
 30
0.0
  9
$EXTMIN
 10
4.845262
 20
3.02933
 30
0.0
  9
$EXTMAX
 10
8.847323
 20
6.850559
 30
0.0
  9
$LIMMIN
 10
0.0
 20
0.0
  9
$LIMMAX
 10
12.0
 20
9.0
  9
$ORTHOMODE
 70
     0
  9
$REGENMODE
 70
     1
  9
$FILLMODE
 70
     1
  9
$QTEXTMODE
 70
     0
  9
$MIRRTEXT
 70
     1
  9
$DRAGMODE
 70
     2
  9
$LTSCALE
 40
1.0
  9
$OSMODE
 70
     0
  9
$ATTMODE
 70
     1
  9
$TEXTSIZE
 40
0.2
  9
$TRACEWID
 40
0.05
  9
$TEXTSTYLE
  7
STANDARD
  9
$CLAYER
  8
0
  9
$CELTYPE
  6
BYLAYER
  9
$CECOLOR
 62
   256
  9
$DIMSCALE
 40
1.0
  9
$DIMASZ
 40
0.18
  9
$DIMEXO
 40
0.0625
  9
$DIMDLI
 40
0.38
  9
$DIMRND
 40
0.0
  9
$DIMDLE
 40
0.0
  9
$DIMEXE
 40
0.18
  9
$DIMTP
 40
0.0
  9
$DIMTM
 40
0.0
  9
$DIMTXT
 40
0.18
  9
$DIMCEN
 40
0.09
  9
$DIMTSZ
 40
0.0
  9
$DIMTOL
 70
     0
  9
$DIMLIM
 70
     0
  9
$DIMTIH
 70
     1
  9
$DIMTOH
 70
     1
  9
$DIMSE1
 70
     0
  9
$DIMSE2
 70
     0
  9
$DIMTAD
 70
     0
  9
$DIMZIN
 70
     0
  9
$DIMBLK
  1

  9
$DIMASO
 70
     1
  9
$DIMSHO
 70
     1
  9
$DIMPOST
  1

  9
$DIMAPOST
  1

  9
$DIMALT
 70
     0
  9
$DIMALTD
 70
     2
  9
$DIMALTF
 40
25.4
  9
$DIMLFAC
 40
1.0
  9
$DIMTOFL
 70
     0
  9
$DIMTVP
 40
0.0
  9
$DIMTIX
 70
     0
  9
$DIMSOXD
 70
     0
  9
$DIMSAH
 70
     0
  9
$DIMBLK1
  1

  9
$DIMBLK2
  1

  9
$DIMSTYLE
  2
*UNNAMED
  9
$DIMCLRD
 70
     0
  9
$DIMCLRE
 70
     0
  9
$DIMCLRT
 70
     0
  9
$DIMTFAC
 40
1.0
  9
$DIMGAP
 40
0.09
  9
$LUNITS
 70
     2
  9
$LUPREC
 70
     4
  9
$SKETCHINC
 40
0.1
  9
$FILLETRAD
 40
0.0
  9
$AUNITS
 70
     0
  9
$AUPREC
 70
     0
  9
$MENU
  1
aDXF
  9
$ELEVATION
 40
0.0
  9
$PELEVATION
 40
0.0
  9
$THICKNESS
 40
0.0
  9
$LIMCHECK
 70
     0
  9
$BLIPMODE
 70
     1
  9
$CHAMFERA
 40
0.0
  9
$CHAMFERB
 40
0.0
  9
$SKPOLY
 70
     0
  9
$TDCREATE
 40
2450406.327857407
  9
$TDUPDATE
 40
2450406.327857407
  9
$TDINDWG
 40
0.0000000000
  9
$TDUSRTIMER
 40
0.0000000000
  9
$USRTIMER
 70
     1
  9
$ANGBASE
 50
0.0
  9
$ANGDIR
 70
     0
  9
$PDMODE
 70
     0
  9
$PDSIZE
 40
0.0
  9
$PLINEWID
 40
0.0
  9
$COORDS
 70
     1
  9
$SPLFRAME
 70
     0
  9
$SPLINETYPE
 70
     6
  9
$SPLINESEGS
 70
     8
  9
$ATTDIA
 70
     0
  9
$ATTREQ
 70
     1
  9
$HANDLING
 70
     0
  9
$HANDSEED
  5
0
  9
$SURFTAB1
 70
     6
  9
$SURFTAB2
 70
     6
  9
$SURFTYPE
 70
     6
  9
$SURFU
 70
     6
  9
$SURFV
 70
     6
  9
$UCSNAME
  2

  9
$UCSORG
 10
0.0
 20
0.0
 30
0.0
  9
$UCSXDIR
 10
1.0
 20
0.0
 30
0.0
  9
$UCSYDIR
 10
0.0
 20
1.0
 30
0.0
  9
$PUCSNAME
  2

  9
$PUCSORG
 10
0.0
 20
0.0
 30
0.0
  9
$PUCSXDIR
 10
1.0
 20
0.0
 30
0.0
  9
$PUCSYDIR
 10
0.0
 20
1.0
 30
0.0
  9
$USERI1
 70
     0
  9
$USERI2
 70
     0
  9
$USERI3
 70
     0
  9
$USERI4
 70
     0
  9
$USERI5
 70
     0
  9
$USERR1
 40
0.0
  9
$USERR2
 40
0.0
  9
$USERR3
 40
0.0
  9
$USERR4
 40
0.0
  9
$USERR5
 40
0.0
  9
$WORLDVIEW
 70
     1
  9
$SHADEDGE
 70
     3
  9
$SHADEDIF
 70
    70
  9
$TILEMODE
 70
     1
  9
$MAXACTVP
 70
    16
  9
$PINSBASE
 10
0.0
 20
0.0
 30
0.0
  9
$PLIMCHECK
 70
     0
  9
$PEXTMIN
 10
1.000000E+20
 20
1.000000E+20
 30
1.000000E+20
  9
$PEXTMAX
 10
-1.000000E+20
 20
-1.000000E+20
 30
-1.000000E+20
  9
$PLIMMIN
 10
0.0
 20
0.0
  9
$PLIMMAX
 10
12.0
 20
9.0
  9
$UNITMODE
 70
     0
  9
$VISRETAIN
 70
     0
  9
$PLINEGEN
 70
     0
  9
$PSLTSCALE
 70
     1
  9
$TREEDEPTH
 70
  3020
  9
$DWGCODEPAGE
  3
iso8859-1
  0
ENDSEC
  0
SECTION
  2
TABLES
  0
TABLE
  2
VPORT
 70
     2
  0
VPORT
  2
*ACTIVE
 70
     0
 10
0.0
 20
0.0
 11
1.0
 21
1.0
 12
7.953782
 22
4.5
 13
0.0
 23
0.0
 14
1.0
 24
1.0
 15
0.0
 25
0.0
 16
0.0
 26
0.0
 36
1.0
 17
0.0
 27
0.0
 37
0.0
 40
9.0
 41
1.767507
 42
50.0
 43
0.0
 44
0.0
 50
0.0
 51
0.0
 71
     0
 72
   100
 73
     1
 74
     1
 75
     0
 76
     0
 77
     0
 78
     0
  0
ENDTAB
  0
TABLE
  2
LTYPE
 70
     1
  0
LTYPE
  2
CONTINUOUS
 70
    64
  3
Solid line
 72
    65
 73
     0
 40
0.0
  0
ENDTAB
  0
TABLE
  2
LAYER
 70
     1
  0
LAYER
  2
0
 70
     0
 62
     7
  6
CONTINUOUS
  0
ENDTAB
  0
TABLE
  2
STYLE
 70
     1
  0
STYLE
  2
STANDARD
 70
     0
 40
0.0
 41
1.0
 50
0.0
 71
     0
 42
0.2
  3
txt
  4

  0
ENDTAB
  0
TABLE
  2
VIEW
 70
     0
  0
ENDTAB
  0
TABLE
  2
UCS
 70
     0
  0
ENDTAB
  0
TABLE
  2
APPID
 70
     1
  0
APPID
  2
ADXF
 70
    64
  0
ENDTAB
  0
TABLE
  2
DIMSTYLE
 70
     0
  0
ENDTAB
  0
ENDSEC
  0
SECTION
  2
BLOCKS
  0
ENDSEC
0
SECTION
2
ENTITIES
0
TEXT
8
1
10
1005.945000
20
622.185000
40
5.000000
50
-180.000000
1
Piece Name: 去品牌训练营改版20230517.boke_前片
7
STANDARD
0
TEXT
8
1
10
1005.945000
20
617.185000
40
5.000000
50
-180.000000
1
Category: 1
7
STANDARD
0
TEXT
8
1
10
1005.945000
20
612.185000
40
5.000000
50
-180.000000
1
Fabric: 面布
7
STANDARD
0
TEXT
8
1
10
1005.945000
20
607.185000
40
5.000000
50
-180.000000
1
Size: 150
7
STANDARD
0
POLYLINE
8
1
66
 1
70
1
0
VERTEX
8
1
10
1084.145000
20
766.520000
0
VERTEX
8
1
10
1084.145000
20
758.522500
0
VERTEX
8
1
10
1084.145000
20
639.515000
0
VERTEX
8
1
10
1084.145000
20
520.507500
0
VERTEX
8
1
10
1084.145000
20
508.320000
0
VERTEX
8
1
10
1079.087500
20
509.162500
0
VERTEX
8
1
10
1059.147500
20
512.407500
0
VERTEX
8
1
10
1039.207500
20
509.162500
0
VERTEX
8
1
10
1034.150000
20
508.320000
0
VERTEX
8
1
10
1017.592500
20
505.550000
0
VERTEX
8
1
10
996.550000
20
501.840000
0
VERTEX
8
1
10
958.085000
20
494.392500
0
VERTEX
8
1
10
920.135000
20
486.407500
0
VERTEX
8
1
10
881.852500
20
478.032500
0
VERTEX
8
1
10
875.882500
20
476.730000
0
VERTEX
8
1
10
873.052500
20
482.147500
0
VERTEX
8
1
10
869.747500
20
488.480000
0
VERTEX
8
1
10
868.170000
20
491.167500
0
VERTEX
8
1
10
866.507500
20
493.622500
0
VERTEX
8
1
10
864.815000
20
495.707500
0
VERTEX
8
1
10
863.067500
20
497.425000
0
VERTEX
8
1
10
860.925000
20
499.032500
0
VERTEX
8
1
10
858.477500
20
500.447500
0
VERTEX
8
1
10
855.627500
20
501.740000
0
VERTEX
8
1
10
852.592500
20
502.850000
0
VERTEX
8
1
10
845.682500
20
504.792500
0
VERTEX
8
1
10
838.755000
20
506.275000
0
VERTEX
8
1
10
831.787500
20
507.460000
0
VERTEX
8
1
10
824.735000
20
508.390000
0
VERTEX
8
1
10
813.682500
20
509.377500
0
VERTEX
8
1
10
802.222500
20
510.037500
0
VERTEX
8
1
10
791.230000
20
510.495000
0
VERTEX
8
1
10
770.837500
20
511.272500
0
VERTEX
8
1
10
751.297500
20
512.010000
0
VERTEX
8
1
10
731.192500
20
512.775000
0
VERTEX
8
1
10
693.917500
20
514.230000
0
VERTEX
8
1
10
670.147500
20
515.185000
0
VERTEX
8
1
10
652.085000
20
515.910000
0
VERTEX
8
1
10
616.645000
20
517.360000
0
VERTEX
8
1
10
613.147500
20
522.500000
0
VERTEX
8
1
10
609.652500
20
517.360000
0
VERTEX
8
1
10
574.210000
20
515.910000
0
VERTEX
8
1
10
556.147500
20
515.185000
0
VERTEX
8
1
10
556.147500
20
525.505000
0
VERTEX
8
1
10
556.147500
20
642.012500
0
VERTEX
8
1
10
556.147500
20
758.522500
0
VERTEX
8
1
10
556.147500
20
766.520000
0
VERTEX
8
1
10
609.650000
20
766.520000
0
VERTEX
8
1
10
613.147500
20
761.522500
0
VERTEX
8
1
10
616.647500
20
766.520000
0
VERTEX
8
1
10
670.147500
20
766.520000
0
VERTEX
8
1
10
680.642500
20
766.520000
0
VERTEX
8
1
10
683.142500
20
771.520000
0
VERTEX
8
1
10
685.640000
20
766.520000
0
VERTEX
8
1
10
820.637500
20
766.520000
0
VERTEX
8
1
10
823.137500
20
771.520000
0
VERTEX
8
1
10
825.635000
20
766.520000
0
VERTEX
8
1
10
836.147500
20
766.520000
0
VERTEX
8
1
10
1034.150000
20
766.520000
0
VERTEX
8
1
10
1059.147500
20
766.520000
0
VERTEX
8
1
10
1084.145000
20
766.520000
0
SEQEND
8
1
0
TEXT
8
1
10
1022.042500
20
1035.517500
40
5.000000
50
-180.000000
1
Piece Name: 去品牌训练营改版20230517.boke_前片
7
STANDARD
0
TEXT
8
1
10
1022.042500
20
1030.517500
40
5.000000
50
-180.000000
1
Category: 2
7
STANDARD
0
TEXT
8
1
10
1022.042500
20
1025.517500
40
5.000000
50
-180.000000
1
Fabric: 面布
7
STANDARD
0
TEXT
8
1
10
1022.042500
20
1020.517500
40
5.000000
50
-180.000000
1
Size: 150
7
STANDARD
0
POLYLINE
8
1
66
 1
70
1
0
VERTEX
8
1
10
1093.640000
20
1284.517500
0
VERTEX
8
1
10
1093.640000
20
1275.517500
0
VERTEX
8
1
10
1093.640000
20
1035.517500
0
VERTEX
8
1
10
1093.640000
20
795.517500
0
VERTEX
8
1
10
1093.640000
20
786.520000
0
VERTEX
8
1
10
1068.642500
20
786.520000
0
VERTEX
8
1
10
1043.645000
20
786.520000
0
VERTEX
8
1
10
868.642500
20
786.520000
0
VERTEX
8
1
10
668.645000
20
786.520000
0
VERTEX
8
1
10
660.072500
20
786.520000
0
VERTEX
8
1
10
659.655000
20
795.082500
0
VERTEX
8
1
10
659.272500
20
802.965000
0
VERTEX
8
1
10
658.715000
20
810.672500
0
VERTEX
8
1
10
657.825000
20
818.067500
0
VERTEX
8
1
10
656.667500
20
824.167500
0
VERTEX
8
1
10
655.117500
20
830.060000
0
VERTEX
8
1
10
653.160000
20
835.640000
0
VERTEX
8
1
10
651.157500
20
839.777500
0
VERTEX
8
1
10
648.777500
20
843.937500
0
VERTEX
8
1
10
646.112500
20
847.972500
0
VERTEX
8
1
10
643.097500
20
851.972500
0
VERTEX
8
1
10
641.575000
20
853.815000
0
VERTEX
8
1
10
639.992500
20
855.620000
0
VERTEX
8
1
10
636.497500
20
859.280000
0
VERTEX
8
1
10
632.807500
20
862.737500
0
VERTEX
8
1
10
628.985000
20
865.957500
0
VERTEX
8
1
10
624.972500
20
868.985000
0
VERTEX
8
1
10
623.112500
20
870.242500
0
VERTEX
8
1
10
622.265000
20
875.595000
0
VERTEX
8
1
10
617.200000
20
873.980000
0
VERTEX
8
1
10
616.487500
20
874.412500
0
VERTEX
8
1
10
612.145000
20
876.735000
0
VERTEX
8
1
10
607.580000
20
878.880000
0
VERTEX
8
1
10
602.852500
20
880.815000
0
VERTEX
8
1
10
598.082500
20
882.520000
0
VERTEX
8
1
10
593.132500
20
884.060000
0
VERTEX
8
1
10
588.157500
20
885.410000
0
VERTEX
8
1
10
583.157500
20
886.597500
0
VERTEX
8
1
10
572.660000
20
888.662500
0
VERTEX
8
1
10
562.010000
20
890.362500
0
VERTEX
8
1
10
551.415000
20
891.860000
0
VERTEX
8
1
10
538.682500
20
892.447500
0
VERTEX
8
1
10
533.632500
20
892.610000
0
VERTEX
8
1
10
530.260000
20
896.717500
0
VERTEX
8
1
10
526.640000
20
892.832500
0
VERTEX
8
1
10
525.640000
20
892.867500
0
VERTEX
8
1
10
512.752500
20
892.925000
0
VERTEX
8
1
10
492.485000
20
892.055000
0
VERTEX
8
1
10
472.095000
20
890.295000
0
VERTEX
8
1
10
451.612500
20
888.072500
0
VERTEX
8
1
10
444.300000
20
887.282500
0
VERTEX
8
1
10
442.067500
20
894.290000
0
VERTEX
8
1
10
435.067500
20
916.290000
0
VERTEX
8
1
10
428.067500
20
938.290000
0
VERTEX
8
1
10
424.915000
20
948.205000
0
VERTEX
8
1
10
435.180000
20
949.897500
0
VERTEX
8
1
10
462.372500
20
954.380000
0
VERTEX
8
1
10
475.557500
20
956.995000
0
VERTEX
8
1
10
488.490000
20
960.087500
0
VERTEX
8
1
10
501.147500
20
963.822500
0
VERTEX
8
1
10
513.347500
20
968.310000
0
VERTEX
8
1
10
526.415000
20
974.620000
0
VERTEX
8
1
10
532.560000
20
978.180000
0
VERTEX
8
1
10
538.485000
20
982.082500
0
VERTEX
8
1
10
544.122500
20
986.322500
0
VERTEX
8
1
10
549.395000
20
990.872500
0
VERTEX
8
1
10
554.542500
20
996.167500
0
VERTEX
8
1
10
559.150000
20
1001.872500
0
VERTEX
8
1
10
562.995000
20
1007.832500
0
VERTEX
8
1
10
565.767500
20
1013.737500
0
VERTEX
8
1
10
567.937500
20
1020.055000
0
VERTEX
8
1
10
569.467500
20
1026.695000
0
VERTEX
8
1
10
569.922500
20
1029.655000
0
VERTEX
8
1
10
570.215000
20
1032.037500
0
VERTEX
8
1
10
574.597500
20
1035.517500
0
VERTEX
8
1
10
570.217500
20
1038.992500
0
VERTEX
8
1
10
569.925000
20
1041.380000
0
VERTEX
8
1
10
569.470000
20
1044.340000
0
VERTEX
8
1
10
567.940000
20
1050.982500
0
VERTEX
8
1
10
565.770000
20
1057.300000
0
VERTEX
8
1
10
563.000000
20
1063.205000
0
VERTEX
8
1
10
559.152500
20
1069.162500
0
VERTEX
8
1
10
554.545000
20
1074.870000
0
VERTEX
8
1
10
549.397500
20
1080.165000
0
VERTEX
8
1
10
544.125000
20
1084.715000
0
VERTEX
8
1
10
538.487500
20
1088.955000
0
VERTEX
8
1
10
532.562500
20
1092.857500
0
VERTEX
8
1
10
526.417500
20
1096.417500
0
VERTEX
8
1
10
513.350000
20
1102.727500
0
VERTEX
8
1
10
501.150000
20
1107.215000
0
VERTEX
8
1
10
488.492500
20
1110.950000
0
VERTEX
8
1
10
475.560000
20
1114.042500
0
VERTEX
8
1
10
462.375000
20
1116.657500
0
VERTEX
8
1
10
435.180000
20
1121.140000
0
VERTEX
8
1
10
424.915000
20
1122.832500
0
VERTEX
8
1
10
428.067500
20
1132.747500
0
VERTEX
8
1
10
435.067500
20
1154.747500
0
VERTEX
8
1
10
442.067500
20
1176.747500
0
VERTEX
8
1
10
444.297500
20
1183.757500
0
VERTEX
8
1
10
451.612500
20
1182.965000
0
VERTEX
8
1
10
472.092500
20
1180.747500
0
VERTEX
8
1
10
492.482500
20
1178.987500
0
VERTEX
8
1
10
512.750000
20
1178.115000
0
VERTEX
8
1
10
525.637500
20
1178.170000
0
VERTEX
8
1
10
526.640000
20
1178.202500
0
VERTEX
8
1
10
530.262500
20
1174.317500
0
VERTEX
8
1
10
533.632500
20
1178.425000
0
VERTEX
8
1
10
538.680000
20
1178.590000
0
VERTEX
8
1
10
551.412500
20
1179.177500
0
VERTEX
8
1
10
562.007500
20
1180.675000
0
VERTEX
8
1
10
572.657500
20
1182.375000
0
VERTEX
8
1
10
583.155000
20
1184.440000
0
VERTEX
8
1
10
588.155000
20
1185.627500
0
VERTEX
8
1
10
593.127500
20
1186.977500
0
VERTEX
8
1
10
598.080000
20
1188.517500
0
VERTEX
8
1
10
602.850000
20
1190.222500
0
VERTEX
8
1
10
607.575000
20
1192.157500
0
VERTEX
8
1
10
612.140000
20
1194.302500
0
VERTEX
8
1
10
616.485000
20
1196.625000
0
VERTEX
8
1
10
617.207500
20
1197.060000
0
VERTEX
8
1
10
622.267500
20
1195.442500
0
VERTEX
8
1
10
623.120000
20
1200.797500
0
VERTEX
8
1
10
624.970000
20
1202.052500
0
VERTEX
8
1
10
628.982500
20
1205.080000
0
VERTEX
8
1
10
632.805000
20
1208.297500
0
VERTEX
8
1
10
636.495000
20
1211.757500
0
VERTEX
8
1
10
639.987500
20
1215.415000
0
VERTEX
8
1
10
641.570000
20
1217.220000
0
VERTEX
8
1
10
643.092500
20
1219.065000
0
VERTEX
8
1
10
646.110000
20
1223.065000
0
VERTEX
8
1
10
648.775000
20
1227.097500
0
VERTEX
8
1
10
651.152500
20
1231.260000
0
VERTEX
8
1
10
653.157500
20
1235.395000
0
VERTEX
8
1
10
655.112500
20
1240.975000
0
VERTEX
8
1
10
656.665000
20
1246.870000
0
VERTEX
8
1
10
657.822500
20
1252.967500
0
VERTEX
8
1
10
658.712500
20
1260.365000
0
VERTEX
8
1
10
659.270000
20
1268.072500
0
VERTEX
8
1
10
659.655000
20
1275.955000
0
VERTEX
8
1
10
660.072500
20
1284.517500
0
VERTEX
8
1
10
668.645000
20
1284.517500
0
VERTEX
8
1
10
868.642500
20
1284.517500
0
VERTEX
8
1
10
1043.645000
20
1284.517500
0
VERTEX
8
1
10
1068.642500
20
1284.517500
0
VERTEX
8
1
10
1093.640000
20
1284.517500
0
SEQEND
8
1
0
TEXT
8
1
10
99.597500
20
348.902500
40
5.000000
50
0.000344
1
Piece Name: 去品牌训练营改版20230517.boke_后片
7
STANDARD
0
TEXT
8
1
10
99.597500
20
343.902500
40
5.000000
50
0.000344
1
Category: 3
7
STANDARD
0
TEXT
8
1
10
99.597500
20
338.902500
40
5.000000
50
0.000344
1
Fabric: 面布
7
STANDARD
0
TEXT
8
1
10
99.597500
20
333.902500
40
5.000000
50
0.000344
1
Size: 150
7
STANDARD
0
POLYLINE
8
1
66
 1
70
1
0
VERTEX
8
1
10
0.000000
20
99.902500
0
VERTEX
8
1
10
0.000000
20
108.902500
0
VERTEX
8
1
10
0.000000
20
348.902500
0
VERTEX
8
1
10
0.000000
20
588.902500
0
VERTEX
8
1
10
0.000000
20
597.900000
0
VERTEX
8
1
10
24.995000
20
597.900000
0
VERTEX
8
1
10
49.992500
20
597.900000
0
VERTEX
8
1
10
224.995000
20
597.900000
0
VERTEX
8
1
10
424.995000
20
597.900000
0
VERTEX
8
1
10
433.300000
20
597.900000
0
VERTEX
8
1
10
433.965000
20
589.622500
0
VERTEX
8
1
10
434.745000
20
579.877500
0
VERTEX
8
1
10
435.265000
20
575.207500
0
VERTEX
8
1
10
435.945000
20
570.702500
0
VERTEX
8
1
10
436.812500
20
566.435000
0
VERTEX
8
1
10
437.925000
20
562.347500
0
VERTEX
8
1
10
439.827500
20
557.185000
0
VERTEX
8
1
10
442.202500
20
552.135000
0
VERTEX
8
1
10
444.865000
20
547.447500
0
VERTEX
8
1
10
448.792500
20
542.177500
0
VERTEX
8
1
10
453.265000
20
537.052500
0
VERTEX
8
1
10
458.152500
20
532.215000
0
VERTEX
8
1
10
463.485000
20
527.605000
0
VERTEX
8
1
10
466.187500
20
525.490000
0
VERTEX
8
1
10
468.957500
20
523.452500
0
VERTEX
8
1
10
475.000000
20
519.397500
0
VERTEX
8
1
10
477.032500
20
518.187500
0
VERTEX
8
1
10
477.997500
20
512.962500
0
VERTEX
8
1
10
483.100000
20
514.707500
0
VERTEX
8
1
10
487.585000
20
512.340000
0
VERTEX
8
1
10
494.250000
20
509.210000
0
VERTEX
8
1
10
501.107500
20
506.350000
0
VERTEX
8
1
10
507.975000
20
503.815000
0
VERTEX
8
1
10
514.822500
20
501.587500
0
VERTEX
8
1
10
525.210000
20
498.882500
0
VERTEX
8
1
10
535.627500
20
496.737500
0
VERTEX
8
1
10
540.905000
20
495.855000
0
VERTEX
8
1
10
545.965000
20
495.127500
0
VERTEX
8
1
10
556.620000
20
493.962500
0
VERTEX
8
1
10
567.250000
20
493.240000
0
VERTEX
8
1
10
577.742500
20
492.925000
0
VERTEX
8
1
10
599.167500
20
493.277500
0
VERTEX
8
1
10
620.505000
20
494.572500
0
VERTEX
8
1
10
642.252500
20
496.372500
0
VERTEX
8
1
10
649.395000
20
496.962500
0
VERTEX
8
1
10
651.570000
20
490.132500
0
VERTEX
8
1
10
658.572500
20
468.132500
0
VERTEX
8
1
10
665.572500
20
446.132500
0
VERTEX
8
1
10
667.295000
20
440.712500
0
VERTEX
8
1
10
663.140000
20
436.827500
0
VERTEX
8
1
10
657.840000
20
431.875000
0
VERTEX
8
1
10
653.290000
20
427.107500
0
VERTEX
8
1
10
649.662500
20
422.257500
0
VERTEX
8
1
10
647.485000
20
418.065000
0
VERTEX
8
1
10
645.645000
20
413.242500
0
VERTEX
8
1
10
644.145000
20
408.067500
0
VERTEX
8
1
10
642.282500
20
399.332500
0
VERTEX
8
1
10
640.932500
20
390.447500
0
VERTEX
8
1
10
639.832500
20
381.410000
0
VERTEX
8
1
10
638.205000
20
352.397500
0
VERTEX
8
1
10
634.010000
20
348.905000
0
VERTEX
8
1
10
638.202500
20
345.410000
0
VERTEX
8
1
10
639.830000
20
316.400000
0
VERTEX
8
1
10
640.930000
20
307.360000
0
VERTEX
8
1
10
642.280000
20
298.477500
0
VERTEX
8
1
10
644.142500
20
289.742500
0
VERTEX
8
1
10
645.642500
20
284.567500
0
VERTEX
8
1
10
647.485000
20
279.742500
0
VERTEX
8
1
10
649.660000
20
275.550000
0
VERTEX
8
1
10
653.290000
20
270.700000
0
VERTEX
8
1
10
657.837500
20
265.932500
0
VERTEX
8
1
10
663.140000
20
260.980000
0
VERTEX
8
1
10
667.295000
20
257.097500
0
VERTEX
8
1
10
665.572500
20
251.675000
0
VERTEX
8
1
10
658.572500
20
229.675000
0
VERTEX
8
1
10
651.572500
20
207.675000
0
VERTEX
8
1
10
649.400000
20
200.845000
0
VERTEX
8
1
10
642.255000
20
201.435000
0
VERTEX
8
1
10
620.510000
20
203.230000
0
VERTEX
8
1
10
599.172500
20
204.525000
0
VERTEX
8
1
10
577.747500
20
204.880000
0
VERTEX
8
1
10
567.252500
20
204.567500
0
VERTEX
8
1
10
556.625000
20
203.845000
0
VERTEX
8
1
10
545.970000
20
202.680000
0
VERTEX
8
1
10
540.910000
20
201.952500
0
VERTEX
8
1
10
535.632500
20
201.070000
0
VERTEX
8
1
10
525.215000
20
198.925000
0
VERTEX
8
1
10
514.830000
20
196.220000
0
VERTEX
8
1
10
507.980000
20
193.992500
0
VERTEX
8
1
10
501.112500
20
191.457500
0
VERTEX
8
1
10
494.252500
20
188.597500
0
VERTEX
8
1
10
487.587500
20
185.467500
0
VERTEX
8
1
10
483.107500
20
183.097500
0
VERTEX
8
1
10
478.002500
20
184.842500
0
VERTEX
8
1
10
477.040000
20
179.617500
0
VERTEX
8
1
10
475.005000
20
178.410000
0
VERTEX
8
1
10
468.960000
20
174.355000
0
VERTEX
8
1
10
466.192500
20
172.320000
0
VERTEX
8
1
10
463.490000
20
170.202500
0
VERTEX
8
1
10
458.155000
20
165.592500
0
VERTEX
8
1
10
453.267500
20
160.755000
0
VERTEX
8
1
10
448.795000
20
155.632500
0
VERTEX
8
1
10
444.872500
20
150.362500
0
VERTEX
8
1
10
442.207500
20
145.672500
0
VERTEX
8
1
10
439.832500
20
140.622500
0
VERTEX
8
1
10
437.930000
20
135.465000
0
VERTEX
8
1
10
436.820000
20
131.372500
0
VERTEX
8
1
10
435.950000
20
127.107500
0
VERTEX
8
1
10
435.270000
20
122.600000
0
VERTEX
8
1
10
434.750000
20
117.930000
0
VERTEX
8
1
10
433.967500
20
108.185000
0
VERTEX
8
1
10
433.302500
20
99.905000
0
VERTEX
8
1
10
424.997500
20
99.905000
0
VERTEX
8
1
10
224.997500
20
99.902500
0
VERTEX
8
1
10
49.995000
20
99.902500
0
VERTEX
8
1
10
24.997500
20
99.902500
0
VERTEX
8
1
10
0.000000
20
99.902500
0
SEQEND
8
1
0
TEXT
8
1
10
79.535000
20
1520.565000
40
5.000000
50
0.000460
1
Piece Name: 去品牌训练营改版20230517.boke_前片
7
STANDARD
0
TEXT
8
1
10
79.535000
20
1515.565000
40
5.000000
50
0.000460
1
Category: 4
7
STANDARD
0
TEXT
8
1
10
79.535000
20
1510.565000
40
5.000000
50
0.000460
1
Fabric: 面布
7
STANDARD
0
TEXT
8
1
10
79.535000
20
1505.565000
40
5.000000
50
0.000460
1
Size: 150
7
STANDARD
0
POLYLINE
8
1
66
 1
70
1
0
VERTEX
8
1
10
1.335000
20
1664.902500
0
VERTEX
8
1
10
26.332500
20
1664.902500
0
VERTEX
8
1
10
51.330000
20
1664.902500
0
VERTEX
8
1
10
249.330000
20
1664.902500
0
VERTEX
8
1
10
259.842500
20
1664.902500
0
VERTEX
8
1
10
262.340000
20
1669.900000
0
VERTEX
8
1
10
264.840000
20
1664.902500
0
VERTEX
8
1
10
399.840000
20
1664.905000
0
VERTEX
8
1
10
402.337500
20
1669.900000
0
VERTEX
8
1
10
404.837500
20
1664.905000
0
VERTEX
8
1
10
415.332500
20
1664.905000
0
VERTEX
8
1
10
468.835000
20
1664.905000
0
VERTEX
8
1
10
472.332500
20
1659.907500
0
VERTEX
8
1
10
475.832500
20
1664.905000
0
VERTEX
8
1
10
529.332500
20
1664.905000
0
VERTEX
8
1
10
529.332500
20
1656.905000
0
VERTEX
8
1
10
529.332500
20
1540.397500
0
VERTEX
8
1
10
529.332500
20
1423.887500
0
VERTEX
8
1
10
529.332500
20
1413.570000
0
VERTEX
8
1
10
511.267500
20
1414.295000
0
VERTEX
8
1
10
475.830000
20
1415.742500
0
VERTEX
8
1
10
472.332500
20
1420.882500
0
VERTEX
8
1
10
468.837500
20
1415.742500
0
VERTEX
8
1
10
433.397500
20
1414.295000
0
VERTEX
8
1
10
415.332500
20
1413.570000
0
VERTEX
8
1
10
391.477500
20
1412.610000
0
VERTEX
8
1
10
354.282500
20
1411.155000
0
VERTEX
8
1
10
334.185000
20
1410.392500
0
VERTEX
8
1
10
314.645000
20
1409.655000
0
VERTEX
8
1
10
294.245000
20
1408.877500
0
VERTEX
8
1
10
283.260000
20
1408.420000
0
VERTEX
8
1
10
271.800000
20
1407.760000
0
VERTEX
8
1
10
260.747500
20
1406.772500
0
VERTEX
8
1
10
253.695000
20
1405.842500
0
VERTEX
8
1
10
246.727500
20
1404.657500
0
VERTEX
8
1
10
239.800000
20
1403.175000
0
VERTEX
8
1
10
232.887500
20
1401.232500
0
VERTEX
8
1
10
229.855000
20
1400.122500
0
VERTEX
8
1
10
227.002500
20
1398.827500
0
VERTEX
8
1
10
224.555000
20
1397.415000
0
VERTEX
8
1
10
222.415000
20
1395.805000
0
VERTEX
8
1
10
220.665000
20
1394.087500
0
VERTEX
8
1
10
218.975000
20
1392.005000
0
VERTEX
8
1
10
217.312500
20
1389.547500
0
VERTEX
8
1
10
215.732500
20
1386.860000
0
VERTEX
8
1
10
212.427500
20
1380.530000
0
VERTEX
8
1
10
209.600000
20
1375.110000
0
VERTEX
8
1
10
203.627500
20
1376.415000
0
VERTEX
8
1
10
165.350000
20
1384.785000
0
VERTEX
8
1
10
127.397500
20
1392.770000
0
VERTEX
8
1
10
88.932500
20
1400.217500
0
VERTEX
8
1
10
67.887500
20
1403.927500
0
VERTEX
8
1
10
51.330000
20
1406.692500
0
VERTEX
8
1
10
46.277500
20
1407.540000
0
VERTEX
8
1
10
26.332500
20
1410.787500
0
VERTEX
8
1
10
6.387500
20
1407.540000
0
VERTEX
8
1
10
1.335000
20
1406.692500
0
VERTEX
8
1
10
1.335000
20
1418.887500
0
VERTEX
8
1
10
1.335000
20
1537.895000
0
VERTEX
8
1
10
1.335000
20
1656.902500
0
VERTEX
8
1
10
1.335000
20
1664.902500
0
SEQEND
8
1
0
TEXT
8
1
10
371.980000
20
1051.265000
40
5.000000
50
-180.000000
1
Piece Name: 去品牌训练营改版20230517.boke_口袋
7
STANDARD
0
TEXT
8
1
10
371.980000
20
1046.265000
40
5.000000
50
-180.000000
1
Category: 5
7
STANDARD
0
TEXT
8
1
10
371.980000
20
1041.265000
40
5.000000
50
-180.000000
1
Fabric: 面布
7
STANDARD
0
TEXT
8
1
10
371.980000
20
1036.265000
40
5.000000
50
-180.000000
1
Size: 150
7
STANDARD
0
POLYLINE
8
1
66
 1
70
1
0
VERTEX
8
1
10
123.287500
20
1037.475000
0
VERTEX
8
1
10
123.287500
20
1049.025000
0
VERTEX
8
1
10
123.287500
20
1097.627500
0
VERTEX
8
1
10
123.287500
20
1137.225000
0
VERTEX
8
1
10
123.287500
20
1146.225000
0
VERTEX
8
1
10
123.287500
20
1155.225000
0
VERTEX
8
1
10
129.287500
20
1155.225000
0
VERTEX
8
1
10
173.790000
20
1155.225000
0
VERTEX
8
1
10
177.287500
20
1151.227500
0
VERTEX
8
1
10
180.787500
20
1155.225000
0
VERTEX
8
1
10
253.277500
20
1155.225000
0
VERTEX
8
1
10
313.777500
20
1155.225000
0
VERTEX
8
1
10
317.275000
20
1151.227500
0
VERTEX
8
1
10
320.775000
20
1155.225000
0
VERTEX
8
1
10
377.267500
20
1155.225000
0
VERTEX
8
1
10
387.712500
20
1155.225000
0
VERTEX
8
1
10
389.382500
20
1150.932500
0
VERTEX
8
1
10
393.242500
20
1140.992500
0
VERTEX
8
1
10
395.207500
20
1136.437500
0
VERTEX
8
1
10
397.220000
20
1132.300000
0
VERTEX
8
1
10
399.415000
20
1128.415000
0
VERTEX
8
1
10
401.665000
20
1125.070000
0
VERTEX
8
1
10
407.492500
20
1118.290000
0
VERTEX
8
1
10
414.550000
20
1111.285000
0
VERTEX
8
1
10
422.350000
20
1103.257500
0
VERTEX
8
1
10
428.220000
20
1095.852500
0
VERTEX
8
1
10
433.367500
20
1088.005000
0
VERTEX
8
1
10
437.742500
20
1079.852500
0
VERTEX
8
1
10
439.725000
20
1075.497500
0
VERTEX
8
1
10
441.560000
20
1070.965000
0
VERTEX
8
1
10
444.472500
20
1062.175000
0
VERTEX
8
1
10
446.700000
20
1052.877500
0
VERTEX
8
1
10
447.617500
20
1046.302500
0
VERTEX
8
1
10
448.147500
20
1039.902500
0
VERTEX
8
1
10
448.317500
20
1033.485000
0
VERTEX
8
1
10
448.117500
20
1027.020000
0
VERTEX
8
1
10
447.542500
20
1020.595000
0
VERTEX
8
1
10
446.582500
20
1014.215000
0
VERTEX
8
1
10
445.242500
20
1007.997500
0
VERTEX
8
1
10
444.362500
20
1004.715000
0
VERTEX
8
1
10
443.412500
20
1001.585000
0
VERTEX
8
1
10
441.227500
20
995.542500
0
VERTEX
8
1
10
438.602500
20
989.642500
0
VERTEX
8
1
10
435.477500
20
983.870000
0
VERTEX
8
1
10
431.765000
20
978.165000
0
VERTEX
8
1
10
427.905000
20
973.605000
0
VERTEX
8
1
10
424.012500
20
969.605000
0
VERTEX
8
1
10
419.897500
20
965.900000
0
VERTEX
8
1
10
415.520000
20
962.430000
0
VERTEX
8
1
10
410.957500
20
959.250000
0
VERTEX
8
1
10
406.260000
20
956.362500
0
VERTEX
8
1
10
401.455000
20
953.775000
0
VERTEX
8
1
10
398.952500
20
952.560000
0
VERTEX
8
1
10
396.315000
20
951.362500
0
VERTEX
8
1
10
391.277500
20
949.325000
0
VERTEX
8
1
10
386.082500
20
947.542500
0
VERTEX
8
1
10
380.782500
20
946.037500
0
VERTEX
8
1
10
375.292500
20
944.792500
0
VERTEX
8
1
10
368.705000
20
943.877500
0
VERTEX
8
1
10
362.280000
20
943.402500
0
VERTEX
8
1
10
355.822500
20
943.302500
0
VERTEX
8
1
10
349.335000
20
943.560000
0
VERTEX
8
1
10
337.122500
20
944.967500
0
VERTEX
8
1
10
330.847500
20
946.117500
0
VERTEX
8
1
10
324.647500
20
947.505000
0
VERTEX
8
1
10
312.895000
20
950.780000
0
VERTEX
8
1
10
301.310000
20
954.725000
0
VERTEX
8
1
10
286.292500
20
960.920000
0
VERTEX
8
1
10
271.965000
20
967.512500
0
VERTEX
8
1
10
257.895000
20
974.305000
0
VERTEX
8
1
10
206.772500
20
998.700000
0
VERTEX
8
1
10
155.805000
20
1022.475000
0
VERTEX
8
1
10
123.842500
20
1037.220000
0
VERTEX
8
1
10
123.287500
20
1037.475000
0
SEQEND
8
1
0
TEXT
8
1
10
994.725000
20
203.860000
40
5.000000
50
-180.000000
1
Piece Name: 去品牌训练营改版20230517.boke_口袋
7
STANDARD
0
TEXT
8
1
10
994.725000
20
198.860000
40
5.000000
50
-180.000000
1
Category: 5
7
STANDARD
0
TEXT
8
1
10
994.725000
20
193.860000
40
5.000000
50
-180.000000
1
Fabric: 面布
7
STANDARD
0
TEXT
8
1
10
994.725000
20
188.860000
40
5.000000
50
-180.000000
1
Size: 150
7
STANDARD
0
POLYLINE
8
1
66
 1
70
1
0
VERTEX
8
1
10
746.032500
20
217.650000
0
VERTEX
8
1
10
746.587500
20
217.905000
0
VERTEX
8
1
10
778.550000
20
232.650000
0
VERTEX
8
1
10
829.517500
20
256.425000
0
VERTEX
8
1
10
880.640000
20
280.820000
0
VERTEX
8
1
10
894.710000
20
287.612500
0
VERTEX
8
1
10
909.037500
20
294.205000
0
VERTEX
8
1
10
924.055000
20
300.400000
0
VERTEX
8
1
10
935.640000
20
304.345000
0
VERTEX
8
1
10
947.392500
20
307.620000
0
VERTEX
8
1
10
953.592500
20
309.007500
0
VERTEX
8
1
10
959.867500
20
310.157500
0
VERTEX
8
1
10
972.080000
20
311.565000
0
VERTEX
8
1
10
978.567500
20
311.822500
0
VERTEX
8
1
10
985.025000
20
311.722500
0
VERTEX
8
1
10
991.450000
20
311.247500
0
VERTEX
8
1
10
998.037500
20
310.332500
0
VERTEX
8
1
10
1003.527500
20
309.087500
0
VERTEX
8
1
10
1008.827500
20
307.582500
0
VERTEX
8
1
10
1014.022500
20
305.800000
0
VERTEX
8
1
10
1019.060000
20
303.762500
0
VERTEX
8
1
10
1021.697500
20
302.565000
0
VERTEX
8
1
10
1024.200000
20
301.350000
0
VERTEX
8
1
10
1029.005000
20
298.762500
0
VERTEX
8
1
10
1033.702500
20
295.875000
0
VERTEX
8
1
10
1038.265000
20
292.695000
0
VERTEX
8
1
10
1042.642500
20
289.225000
0
VERTEX
8
1
10
1046.757500
20
285.520000
0
VERTEX
8
1
10
1050.650000
20
281.520000
0
VERTEX
8
1
10
1054.510000
20
276.960000
0
VERTEX
8
1
10
1058.222500
20
271.255000
0
VERTEX
8
1
10
1061.347500
20
265.482500
0
VERTEX
8
1
10
1063.972500
20
259.582500
0
VERTEX
8
1
10
1066.157500
20
253.540000
0
VERTEX
8
1
10
1067.107500
20
250.410000
0
VERTEX
8
1
10
1067.987500
20
247.127500
0
VERTEX
8
1
10
1069.327500
20
240.910000
0
VERTEX
8
1
10
1070.287500
20
234.530000
0
VERTEX
8
1
10
1070.862500
20
228.105000
0
VERTEX
8
1
10
1071.062500
20
221.640000
0
VERTEX
8
1
10
1070.892500
20
215.222500
0
VERTEX
8
1
10
1070.362500
20
208.822500
0
VERTEX
8
1
10
1069.445000
20
202.247500
0
VERTEX
8
1
10
1067.217500
20
192.950000
0
VERTEX
8
1
10
1064.305000
20
184.160000
0
VERTEX
8
1
10
1062.470000
20
179.627500
0
VERTEX
8
1
10
1060.487500
20
175.272500
0
VERTEX
8
1
10
1056.112500
20
167.120000
0
VERTEX
8
1
10
1050.965000
20
159.272500
0
VERTEX
8
1
10
1045.095000
20
151.867500
0
VERTEX
8
1
10
1037.295000
20
143.840000
0
VERTEX
8
1
10
1030.237500
20
136.835000
0
VERTEX
8
1
10
1024.410000
20
130.055000
0
VERTEX
8
1
10
1022.160000
20
126.710000
0
VERTEX
8
1
10
1019.965000
20
122.825000
0
VERTEX
8
1
10
1017.952500
20
118.687500
0
VERTEX
8
1
10
1015.987500
20
114.132500
0
VERTEX
8
1
10
1012.127500
20
104.192500
0
VERTEX
8
1
10
1010.457500
20
99.900000
0
VERTEX
8
1
10
1000.012500
20
99.900000
0
VERTEX
8
1
10
943.520000
20
99.900000
0
VERTEX
8
1
10
940.020000
20
103.897500
0
VERTEX
8
1
10
936.522500
20
99.900000
0
VERTEX
8
1
10
876.022500
20
99.900000
0
VERTEX
8
1
10
803.532500
20
99.900000
0
VERTEX
8
1
10
800.032500
20
103.897500
0
VERTEX
8
1
10
796.535000
20
99.900000
0
VERTEX
8
1
10
752.032500
20
99.900000
0
VERTEX
8
1
10
746.032500
20
99.900000
0
VERTEX
8
1
10
746.032500
20
108.900000
0
VERTEX
8
1
10
746.032500
20
117.900000
0
VERTEX
8
1
10
746.032500
20
157.497500
0
VERTEX
8
1
10
746.032500
20
206.100000
0
VERTEX
8
1
10
746.032500
20
217.650000
0
SEQEND
8
1
0
TEXT
8
1
10
76.340000
20
1274.185000
40
5.000000
50
0.000871
1
Piece Name: 去品牌训练营改版20230517.boke_口袋
7
STANDARD
0
TEXT
8
1
10
76.340000
20
1269.185000
40
5.000000
50
0.000871
1
Category: 5
7
STANDARD
0
TEXT
8
1
10
76.340000
20
1264.185000
40
5.000000
50
0.000871
1
Fabric: 面布
7
STANDARD
0
TEXT
8
1
10
76.340000
20
1259.185000
40
5.000000
50
0.000871
1
Size: 150
7
STANDARD
0
POLYLINE
8
1
66
 1
70
1
0
VERTEX
8
1
10
325.032500
20
1287.977500
0
VERTEX
8
1
10
325.032500
20
1276.427500
0
VERTEX
8
1
10
325.032500
20
1227.825000
0
VERTEX
8
1
10
325.032500
20
1188.227500
0
VERTEX
8
1
10
325.032500
20
1179.227500
0
VERTEX
8
1
10
325.032500
20
1170.227500
0
VERTEX
8
1
10
319.032500
20
1170.227500
0
VERTEX
8
1
10
274.532500
20
1170.227500
0
VERTEX
8
1
10
271.032500
20
1174.225000
0
VERTEX
8
1
10
267.535000
20
1170.227500
0
VERTEX
8
1
10
195.042500
20
1170.227500
0
VERTEX
8
1
10
134.545000
20
1170.225000
0
VERTEX
8
1
10
131.045000
20
1174.222500
0
VERTEX
8
1
10
127.547500
20
1170.225000
0
VERTEX
8
1
10
71.052500
20
1170.225000
0
VERTEX
8
1
10
60.607500
20
1170.225000
0
VERTEX
8
1
10
58.937500
20
1174.517500
0
VERTEX
8
1
10
55.077500
20
1184.457500
0
VERTEX
8
1
10
53.112500
20
1189.012500
0
VERTEX
8
1
10
51.100000
20
1193.150000
0
VERTEX
8
1
10
48.905000
20
1197.035000
0
VERTEX
8
1
10
46.655000
20
1200.380000
0
VERTEX
8
1
10
40.827500
20
1207.160000
0
VERTEX
8
1
10
33.770000
20
1214.165000
0
VERTEX
8
1
10
25.970000
20
1222.192500
0
VERTEX
8
1
10
20.100000
20
1229.597500
0
VERTEX
8
1
10
14.952500
20
1237.445000
0
VERTEX
8
1
10
10.577500
20
1245.597500
0
VERTEX
8
1
10
8.595000
20
1249.952500
0
VERTEX
8
1
10
6.760000
20
1254.485000
0
VERTEX
8
1
10
3.847500
20
1263.275000
0
VERTEX
8
1
10
1.620000
20
1272.572500
0
VERTEX
8
1
10
0.702500
20
1279.147500
0
VERTEX
8
1
10
0.172500
20
1285.547500
0
VERTEX
8
1
10
0.002500
20
1291.965000
0
VERTEX
8
1
10
0.202500
20
1298.430000
0
VERTEX
8
1
10
0.777500
20
1304.855000
0
VERTEX
8
1
10
1.737500
20
1311.235000
0
VERTEX
8
1
10
3.077500
20
1317.452500
0
VERTEX
8
1
10
3.955000
20
1320.735000
0
VERTEX
8
1
10
4.905000
20
1323.865000
0
VERTEX
8
1
10
7.090000
20
1329.907500
0
VERTEX
8
1
10
9.715000
20
1335.807500
0
VERTEX
8
1
10
12.840000
20
1341.580000
0
VERTEX
8
1
10
16.552500
20
1347.285000
0
VERTEX
8
1
10
20.412500
20
1351.845000
0
VERTEX
8
1
10
24.305000
20
1355.845000
0
VERTEX
8
1
10
28.420000
20
1359.550000
0
VERTEX
8
1
10
32.797500
20
1363.020000
0
VERTEX
8
1
10
37.360000
20
1366.200000
0
VERTEX
8
1
10
42.057500
20
1369.087500
0
VERTEX
8
1
10
46.862500
20
1371.675000
0
VERTEX
8
1
10
49.365000
20
1372.890000
0
VERTEX
8
1
10
52.002500
20
1374.087500
0
VERTEX
8
1
10
57.040000
20
1376.125000
0
VERTEX
8
1
10
62.235000
20
1377.907500
0
VERTEX
8
1
10
67.535000
20
1379.412500
0
VERTEX
8
1
10
73.025000
20
1380.657500
0
VERTEX
8
1
10
79.612500
20
1381.572500
0
VERTEX
8
1
10
86.037500
20
1382.047500
0
VERTEX
8
1
10
92.495000
20
1382.147500
0
VERTEX
8
1
10
98.982500
20
1381.890000
0
VERTEX
8
1
10
111.195000
20
1380.482500
0
VERTEX
8
1
10
117.470000
20
1379.332500
0
VERTEX
8
1
10
123.670000
20
1377.945000
0
VERTEX
8
1
10
135.422500
20
1374.670000
0
VERTEX
8
1
10
147.007500
20
1370.725000
0
VERTEX
8
1
10
162.025000
20
1364.530000
0
VERTEX
8
1
10
176.355000
20
1357.937500
0
VERTEX
8
1
10
190.425000
20
1351.147500
0
VERTEX
8
1
10
241.547500
20
1326.752500
0
VERTEX
8
1
10
292.515000
20
1302.977500
0
VERTEX
8
1
10
324.477500
20
1288.232500
0
VERTEX
8
1
10
325.032500
20
1287.977500
0
SEQEND
8
1
0
TEXT
8
1
10
730.745000
20
357.400000
40
5.000000
50
0.000871
1
Piece Name: 去品牌训练营改版20230517.boke_口袋
7
STANDARD
0
TEXT
8
1
10
730.745000
20
352.400000
40
5.000000
50
0.000871
1
Category: 5
7
STANDARD
0
TEXT
8
1
10
730.745000
20
347.400000
40
5.000000
50
0.000871
1
Fabric: 面布
7
STANDARD
0
TEXT
8
1
10
730.745000
20
342.400000
40
5.000000
50
0.000871
1
Size: 150
7
STANDARD
0
POLYLINE
8
1
66
 1
70
1
0
VERTEX
8
1
10
979.437500
20
343.612500
0
VERTEX
8
1
10
978.882500
20
343.357500
0
VERTEX
8
1
10
946.920000
20
328.612500
0
VERTEX
8
1
10
895.952500
20
304.837500
0
VERTEX
8
1
10
844.830000
20
280.440000
0
VERTEX
8
1
10
830.760000
20
273.647500
0
VERTEX
8
1
10
816.432500
20
267.055000
0
VERTEX
8
1
10
801.415000
20
260.860000
0
VERTEX
8
1
10
789.830000
20
256.915000
0
VERTEX
8
1
10
778.077500
20
253.640000
0
VERTEX
8
1
10
771.877500
20
252.252500
0
VERTEX
8
1
10
765.602500
20
251.102500
0
VERTEX
8
1
10
753.390000
20
249.695000
0
VERTEX
8
1
10
746.902500
20
249.437500
0
VERTEX
8
1
10
740.445000
20
249.537500
0
VERTEX
8
1
10
734.020000
20
250.012500
0
VERTEX
8
1
10
727.432500
20
250.927500
0
VERTEX
8
1
10
721.942500
20
252.172500
0
VERTEX
8
1
10
716.642500
20
253.677500
0
VERTEX
8
1
10
711.447500
20
255.460000
0
VERTEX
8
1
10
706.410000
20
257.497500
0
VERTEX
8
1
10
703.772500
20
258.695000
0
VERTEX
8
1
10
701.270000
20
259.910000
0
VERTEX
8
1
10
696.465000
20
262.497500
0
VERTEX
8
1
10
691.767500
20
265.385000
0
VERTEX
8
1
10
687.205000
20
268.565000
0
VERTEX
8
1
10
682.827500
20
272.035000
0
VERTEX
8
1
10
678.712500
20
275.740000
0
VERTEX
8
1
10
674.820000
20
279.740000
0
VERTEX
8
1
10
670.960000
20
284.300000
0
VERTEX
8
1
10
667.247500
20
290.005000
0
VERTEX
8
1
10
664.122500
20
295.777500
0
VERTEX
8
1
10
661.497500
20
301.677500
0
VERTEX
8
1
10
659.312500
20
307.720000
0
VERTEX
8
1
10
658.362500
20
310.850000
0
VERTEX
8
1
10
657.482500
20
314.132500
0
VERTEX
8
1
10
656.142500
20
320.350000
0
VERTEX
8
1
10
655.182500
20
326.730000
0
VERTEX
8
1
10
654.607500
20
333.155000
0
VERTEX
8
1
10
654.407500
20
339.620000
0
VERTEX
8
1
10
654.577500
20
346.037500
0
VERTEX
8
1
10
655.107500
20
352.437500
0
VERTEX
8
1
10
656.025000
20
359.012500
0
VERTEX
8
1
10
658.252500
20
368.310000
0
VERTEX
8
1
10
661.165000
20
377.100000
0
VERTEX
8
1
10
663.000000
20
381.632500
0
VERTEX
8
1
10
664.982500
20
385.987500
0
VERTEX
8
1
10
669.357500
20
394.140000
0
VERTEX
8
1
10
674.502500
20
401.987500
0
VERTEX
8
1
10
680.372500
20
409.392500
0
VERTEX
8
1
10
688.172500
20
417.420000
0
VERTEX
8
1
10
695.230000
20
424.425000
0
VERTEX
8
1
10
701.057500
20
431.205000
0
VERTEX
8
1
10
703.307500
20
434.550000
0
VERTEX
8
1
10
705.502500
20
438.435000
0
VERTEX
8
1
10
707.515000
20
442.572500
0
VERTEX
8
1
10
709.480000
20
447.127500
0
VERTEX
8
1
10
713.340000
20
457.067500
0
VERTEX
8
1
10
715.010000
20
461.360000
0
VERTEX
8
1
10
725.455000
20
461.360000
0
VERTEX
8
1
10
781.950000
20
461.360000
0
VERTEX
8
1
10
785.447500
20
457.362500
0
VERTEX
8
1
10
788.947500
20
461.360000
0
VERTEX
8
1
10
849.447500
20
461.360000
0
VERTEX
8
1
10
921.937500
20
461.360000
0
VERTEX
8
1
10
925.435000
20
457.362500
0
VERTEX
8
1
10
928.935000
20
461.360000
0
VERTEX
8
1
10
973.435000
20
461.360000
0
VERTEX
8
1
10
979.435000
20
461.360000
0
VERTEX
8
1
10
979.435000
20
452.362500
0
VERTEX
8
1
10
979.435000
20
443.362500
0
VERTEX
8
1
10
979.435000
20
403.765000
0
VERTEX
8
1
10
979.437500
20
355.162500
0
VERTEX
8
1
10
979.437500
20
343.612500
0
SEQEND
8
1
0
TEXT
8
1
10
84.945000
20
795.967500
40
5.000000
50
-0.000000
1
Piece Name: 去品牌训练营改版20230517.boke_后片
7
STANDARD
0
TEXT
8
1
10
84.945000
20
790.967500
40
5.000000
50
-0.000000
1
Category: 6
7
STANDARD
0
TEXT
8
1
10
84.945000
20
785.967500
40
5.000000
50
-0.000000
1
Fabric: 面布
7
STANDARD
0
TEXT
8
1
10
84.945000
20
780.967500
40
5.000000
50
-0.000000
1
Size: 150
7
STANDARD
0
POLYLINE
8
1
66
 1
70
1
0
VERTEX
8
1
10
209.460000
20
980.630000
0
VERTEX
8
1
10
212.157500
20
973.057500
0
VERTEX
8
1
10
216.922500
20
959.680000
0
VERTEX
8
1
10
221.977500
20
946.490000
0
VERTEX
8
1
10
227.540000
20
933.787500
0
VERTEX
8
1
10
231.165000
20
926.632500
0
VERTEX
8
1
10
235.142500
20
919.920000
0
VERTEX
8
1
10
239.642500
20
913.692500
0
VERTEX
8
1
10
243.050000
20
909.882500
0
VERTEX
8
1
10
246.867500
20
906.227500
0
VERTEX
8
1
10
250.995000
20
902.827500
0
VERTEX
8
1
10
255.180000
20
899.870000
0
VERTEX
8
1
10
264.605000
20
894.662500
0
VERTEX
8
1
10
270.400000
20
892.447500
0
VERTEX
8
1
10
276.697500
20
890.582500
0
VERTEX
8
1
10
283.235000
20
889.080000
0
VERTEX
8
1
10
289.982500
20
887.847500
0
VERTEX
8
1
10
304.112500
20
885.812500
0
VERTEX
8
1
10
398.220000
20
875.577500
0
VERTEX
8
1
10
435.610000
20
871.510000
0
VERTEX
8
1
10
488.802500
20
865.720000
0
VERTEX
8
1
10
491.847500
20
860.365000
0
VERTEX
8
1
10
495.772500
20
865.112500
0
VERTEX
8
1
10
549.160000
20
861.595000
0
VERTEX
8
1
10
548.280000
20
851.417500
0
VERTEX
8
1
10
538.030000
20
734.177500
0
VERTEX
8
1
10
527.780000
20
616.935000
0
VERTEX
8
1
10
526.552500
20
602.975000
0
VERTEX
8
1
10
473.660000
20
612.292500
0
VERTEX
8
1
10
470.645000
20
617.877500
0
VERTEX
8
1
10
466.715000
20
612.900000
0
VERTEX
8
1
10
413.002500
20
612.900000
0
VERTEX
8
1
10
247.997500
20
612.900000
0
VERTEX
8
1
10
49.995000
20
612.900000
0
VERTEX
8
1
10
24.997500
20
612.900000
0
VERTEX
8
1
10
0.000000
20
612.900000
0
VERTEX
8
1
10
0.000000
20
621.897500
0
VERTEX
8
1
10
0.000000
20
777.887500
0
VERTEX
8
1
10
0.000000
20
933.877500
0
VERTEX
8
1
10
0.000000
20
947.130000
0
VERTEX
8
1
10
3.917500
20
946.465000
0
VERTEX
8
1
10
24.995000
20
942.995000
0
VERTEX
8
1
10
46.072500
20
946.465000
0
VERTEX
8
1
10
49.992500
20
947.130000
0
VERTEX
8
1
10
68.950000
20
950.365000
0
VERTEX
8
1
10
91.302500
20
954.445000
0
VERTEX
8
1
10
127.870000
20
961.907500
0
VERTEX
8
1
10
164.535000
20
970.117500
0
VERTEX
8
1
10
201.632500
20
978.800000
0
VERTEX
8
1
10
209.460000
20
980.630000
0
SEQEND
8
1
0
TEXT
8
1
10
1008.695000
20
1484.785000
40
5.000000
50
-180.000000
1
Piece Name: 去品牌训练营改版20230517.boke_后片
7
STANDARD
0
TEXT
8
1
10
1008.695000
20
1479.785000
40
5.000000
50
-180.000000
1
Category: 7
7
STANDARD
0
TEXT
8
1
10
1008.695000
20
1474.785000
40
5.000000
50
-180.000000
1
Fabric: 面布
7
STANDARD
0
TEXT
8
1
10
1008.695000
20
1469.785000
40
5.000000
50
-180.000000
1
Size: 150
7
STANDARD
0
POLYLINE
8
1
66
 1
70
1
0
VERTEX
8
1
10
884.177500
20
1669.447500
0
VERTEX
8
1
10
892.005000
20
1667.617500
0
VERTEX
8
1
10
929.100000
20
1658.940000
0
VERTEX
8
1
10
965.762500
20
1650.730000
0
VERTEX
8
1
10
1002.332500
20
1643.267500
0
VERTEX
8
1
10
1024.687500
20
1639.187500
0
VERTEX
8
1
10
1043.645000
20
1635.957500
0
VERTEX
8
1
10
1047.560000
20
1635.287500
0
VERTEX
8
1
10
1068.642500
20
1631.815000
0
VERTEX
8
1
10
1089.725000
20
1635.287500
0
VERTEX
8
1
10
1093.640000
20
1635.957500
0
VERTEX
8
1
10
1093.640000
20
1622.697500
0
VERTEX
8
1
10
1093.640000
20
1466.707500
0
VERTEX
8
1
10
1093.640000
20
1310.717500
0
VERTEX
8
1
10
1093.640000
20
1301.717500
0
VERTEX
8
1
10
1068.642500
20
1301.717500
0
VERTEX
8
1
10
1043.645000
20
1301.717500
0
VERTEX
8
1
10
845.642500
20
1301.717500
0
VERTEX
8
1
10
680.640000
20
1301.717500
0
VERTEX
8
1
10
626.930000
20
1301.717500
0
VERTEX
8
1
10
622.997500
20
1306.695000
0
VERTEX
8
1
10
619.985000
20
1301.110000
0
VERTEX
8
1
10
567.085000
20
1291.797500
0
VERTEX
8
1
10
565.860000
20
1305.752500
0
VERTEX
8
1
10
555.610000
20
1422.992500
0
VERTEX
8
1
10
545.360000
20
1540.235000
0
VERTEX
8
1
10
544.575000
20
1549.202500
0
VERTEX
8
1
10
597.875000
20
1553.860000
0
VERTEX
8
1
10
601.792500
20
1549.185000
0
VERTEX
8
1
10
604.840000
20
1554.542500
0
VERTEX
8
1
10
695.420000
20
1564.395000
0
VERTEX
8
1
10
789.522500
20
1574.630000
0
VERTEX
8
1
10
803.652500
20
1576.665000
0
VERTEX
8
1
10
810.400000
20
1577.897500
0
VERTEX
8
1
10
816.935000
20
1579.400000
0
VERTEX
8
1
10
823.237500
20
1581.267500
0
VERTEX
8
1
10
829.030000
20
1583.480000
0
VERTEX
8
1
10
838.455000
20
1588.687500
0
VERTEX
8
1
10
842.640000
20
1591.645000
0
VERTEX
8
1
10
846.770000
20
1595.045000
0
VERTEX
8
1
10
850.585000
20
1598.700000
0
VERTEX
8
1
10
853.995000
20
1602.512500
0
VERTEX
8
1
10
858.495000
20
1608.737500
0
VERTEX
8
1
10
862.470000
20
1615.450000
0
VERTEX
8
1
10
866.095000
20
1622.607500
0
VERTEX
8
1
10
871.657500
20
1635.307500
0
VERTEX
8
1
10
876.712500
20
1648.500000
0
VERTEX
8
1
10
881.480000
20
1661.875000
0
VERTEX
8
1
10
884.177500
20
1669.447500
0
SEQEND
8
1
0
ENDSEC
0
EOF
