  0
SECTION
  2
HEADER
  9
$ACADVER
  1
AC1009
  9
$INSBASE
 10
0.0
 20
0.0
 30
0.0
  9
$EXTMIN
 10
4.845262
 20
3.02933
 30
0.0
  9
$EXTMAX
 10
8.847323
 20
6.850559
 30
0.0
  9
$LIMMIN
 10
0.0
 20
0.0
  9
$LIMMAX
 10
12.0
 20
9.0
  9
$ORTHOMODE
 70
     0
  9
$REGENMODE
 70
     1
  9
$FILLMODE
 70
     1
  9
$QTEXTMODE
 70
     0
  9
$MIRRTEXT
 70
     1
  9
$DRAGMODE
 70
     2
  9
$LTSCALE
 40
1.0
  9
$OSMODE
 70
     0
  9
$ATTMODE
 70
     1
  9
$TEXTSIZE
 40
0.2
  9
$TRACEWID
 40
0.05
  9
$TEXTSTYLE
  7
STANDARD
  9
$CLAYER
  8
0
  9
$CELTYPE
  6
BYLAYER
  9
$CECOLOR
 62
   256
  9
$DIMSCALE
 40
1.0
  9
$DIMASZ
 40
0.18
  9
$DIMEXO
 40
0.0625
  9
$DIMDLI
 40
0.38
  9
$DIMRND
 40
0.0
  9
$DIMDLE
 40
0.0
  9
$DIMEXE
 40
0.18
  9
$DIMTP
 40
0.0
  9
$DIMTM
 40
0.0
  9
$DIMTXT
 40
0.18
  9
$DIMCEN
 40
0.09
  9
$DIMTSZ
 40
0.0
  9
$DIMTOL
 70
     0
  9
$DIMLIM
 70
     0
  9
$DIMTIH
 70
     1
  9
$DIMTOH
 70
     1
  9
$DIMSE1
 70
     0
  9
$DIMSE2
 70
     0
  9
$DIMTAD
 70
     0
  9
$DIMZIN
 70
     0
  9
$DIMBLK
  1

  9
$DIMASO
 70
     1
  9
$DIMSHO
 70
     1
  9
$DIMPOST
  1

  9
$DIMAPOST
  1

  9
$DIMALT
 70
     0
  9
$DIMALTD
 70
     2
  9
$DIMALTF
 40
25.4
  9
$DIMLFAC
 40
1.0
  9
$DIMTOFL
 70
     0
  9
$DIMTVP
 40
0.0
  9
$DIMTIX
 70
     0
  9
$DIMSOXD
 70
     0
  9
$DIMSAH
 70
     0
  9
$DIMBLK1
  1

  9
$DIMBLK2
  1

  9
$DIMSTYLE
  2
*UNNAMED
  9
$DIMCLRD
 70
     0
  9
$DIMCLRE
 70
     0
  9
$DIMCLRT
 70
     0
  9
$DIMTFAC
 40
1.0
  9
$DIMGAP
 40
0.09
  9
$LUNITS
 70
     2
  9
$LUPREC
 70
     4
  9
$SKETCHINC
 40
0.1
  9
$FILLETRAD
 40
0.0
  9
$AUNITS
 70
     0
  9
$AUPREC
 70
     0
  9
$MENU
  1
aDXF
  9
$ELEVATION
 40
0.0
  9
$PELEVATION
 40
0.0
  9
$THICKNESS
 40
0.0
  9
$LIMCHECK
 70
     0
  9
$BLIPMODE
 70
     1
  9
$CHAMFERA
 40
0.0
  9
$CHAMFERB
 40
0.0
  9
$SKPOLY
 70
     0
  9
$TDCREATE
 40
2450406.327857407
  9
$TDUPDATE
 40
2450406.327857407
  9
$TDINDWG
 40
0.0000000000
  9
$TDUSRTIMER
 40
0.0000000000
  9
$USRTIMER
 70
     1
  9
$ANGBASE
 50
0.0
  9
$ANGDIR
 70
     0
  9
$PDMODE
 70
     0
  9
$PDSIZE
 40
0.0
  9
$PLINEWID
 40
0.0
  9
$COORDS
 70
     1
  9
$SPLFRAME
 70
     0
  9
$SPLINETYPE
 70
     6
  9
$SPLINESEGS
 70
     8
  9
$ATTDIA
 70
     0
  9
$ATTREQ
 70
     1
  9
$HANDLING
 70
     0
  9
$HANDSEED
  5
0
  9
$SURFTAB1
 70
     6
  9
$SURFTAB2
 70
     6
  9
$SURFTYPE
 70
     6
  9
$SURFU
 70
     6
  9
$SURFV
 70
     6
  9
$UCSNAME
  2

  9
$UCSORG
 10
0.0
 20
0.0
 30
0.0
  9
$UCSXDIR
 10
1.0
 20
0.0
 30
0.0
  9
$UCSYDIR
 10
0.0
 20
1.0
 30
0.0
  9
$PUCSNAME
  2

  9
$PUCSORG
 10
0.0
 20
0.0
 30
0.0
  9
$PUCSXDIR
 10
1.0
 20
0.0
 30
0.0
  9
$PUCSYDIR
 10
0.0
 20
1.0
 30
0.0
  9
$USERI1
 70
     0
  9
$USERI2
 70
     0
  9
$USERI3
 70
     0
  9
$USERI4
 70
     0
  9
$USERI5
 70
     0
  9
$USERR1
 40
0.0
  9
$USERR2
 40
0.0
  9
$USERR3
 40
0.0
  9
$USERR4
 40
0.0
  9
$USERR5
 40
0.0
  9
$WORLDVIEW
 70
     1
  9
$SHADEDGE
 70
     3
  9
$SHADEDIF
 70
    70
  9
$TILEMODE
 70
     1
  9
$MAXACTVP
 70
    16
  9
$PINSBASE
 10
0.0
 20
0.0
 30
0.0
  9
$PLIMCHECK
 70
     0
  9
$PEXTMIN
 10
1.000000E+20
 20
1.000000E+20
 30
1.000000E+20
  9
$PEXTMAX
 10
-1.000000E+20
 20
-1.000000E+20
 30
-1.000000E+20
  9
$PLIMMIN
 10
0.0
 20
0.0
  9
$PLIMMAX
 10
12.0
 20
9.0
  9
$UNITMODE
 70
     0
  9
$VISRETAIN
 70
     0
  9
$PLINEGEN
 70
     0
  9
$PSLTSCALE
 70
     1
  9
$TREEDEPTH
 70
  3020
  9
$DWGCODEPAGE
  3
iso8859-1
  0
ENDSEC
  0
SECTION
  2
TABLES
  0
TABLE
  2
VPORT
 70
     2
  0
VPORT
  2
*ACTIVE
 70
     0
 10
0.0
 20
0.0
 11
1.0
 21
1.0
 12
7.953782
 22
4.5
 13
0.0
 23
0.0
 14
1.0
 24
1.0
 15
0.0
 25
0.0
 16
0.0
 26
0.0
 36
1.0
 17
0.0
 27
0.0
 37
0.0
 40
9.0
 41
1.767507
 42
50.0
 43
0.0
 44
0.0
 50
0.0
 51
0.0
 71
     0
 72
   100
 73
     1
 74
     1
 75
     0
 76
     0
 77
     0
 78
     0
  0
ENDTAB
  0
TABLE
  2
LTYPE
 70
     1
  0
LTYPE
  2
CONTINUOUS
 70
    64
  3
Solid line
 72
    65
 73
     0
 40
0.0
  0
ENDTAB
  0
TABLE
  2
LAYER
 70
     1
  0
LAYER
  2
0
 70
     0
 62
     7
  6
CONTINUOUS
  0
ENDTAB
  0
TABLE
  2
STYLE
 70
     1
  0
STYLE
  2
STANDARD
 70
     0
 40
0.0
 41
1.0
 50
0.0
 71
     0
 42
0.2
  3
txt
  4

  0
ENDTAB
  0
TABLE
  2
VIEW
 70
     0
  0
ENDTAB
  0
TABLE
  2
UCS
 70
     0
  0
ENDTAB
  0
TABLE
  2
APPID
 70
     1
  0
APPID
  2
ADXF
 70
    64
  0
ENDTAB
  0
TABLE
  2
DIMSTYLE
 70
     0
  0
ENDTAB
  0
ENDSEC
  0
SECTION
  2
BLOCKS
  0
ENDSEC
0
SECTION
2
ENTITIES
0
TEXT
8
1
10
78.200000
20
249.235000
40
5.000000
50
0.000460
1
Piece Name: 去品牌训练营改版20230517.boke_前片
7
STANDARD
0
TEXT
8
1
10
78.200000
20
244.235000
40
5.000000
50
0.000460
1
Category: 1
7
STANDARD
0
TEXT
8
1
10
78.200000
20
239.235000
40
5.000000
50
0.000460
1
Fabric: 面布
7
STANDARD
0
TEXT
8
1
10
78.200000
20
234.235000
40
5.000000
50
0.000460
1
Size: 150
7
STANDARD
0
POLYLINE
8
1
66
 1
70
1
0
VERTEX
8
1
10
0.000000
20
104.900000
0
VERTEX
8
1
10
0.000000
20
112.897500
0
VERTEX
8
1
10
0.000000
20
231.905000
0
VERTEX
8
1
10
0.000000
20
350.912500
0
VERTEX
8
1
10
0.000000
20
363.100000
0
VERTEX
8
1
10
5.057500
20
362.257500
0
VERTEX
8
1
10
24.997500
20
359.012500
0
VERTEX
8
1
10
44.937500
20
362.257500
0
VERTEX
8
1
10
49.995000
20
363.100000
0
VERTEX
8
1
10
66.552500
20
365.870000
0
VERTEX
8
1
10
87.595000
20
369.580000
0
VERTEX
8
1
10
126.060000
20
377.027500
0
VERTEX
8
1
10
164.010000
20
385.012500
0
VERTEX
8
1
10
202.290000
20
393.387500
0
VERTEX
8
1
10
208.260000
20
394.690000
0
VERTEX
8
1
10
211.090000
20
389.272500
0
VERTEX
8
1
10
214.395000
20
382.940000
0
VERTEX
8
1
10
215.972500
20
380.252500
0
VERTEX
8
1
10
217.635000
20
377.797500
0
VERTEX
8
1
10
219.327500
20
375.712500
0
VERTEX
8
1
10
221.075000
20
373.995000
0
VERTEX
8
1
10
223.217500
20
372.387500
0
VERTEX
8
1
10
225.665000
20
370.972500
0
VERTEX
8
1
10
228.515000
20
369.680000
0
VERTEX
8
1
10
231.550000
20
368.570000
0
VERTEX
8
1
10
238.460000
20
366.627500
0
VERTEX
8
1
10
245.387500
20
365.145000
0
VERTEX
8
1
10
252.355000
20
363.960000
0
VERTEX
8
1
10
259.407500
20
363.030000
0
VERTEX
8
1
10
270.460000
20
362.042500
0
VERTEX
8
1
10
281.920000
20
361.382500
0
VERTEX
8
1
10
292.912500
20
360.925000
0
VERTEX
8
1
10
313.305000
20
360.147500
0
VERTEX
8
1
10
332.847500
20
359.410000
0
VERTEX
8
1
10
352.952500
20
358.645000
0
VERTEX
8
1
10
390.227500
20
357.192500
0
VERTEX
8
1
10
413.997500
20
356.237500
0
VERTEX
8
1
10
432.060000
20
355.512500
0
VERTEX
8
1
10
467.502500
20
354.060000
0
VERTEX
8
1
10
470.997500
20
348.920000
0
VERTEX
8
1
10
474.495000
20
354.060000
0
VERTEX
8
1
10
509.935000
20
355.512500
0
VERTEX
8
1
10
527.997500
20
356.237500
0
VERTEX
8
1
10
527.997500
20
345.917500
0
VERTEX
8
1
10
527.997500
20
229.410000
0
VERTEX
8
1
10
527.997500
20
112.900000
0
VERTEX
8
1
10
527.997500
20
104.902500
0
VERTEX
8
1
10
474.497500
20
104.902500
0
VERTEX
8
1
10
470.997500
20
109.900000
0
VERTEX
8
1
10
467.500000
20
104.902500
0
VERTEX
8
1
10
413.997500
20
104.902500
0
VERTEX
8
1
10
403.502500
20
104.902500
0
VERTEX
8
1
10
401.002500
20
99.902500
0
VERTEX
8
1
10
398.505000
20
104.902500
0
VERTEX
8
1
10
263.507500
20
104.900000
0
VERTEX
8
1
10
261.007500
20
99.900000
0
VERTEX
8
1
10
258.510000
20
104.900000
0
VERTEX
8
1
10
247.997500
20
104.900000
0
VERTEX
8
1
10
49.995000
20
104.900000
0
VERTEX
8
1
10
24.997500
20
104.900000
0
VERTEX
8
1
10
0.000000
20
104.900000
0
SEQEND
8
1
0
TEXT
8
1
10
71.597500
20
659.057500
40
5.000000
50
0.000421
1
Piece Name: 去品牌训练营改版20230517.boke_前片
7
STANDARD
0
TEXT
8
1
10
71.597500
20
654.057500
40
5.000000
50
0.000421
1
Category: 2
7
STANDARD
0
TEXT
8
1
10
71.597500
20
649.057500
40
5.000000
50
0.000421
1
Fabric: 面布
7
STANDARD
0
TEXT
8
1
10
71.597500
20
644.057500
40
5.000000
50
0.000421
1
Size: 150
7
STANDARD
0
POLYLINE
8
1
66
 1
70
1
0
VERTEX
8
1
10
0.000000
20
410.057500
0
VERTEX
8
1
10
0.000000
20
419.057500
0
VERTEX
8
1
10
0.000000
20
659.057500
0
VERTEX
8
1
10
0.000000
20
899.057500
0
VERTEX
8
1
10
0.000000
20
908.055000
0
VERTEX
8
1
10
24.995000
20
908.055000
0
VERTEX
8
1
10
49.992500
20
908.055000
0
VERTEX
8
1
10
224.995000
20
908.055000
0
VERTEX
8
1
10
424.992500
20
908.055000
0
VERTEX
8
1
10
433.565000
20
908.055000
0
VERTEX
8
1
10
433.982500
20
899.495000
0
VERTEX
8
1
10
434.365000
20
891.612500
0
VERTEX
8
1
10
434.922500
20
883.905000
0
VERTEX
8
1
10
435.812500
20
876.510000
0
VERTEX
8
1
10
436.970000
20
870.410000
0
VERTEX
8
1
10
438.520000
20
864.517500
0
VERTEX
8
1
10
440.477500
20
858.937500
0
VERTEX
8
1
10
442.482500
20
854.800000
0
VERTEX
8
1
10
444.862500
20
850.640000
0
VERTEX
8
1
10
447.527500
20
846.605000
0
VERTEX
8
1
10
450.542500
20
842.605000
0
VERTEX
8
1
10
452.065000
20
840.762500
0
VERTEX
8
1
10
453.647500
20
838.957500
0
VERTEX
8
1
10
457.142500
20
835.297500
0
VERTEX
8
1
10
460.832500
20
831.840000
0
VERTEX
8
1
10
464.655000
20
828.620000
0
VERTEX
8
1
10
468.667500
20
825.592500
0
VERTEX
8
1
10
470.532500
20
824.330000
0
VERTEX
8
1
10
471.377500
20
818.980000
0
VERTEX
8
1
10
476.445000
20
820.592500
0
VERTEX
8
1
10
477.152500
20
820.165000
0
VERTEX
8
1
10
481.495000
20
817.842500
0
VERTEX
8
1
10
486.060000
20
815.697500
0
VERTEX
8
1
10
490.787500
20
813.762500
0
VERTEX
8
1
10
495.557500
20
812.057500
0
VERTEX
8
1
10
500.507500
20
810.517500
0
VERTEX
8
1
10
505.480000
20
809.167500
0
VERTEX
8
1
10
510.480000
20
807.980000
0
VERTEX
8
1
10
520.977500
20
805.915000
0
VERTEX
8
1
10
531.627500
20
804.215000
0
VERTEX
8
1
10
542.222500
20
802.717500
0
VERTEX
8
1
10
554.955000
20
802.130000
0
VERTEX
8
1
10
560.010000
20
801.965000
0
VERTEX
8
1
10
563.380000
20
797.857500
0
VERTEX
8
1
10
567.002500
20
801.742500
0
VERTEX
8
1
10
567.997500
20
801.710000
0
VERTEX
8
1
10
580.885000
20
801.652500
0
VERTEX
8
1
10
601.152500
20
802.522500
0
VERTEX
8
1
10
621.542500
20
804.282500
0
VERTEX
8
1
10
642.025000
20
806.505000
0
VERTEX
8
1
10
649.337500
20
807.295000
0
VERTEX
8
1
10
651.570000
20
800.287500
0
VERTEX
8
1
10
658.572500
20
778.287500
0
VERTEX
8
1
10
665.572500
20
756.287500
0
VERTEX
8
1
10
668.725000
20
746.372500
0
VERTEX
8
1
10
658.460000
20
744.680000
0
VERTEX
8
1
10
631.265000
20
740.197500
0
VERTEX
8
1
10
618.082500
20
737.582500
0
VERTEX
8
1
10
605.150000
20
734.490000
0
VERTEX
8
1
10
592.492500
20
730.755000
0
VERTEX
8
1
10
580.292500
20
726.267500
0
VERTEX
8
1
10
567.225000
20
719.957500
0
VERTEX
8
1
10
561.080000
20
716.397500
0
VERTEX
8
1
10
555.155000
20
712.495000
0
VERTEX
8
1
10
549.517500
20
708.255000
0
VERTEX
8
1
10
544.245000
20
703.705000
0
VERTEX
8
1
10
539.097500
20
698.410000
0
VERTEX
8
1
10
534.490000
20
692.705000
0
VERTEX
8
1
10
530.645000
20
686.745000
0
VERTEX
8
1
10
527.872500
20
680.840000
0
VERTEX
8
1
10
525.702500
20
674.522500
0
VERTEX
8
1
10
524.172500
20
667.882500
0
VERTEX
8
1
10
523.717500
20
664.922500
0
VERTEX
8
1
10
523.427500
20
662.535000
0
VERTEX
8
1
10
519.045000
20
659.060000
0
VERTEX
8
1
10
523.425000
20
655.580000
0
VERTEX
8
1
10
523.715000
20
653.197500
0
VERTEX
8
1
10
524.170000
20
650.237500
0
VERTEX
8
1
10
525.700000
20
643.595000
0
VERTEX
8
1
10
527.870000
20
637.277500
0
VERTEX
8
1
10
530.640000
20
631.372500
0
VERTEX
8
1
10
534.487500
20
625.415000
0
VERTEX
8
1
10
539.095000
20
619.707500
0
VERTEX
8
1
10
544.242500
20
614.412500
0
VERTEX
8
1
10
549.515000
20
609.862500
0
VERTEX
8
1
10
555.152500
20
605.622500
0
VERTEX
8
1
10
561.077500
20
601.720000
0
VERTEX
8
1
10
567.222500
20
598.160000
0
VERTEX
8
1
10
580.290000
20
591.850000
0
VERTEX
8
1
10
592.490000
20
587.362500
0
VERTEX
8
1
10
605.147500
20
583.627500
0
VERTEX
8
1
10
618.080000
20
580.535000
0
VERTEX
8
1
10
631.265000
20
577.920000
0
VERTEX
8
1
10
658.460000
20
573.437500
0
VERTEX
8
1
10
668.725000
20
571.745000
0
VERTEX
8
1
10
665.572500
20
561.830000
0
VERTEX
8
1
10
658.572500
20
539.830000
0
VERTEX
8
1
10
651.572500
20
517.830000
0
VERTEX
8
1
10
649.342500
20
510.820000
0
VERTEX
8
1
10
642.027500
20
511.612500
0
VERTEX
8
1
10
621.547500
20
513.830000
0
VERTEX
8
1
10
601.157500
20
515.590000
0
VERTEX
8
1
10
580.890000
20
516.462500
0
VERTEX
8
1
10
568.002500
20
516.407500
0
VERTEX
8
1
10
567.005000
20
516.372500
0
VERTEX
8
1
10
563.380000
20
520.257500
0
VERTEX
8
1
10
560.012500
20
516.150000
0
VERTEX
8
1
10
554.960000
20
515.987500
0
VERTEX
8
1
10
542.227500
20
515.400000
0
VERTEX
8
1
10
531.632500
20
513.902500
0
VERTEX
8
1
10
520.982500
20
512.202500
0
VERTEX
8
1
10
510.485000
20
510.137500
0
VERTEX
8
1
10
505.485000
20
508.950000
0
VERTEX
8
1
10
500.512500
20
507.600000
0
VERTEX
8
1
10
495.560000
20
506.060000
0
VERTEX
8
1
10
490.790000
20
504.355000
0
VERTEX
8
1
10
486.065000
20
502.420000
0
VERTEX
8
1
10
481.500000
20
500.275000
0
VERTEX
8
1
10
477.155000
20
497.952500
0
VERTEX
8
1
10
476.437500
20
497.515000
0
VERTEX
8
1
10
471.375000
20
499.132500
0
VERTEX
8
1
10
470.525000
20
493.777500
0
VERTEX
8
1
10
468.670000
20
492.525000
0
VERTEX
8
1
10
464.657500
20
489.497500
0
VERTEX
8
1
10
460.835000
20
486.280000
0
VERTEX
8
1
10
457.145000
20
482.820000
0
VERTEX
8
1
10
453.652500
20
479.162500
0
VERTEX
8
1
10
452.070000
20
477.357500
0
VERTEX
8
1
10
450.547500
20
475.512500
0
VERTEX
8
1
10
447.530000
20
471.512500
0
VERTEX
8
1
10
444.865000
20
467.480000
0
VERTEX
8
1
10
442.487500
20
463.317500
0
VERTEX
8
1
10
440.482500
20
459.182500
0
VERTEX
8
1
10
438.527500
20
453.602500
0
VERTEX
8
1
10
436.975000
20
447.707500
0
VERTEX
8
1
10
435.817500
20
441.610000
0
VERTEX
8
1
10
434.927500
20
434.212500
0
VERTEX
8
1
10
434.370000
20
426.505000
0
VERTEX
8
1
10
433.985000
20
418.622500
0
VERTEX
8
1
10
433.567500
20
410.060000
0
VERTEX
8
1
10
424.995000
20
410.060000
0
VERTEX
8
1
10
224.997500
20
410.057500
0
VERTEX
8
1
10
49.995000
20
410.057500
0
VERTEX
8
1
10
24.997500
20
410.057500
0
VERTEX
8
1
10
0.000000
20
410.057500
0
SEQEND
8
1
0
TEXT
8
1
10
612.410000
20
1110.742500
40
5.000000
50
0.000344
1
Piece Name: 去品牌训练营改版20230517.boke_后片
7
STANDARD
0
TEXT
8
1
10
612.410000
20
1105.742500
40
5.000000
50
0.000344
1
Category: 3
7
STANDARD
0
TEXT
8
1
10
612.410000
20
1100.742500
40
5.000000
50
0.000344
1
Fabric: 面布
7
STANDARD
0
TEXT
8
1
10
612.410000
20
1095.742500
40
5.000000
50
0.000344
1
Size: 150
7
STANDARD
0
POLYLINE
8
1
66
 1
70
1
0
VERTEX
8
1
10
512.812500
20
861.742500
0
VERTEX
8
1
10
512.812500
20
870.742500
0
VERTEX
8
1
10
512.812500
20
1110.742500
0
VERTEX
8
1
10
512.812500
20
1350.742500
0
VERTEX
8
1
10
512.812500
20
1359.740000
0
VERTEX
8
1
10
537.807500
20
1359.740000
0
VERTEX
8
1
10
562.805000
20
1359.740000
0
VERTEX
8
1
10
737.807500
20
1359.740000
0
VERTEX
8
1
10
937.807500
20
1359.740000
0
VERTEX
8
1
10
946.112500
20
1359.740000
0
VERTEX
8
1
10
946.777500
20
1351.462500
0
VERTEX
8
1
10
947.557500
20
1341.717500
0
VERTEX
8
1
10
948.077500
20
1337.047500
0
VERTEX
8
1
10
948.757500
20
1332.542500
0
VERTEX
8
1
10
949.625000
20
1328.275000
0
VERTEX
8
1
10
950.737500
20
1324.187500
0
VERTEX
8
1
10
952.640000
20
1319.025000
0
VERTEX
8
1
10
955.015000
20
1313.975000
0
VERTEX
8
1
10
957.677500
20
1309.287500
0
VERTEX
8
1
10
961.605000
20
1304.017500
0
VERTEX
8
1
10
966.077500
20
1298.892500
0
VERTEX
8
1
10
970.965000
20
1294.055000
0
VERTEX
8
1
10
976.297500
20
1289.445000
0
VERTEX
8
1
10
979.000000
20
1287.330000
0
VERTEX
8
1
10
981.770000
20
1285.292500
0
VERTEX
8
1
10
987.812500
20
1281.237500
0
VERTEX
8
1
10
989.845000
20
1280.027500
0
VERTEX
8
1
10
990.810000
20
1274.802500
0
VERTEX
8
1
10
995.912500
20
1276.547500
0
VERTEX
8
1
10
1000.397500
20
1274.180000
0
VERTEX
8
1
10
1007.062500
20
1271.050000
0
VERTEX
8
1
10
1013.920000
20
1268.190000
0
VERTEX
8
1
10
1020.787500
20
1265.655000
0
VERTEX
8
1
10
1027.635000
20
1263.427500
0
VERTEX
8
1
10
1038.022500
20
1260.722500
0
VERTEX
8
1
10
1048.440000
20
1258.577500
0
VERTEX
8
1
10
1053.717500
20
1257.695000
0
VERTEX
8
1
10
1058.777500
20
1256.967500
0
VERTEX
8
1
10
1069.432500
20
1255.802500
0
VERTEX
8
1
10
1080.062500
20
1255.080000
0
VERTEX
8
1
10
1090.555000
20
1254.765000
0
VERTEX
8
1
10
1111.980000
20
1255.117500
0
VERTEX
8
1
10
1133.317500
20
1256.412500
0
VERTEX
8
1
10
1155.065000
20
1258.212500
0
VERTEX
8
1
10
1162.207500
20
1258.802500
0
VERTEX
8
1
10
1164.382500
20
1251.972500
0
VERTEX
8
1
10
1171.385000
20
1229.972500
0
VERTEX
8
1
10
1178.385000
20
1207.972500
0
VERTEX
8
1
10
1180.107500
20
1202.552500
0
VERTEX
8
1
10
1175.952500
20
1198.667500
0
VERTEX
8
1
10
1170.652500
20
1193.715000
0
VERTEX
8
1
10
1166.102500
20
1188.947500
0
VERTEX
8
1
10
1162.475000
20
1184.097500
0
VERTEX
8
1
10
1160.297500
20
1179.905000
0
VERTEX
8
1
10
1158.457500
20
1175.082500
0
VERTEX
8
1
10
1156.957500
20
1169.907500
0
VERTEX
8
1
10
1155.095000
20
1161.172500
0
VERTEX
8
1
10
1153.745000
20
1152.287500
0
VERTEX
8
1
10
1152.645000
20
1143.250000
0
VERTEX
8
1
10
1151.017500
20
1114.237500
0
VERTEX
8
1
10
1146.822500
20
1110.745000
0
VERTEX
8
1
10
1151.015000
20
1107.250000
0
VERTEX
8
1
10
1152.642500
20
1078.240000
0
VERTEX
8
1
10
1153.742500
20
1069.200000
0
VERTEX
8
1
10
1155.092500
20
1060.317500
0
VERTEX
8
1
10
1156.955000
20
1051.582500
0
VERTEX
8
1
10
1158.455000
20
1046.407500
0
VERTEX
8
1
10
1160.297500
20
1041.582500
0
VERTEX
8
1
10
1162.472500
20
1037.390000
0
VERTEX
8
1
10
1166.102500
20
1032.540000
0
VERTEX
8
1
10
1170.650000
20
1027.772500
0
VERTEX
8
1
10
1175.952500
20
1022.820000
0
VERTEX
8
1
10
1180.107500
20
1018.937500
0
VERTEX
8
1
10
1178.385000
20
1013.515000
0
VERTEX
8
1
10
1171.385000
20
991.515000
0
VERTEX
8
1
10
1164.385000
20
969.515000
0
VERTEX
8
1
10
1162.212500
20
962.685000
0
VERTEX
8
1
10
1155.067500
20
963.275000
0
VERTEX
8
1
10
1133.322500
20
965.070000
0
VERTEX
8
1
10
1111.985000
20
966.365000
0
VERTEX
8
1
10
1090.560000
20
966.720000
0
VERTEX
8
1
10
1080.065000
20
966.407500
0
VERTEX
8
1
10
1069.437500
20
965.685000
0
VERTEX
8
1
10
1058.782500
20
964.520000
0
VERTEX
8
1
10
1053.722500
20
963.792500
0
VERTEX
8
1
10
1048.445000
20
962.910000
0
VERTEX
8
1
10
1038.027500
20
960.765000
0
VERTEX
8
1
10
1027.642500
20
958.060000
0
VERTEX
8
1
10
1020.792500
20
955.832500
0
VERTEX
8
1
10
1013.925000
20
953.297500
0
VERTEX
8
1
10
1007.065000
20
950.437500
0
VERTEX
8
1
10
1000.400000
20
947.307500
0
VERTEX
8
1
10
995.920000
20
944.937500
0
VERTEX
8
1
10
990.815000
20
946.682500
0
VERTEX
8
1
10
989.852500
20
941.457500
0
VERTEX
8
1
10
987.817500
20
940.250000
0
VERTEX
8
1
10
981.772500
20
936.195000
0
VERTEX
8
1
10
979.005000
20
934.160000
0
VERTEX
8
1
10
976.302500
20
932.042500
0
VERTEX
8
1
10
970.967500
20
927.432500
0
VERTEX
8
1
10
966.080000
20
922.595000
0
VERTEX
8
1
10
961.607500
20
917.472500
0
VERTEX
8
1
10
957.685000
20
912.202500
0
VERTEX
8
1
10
955.020000
20
907.512500
0
VERTEX
8
1
10
952.645000
20
902.462500
0
VERTEX
8
1
10
950.742500
20
897.305000
0
VERTEX
8
1
10
949.632500
20
893.212500
0
VERTEX
8
1
10
948.762500
20
888.947500
0
VERTEX
8
1
10
948.082500
20
884.440000
0
VERTEX
8
1
10
947.562500
20
879.770000
0
VERTEX
8
1
10
946.780000
20
870.025000
0
VERTEX
8
1
10
946.115000
20
861.745000
0
VERTEX
8
1
10
937.810000
20
861.745000
0
VERTEX
8
1
10
737.810000
20
861.742500
0
VERTEX
8
1
10
562.807500
20
861.742500
0
VERTEX
8
1
10
537.810000
20
861.742500
0
VERTEX
8
1
10
512.812500
20
861.742500
0
SEQEND
8
1
0
TEXT
8
1
10
642.505000
20
1520.562500
40
5.000000
50
0.000460
1
Piece Name: 去品牌训练营改版20230517.boke_前片
7
STANDARD
0
TEXT
8
1
10
642.505000
20
1515.562500
40
5.000000
50
0.000460
1
Category: 4
7
STANDARD
0
TEXT
8
1
10
642.505000
20
1510.562500
40
5.000000
50
0.000460
1
Fabric: 面布
7
STANDARD
0
TEXT
8
1
10
642.505000
20
1505.562500
40
5.000000
50
0.000460
1
Size: 150
7
STANDARD
0
POLYLINE
8
1
66
 1
70
1
0
VERTEX
8
1
10
564.305000
20
1664.900000
0
VERTEX
8
1
10
589.302500
20
1664.900000
0
VERTEX
8
1
10
614.300000
20
1664.900000
0
VERTEX
8
1
10
812.300000
20
1664.900000
0
VERTEX
8
1
10
822.812500
20
1664.900000
0
VERTEX
8
1
10
825.310000
20
1669.897500
0
VERTEX
8
1
10
827.810000
20
1664.900000
0
VERTEX
8
1
10
962.810000
20
1664.902500
0
VERTEX
8
1
10
965.307500
20
1669.897500
0
VERTEX
8
1
10
967.807500
20
1664.902500
0
VERTEX
8
1
10
978.302500
20
1664.902500
0
VERTEX
8
1
10
1031.805000
20
1664.902500
0
VERTEX
8
1
10
1035.302500
20
1659.905000
0
VERTEX
8
1
10
1038.802500
20
1664.902500
0
VERTEX
8
1
10
1092.302500
20
1664.902500
0
VERTEX
8
1
10
1092.302500
20
1656.902500
0
VERTEX
8
1
10
1092.302500
20
1540.395000
0
VERTEX
8
1
10
1092.302500
20
1423.885000
0
VERTEX
8
1
10
1092.302500
20
1413.567500
0
VERTEX
8
1
10
1074.237500
20
1414.292500
0
VERTEX
8
1
10
1038.800000
20
1415.740000
0
VERTEX
8
1
10
1035.302500
20
1420.880000
0
VERTEX
8
1
10
1031.807500
20
1415.740000
0
VERTEX
8
1
10
996.367500
20
1414.292500
0
VERTEX
8
1
10
978.302500
20
1413.567500
0
VERTEX
8
1
10
954.447500
20
1412.607500
0
VERTEX
8
1
10
917.252500
20
1411.152500
0
VERTEX
8
1
10
897.155000
20
1410.390000
0
VERTEX
8
1
10
877.615000
20
1409.652500
0
VERTEX
8
1
10
857.215000
20
1408.875000
0
VERTEX
8
1
10
846.230000
20
1408.417500
0
VERTEX
8
1
10
834.770000
20
1407.757500
0
VERTEX
8
1
10
823.717500
20
1406.770000
0
VERTEX
8
1
10
816.665000
20
1405.840000
0
VERTEX
8
1
10
809.697500
20
1404.655000
0
VERTEX
8
1
10
802.770000
20
1403.172500
0
VERTEX
8
1
10
795.857500
20
1401.230000
0
VERTEX
8
1
10
792.825000
20
1400.120000
0
VERTEX
8
1
10
789.972500
20
1398.825000
0
VERTEX
8
1
10
787.525000
20
1397.412500
0
VERTEX
8
1
10
785.385000
20
1395.802500
0
VERTEX
8
1
10
783.635000
20
1394.085000
0
VERTEX
8
1
10
781.945000
20
1392.002500
0
VERTEX
8
1
10
780.282500
20
1389.545000
0
VERTEX
8
1
10
778.702500
20
1386.857500
0
VERTEX
8
1
10
775.397500
20
1380.527500
0
VERTEX
8
1
10
772.570000
20
1375.107500
0
VERTEX
8
1
10
766.597500
20
1376.412500
0
VERTEX
8
1
10
728.320000
20
1384.782500
0
VERTEX
8
1
10
690.367500
20
1392.767500
0
VERTEX
8
1
10
651.902500
20
1400.215000
0
VERTEX
8
1
10
630.857500
20
1403.925000
0
VERTEX
8
1
10
614.300000
20
1406.690000
0
VERTEX
8
1
10
609.247500
20
1407.537500
0
VERTEX
8
1
10
589.302500
20
1410.785000
0
VERTEX
8
1
10
569.357500
20
1407.537500
0
VERTEX
8
1
10
564.305000
20
1406.690000
0
VERTEX
8
1
10
564.305000
20
1418.885000
0
VERTEX
8
1
10
564.305000
20
1537.892500
0
VERTEX
8
1
10
564.305000
20
1656.900000
0
VERTEX
8
1
10
564.305000
20
1664.900000
0
SEQEND
8
1
0
TEXT
8
1
10
866.105000
20
535.115000
40
5.000000
50
0.000871
1
Piece Name: 去品牌训练营改版20230517.boke_口袋
7
STANDARD
0
TEXT
8
1
10
866.105000
20
530.115000
40
5.000000
50
0.000871
1
Category: 5
7
STANDARD
0
TEXT
8
1
10
866.105000
20
525.115000
40
5.000000
50
0.000871
1
Fabric: 面布
7
STANDARD
0
TEXT
8
1
10
866.105000
20
520.115000
40
5.000000
50
0.000871
1
Size: 150
7
STANDARD
0
POLYLINE
8
1
66
 1
70
1
0
VERTEX
8
1
10
1114.797500
20
548.907500
0
VERTEX
8
1
10
1114.797500
20
537.357500
0
VERTEX
8
1
10
1114.797500
20
488.755000
0
VERTEX
8
1
10
1114.797500
20
449.157500
0
VERTEX
8
1
10
1114.797500
20
440.157500
0
VERTEX
8
1
10
1114.797500
20
431.157500
0
VERTEX
8
1
10
1108.797500
20
431.157500
0
VERTEX
8
1
10
1064.297500
20
431.157500
0
VERTEX
8
1
10
1060.797500
20
435.155000
0
VERTEX
8
1
10
1057.300000
20
431.157500
0
VERTEX
8
1
10
984.807500
20
431.157500
0
VERTEX
8
1
10
924.310000
20
431.155000
0
VERTEX
8
1
10
920.810000
20
435.152500
0
VERTEX
8
1
10
917.312500
20
431.155000
0
VERTEX
8
1
10
860.817500
20
431.155000
0
VERTEX
8
1
10
850.372500
20
431.155000
0
VERTEX
8
1
10
848.702500
20
435.447500
0
VERTEX
8
1
10
844.842500
20
445.387500
0
VERTEX
8
1
10
842.877500
20
449.942500
0
VERTEX
8
1
10
840.865000
20
454.080000
0
VERTEX
8
1
10
838.670000
20
457.965000
0
VERTEX
8
1
10
836.420000
20
461.310000
0
VERTEX
8
1
10
830.592500
20
468.090000
0
VERTEX
8
1
10
823.535000
20
475.095000
0
VERTEX
8
1
10
815.735000
20
483.122500
0
VERTEX
8
1
10
809.865000
20
490.527500
0
VERTEX
8
1
10
804.717500
20
498.375000
0
VERTEX
8
1
10
800.342500
20
506.527500
0
VERTEX
8
1
10
798.360000
20
510.882500
0
VERTEX
8
1
10
796.525000
20
515.415000
0
VERTEX
8
1
10
793.612500
20
524.205000
0
VERTEX
8
1
10
791.385000
20
533.502500
0
VERTEX
8
1
10
790.467500
20
540.077500
0
VERTEX
8
1
10
789.937500
20
546.477500
0
VERTEX
8
1
10
789.767500
20
552.895000
0
VERTEX
8
1
10
789.967500
20
559.360000
0
VERTEX
8
1
10
790.542500
20
565.785000
0
VERTEX
8
1
10
791.502500
20
572.165000
0
VERTEX
8
1
10
792.842500
20
578.382500
0
VERTEX
8
1
10
793.720000
20
581.665000
0
VERTEX
8
1
10
794.670000
20
584.795000
0
VERTEX
8
1
10
796.855000
20
590.837500
0
VERTEX
8
1
10
799.480000
20
596.737500
0
VERTEX
8
1
10
802.605000
20
602.510000
0
VERTEX
8
1
10
806.317500
20
608.215000
0
VERTEX
8
1
10
810.177500
20
612.775000
0
VERTEX
8
1
10
814.070000
20
616.775000
0
VERTEX
8
1
10
818.185000
20
620.480000
0
VERTEX
8
1
10
822.562500
20
623.950000
0
VERTEX
8
1
10
827.125000
20
627.130000
0
VERTEX
8
1
10
831.822500
20
630.017500
0
VERTEX
8
1
10
836.627500
20
632.605000
0
VERTEX
8
1
10
839.130000
20
633.820000
0
VERTEX
8
1
10
841.767500
20
635.017500
0
VERTEX
8
1
10
846.805000
20
637.055000
0
VERTEX
8
1
10
852.000000
20
638.837500
0
VERTEX
8
1
10
857.300000
20
640.342500
0
VERTEX
8
1
10
862.790000
20
641.587500
0
VERTEX
8
1
10
869.377500
20
642.502500
0
VERTEX
8
1
10
875.802500
20
642.977500
0
VERTEX
8
1
10
882.260000
20
643.077500
0
VERTEX
8
1
10
888.747500
20
642.820000
0
VERTEX
8
1
10
900.960000
20
641.412500
0
VERTEX
8
1
10
907.235000
20
640.262500
0
VERTEX
8
1
10
913.435000
20
638.875000
0
VERTEX
8
1
10
925.187500
20
635.600000
0
VERTEX
8
1
10
936.772500
20
631.655000
0
VERTEX
8
1
10
951.790000
20
625.460000
0
VERTEX
8
1
10
966.120000
20
618.867500
0
VERTEX
8
1
10
980.190000
20
612.077500
0
VERTEX
8
1
10
1031.312500
20
587.682500
0
VERTEX
8
1
10
1082.280000
20
563.907500
0
VERTEX
8
1
10
1114.242500
20
549.162500
0
VERTEX
8
1
10
1114.797500
20
548.907500
0
SEQEND
8
1
0
TEXT
8
1
10
759.065000
20
742.782500
40
5.000000
50
0.000871
1
Piece Name: 去品牌训练营改版20230517.boke_口袋
7
STANDARD
0
TEXT
8
1
10
759.065000
20
737.782500
40
5.000000
50
0.000871
1
Category: 5
7
STANDARD
0
TEXT
8
1
10
759.065000
20
732.782500
40
5.000000
50
0.000871
1
Fabric: 面布
7
STANDARD
0
TEXT
8
1
10
759.065000
20
727.782500
40
5.000000
50
0.000871
1
Size: 150
7
STANDARD
0
POLYLINE
8
1
66
 1
70
1
0
VERTEX
8
1
10
1007.757500
20
728.995000
0
VERTEX
8
1
10
1007.202500
20
728.740000
0
VERTEX
8
1
10
975.240000
20
713.995000
0
VERTEX
8
1
10
924.272500
20
690.220000
0
VERTEX
8
1
10
873.150000
20
665.822500
0
VERTEX
8
1
10
859.080000
20
659.030000
0
VERTEX
8
1
10
844.752500
20
652.437500
0
VERTEX
8
1
10
829.735000
20
646.242500
0
VERTEX
8
1
10
818.150000
20
642.297500
0
VERTEX
8
1
10
806.397500
20
639.022500
0
VERTEX
8
1
10
800.197500
20
637.635000
0
VERTEX
8
1
10
793.922500
20
636.485000
0
VERTEX
8
1
10
781.710000
20
635.077500
0
VERTEX
8
1
10
775.222500
20
634.820000
0
VERTEX
8
1
10
768.765000
20
634.920000
0
VERTEX
8
1
10
762.340000
20
635.395000
0
VERTEX
8
1
10
755.752500
20
636.310000
0
VERTEX
8
1
10
750.262500
20
637.555000
0
VERTEX
8
1
10
744.962500
20
639.060000
0
VERTEX
8
1
10
739.767500
20
640.842500
0
VERTEX
8
1
10
734.730000
20
642.880000
0
VERTEX
8
1
10
732.092500
20
644.077500
0
VERTEX
8
1
10
729.590000
20
645.292500
0
VERTEX
8
1
10
724.785000
20
647.880000
0
VERTEX
8
1
10
720.087500
20
650.767500
0
VERTEX
8
1
10
715.525000
20
653.947500
0
VERTEX
8
1
10
711.147500
20
657.417500
0
VERTEX
8
1
10
707.032500
20
661.122500
0
VERTEX
8
1
10
703.140000
20
665.122500
0
VERTEX
8
1
10
699.280000
20
669.682500
0
VERTEX
8
1
10
695.567500
20
675.387500
0
VERTEX
8
1
10
692.442500
20
681.160000
0
VERTEX
8
1
10
689.817500
20
687.060000
0
VERTEX
8
1
10
687.632500
20
693.102500
0
VERTEX
8
1
10
686.682500
20
696.232500
0
VERTEX
8
1
10
685.802500
20
699.515000
0
VERTEX
8
1
10
684.462500
20
705.732500
0
VERTEX
8
1
10
683.502500
20
712.112500
0
VERTEX
8
1
10
682.927500
20
718.537500
0
VERTEX
8
1
10
682.727500
20
725.002500
0
VERTEX
8
1
10
682.897500
20
731.420000
0
VERTEX
8
1
10
683.427500
20
737.820000
0
VERTEX
8
1
10
684.345000
20
744.395000
0
VERTEX
8
1
10
686.572500
20
753.692500
0
VERTEX
8
1
10
689.485000
20
762.482500
0
VERTEX
8
1
10
691.320000
20
767.015000
0
VERTEX
8
1
10
693.302500
20
771.370000
0
VERTEX
8
1
10
697.677500
20
779.522500
0
VERTEX
8
1
10
702.822500
20
787.370000
0
VERTEX
8
1
10
708.692500
20
794.775000
0
VERTEX
8
1
10
716.492500
20
802.802500
0
VERTEX
8
1
10
723.550000
20
809.807500
0
VERTEX
8
1
10
729.377500
20
816.587500
0
VERTEX
8
1
10
731.627500
20
819.932500
0
VERTEX
8
1
10
733.822500
20
823.817500
0
VERTEX
8
1
10
735.835000
20
827.955000
0
VERTEX
8
1
10
737.800000
20
832.510000
0
VERTEX
8
1
10
741.660000
20
842.450000
0
VERTEX
8
1
10
743.330000
20
846.742500
0
VERTEX
8
1
10
753.775000
20
846.742500
0
VERTEX
8
1
10
810.270000
20
846.742500
0
VERTEX
8
1
10
813.767500
20
842.745000
0
VERTEX
8
1
10
817.267500
20
846.742500
0
VERTEX
8
1
10
877.767500
20
846.742500
0
VERTEX
8
1
10
950.257500
20
846.742500
0
VERTEX
8
1
10
953.755000
20
842.745000
0
VERTEX
8
1
10
957.255000
20
846.742500
0
VERTEX
8
1
10
1001.755000
20
846.742500
0
VERTEX
8
1
10
1007.755000
20
846.742500
0
VERTEX
8
1
10
1007.755000
20
837.745000
0
VERTEX
8
1
10
1007.755000
20
828.745000
0
VERTEX
8
1
10
1007.755000
20
789.147500
0
VERTEX
8
1
10
1007.757500
20
740.545000
0
VERTEX
8
1
10
1007.757500
20
728.995000
0
SEQEND
8
1
0
TEXT
8
1
10
76.340000
20
1027.015000
40
5.000000
50
0.000871
1
Piece Name: 去品牌训练营改版20230517.boke_口袋
7
STANDARD
0
TEXT
8
1
10
76.340000
20
1022.015000
40
5.000000
50
0.000871
1
Category: 5
7
STANDARD
0
TEXT
8
1
10
76.340000
20
1017.015000
40
5.000000
50
0.000871
1
Fabric: 面布
7
STANDARD
0
TEXT
8
1
10
76.340000
20
1012.015000
40
5.000000
50
0.000871
1
Size: 150
7
STANDARD
0
POLYLINE
8
1
66
 1
70
1
0
VERTEX
8
1
10
325.032500
20
1040.807500
0
VERTEX
8
1
10
325.032500
20
1029.257500
0
VERTEX
8
1
10
325.032500
20
980.655000
0
VERTEX
8
1
10
325.032500
20
941.057500
0
VERTEX
8
1
10
325.032500
20
932.057500
0
VERTEX
8
1
10
325.032500
20
923.057500
0
VERTEX
8
1
10
319.032500
20
923.057500
0
VERTEX
8
1
10
274.532500
20
923.057500
0
VERTEX
8
1
10
271.032500
20
927.055000
0
VERTEX
8
1
10
267.535000
20
923.057500
0
VERTEX
8
1
10
195.042500
20
923.057500
0
VERTEX
8
1
10
134.545000
20
923.055000
0
VERTEX
8
1
10
131.045000
20
927.052500
0
VERTEX
8
1
10
127.547500
20
923.055000
0
VERTEX
8
1
10
71.052500
20
923.055000
0
VERTEX
8
1
10
60.607500
20
923.055000
0
VERTEX
8
1
10
58.937500
20
927.347500
0
VERTEX
8
1
10
55.077500
20
937.287500
0
VERTEX
8
1
10
53.112500
20
941.842500
0
VERTEX
8
1
10
51.100000
20
945.980000
0
VERTEX
8
1
10
48.905000
20
949.865000
0
VERTEX
8
1
10
46.655000
20
953.210000
0
VERTEX
8
1
10
40.827500
20
959.990000
0
VERTEX
8
1
10
33.770000
20
966.995000
0
VERTEX
8
1
10
25.970000
20
975.022500
0
VERTEX
8
1
10
20.100000
20
982.427500
0
VERTEX
8
1
10
14.952500
20
990.275000
0
VERTEX
8
1
10
10.577500
20
998.427500
0
VERTEX
8
1
10
8.595000
20
1002.782500
0
VERTEX
8
1
10
6.760000
20
1007.315000
0
VERTEX
8
1
10
3.847500
20
1016.105000
0
VERTEX
8
1
10
1.620000
20
1025.402500
0
VERTEX
8
1
10
0.702500
20
1031.977500
0
VERTEX
8
1
10
0.172500
20
1038.377500
0
VERTEX
8
1
10
0.002500
20
1044.795000
0
VERTEX
8
1
10
0.202500
20
1051.260000
0
VERTEX
8
1
10
0.777500
20
1057.685000
0
VERTEX
8
1
10
1.737500
20
1064.065000
0
VERTEX
8
1
10
3.077500
20
1070.282500
0
VERTEX
8
1
10
3.955000
20
1073.565000
0
VERTEX
8
1
10
4.905000
20
1076.695000
0
VERTEX
8
1
10
7.090000
20
1082.737500
0
VERTEX
8
1
10
9.715000
20
1088.637500
0
VERTEX
8
1
10
12.840000
20
1094.410000
0
VERTEX
8
1
10
16.552500
20
1100.115000
0
VERTEX
8
1
10
20.412500
20
1104.675000
0
VERTEX
8
1
10
24.305000
20
1108.675000
0
VERTEX
8
1
10
28.420000
20
1112.380000
0
VERTEX
8
1
10
32.797500
20
1115.850000
0
VERTEX
8
1
10
37.360000
20
1119.030000
0
VERTEX
8
1
10
42.057500
20
1121.917500
0
VERTEX
8
1
10
46.862500
20
1124.505000
0
VERTEX
8
1
10
49.365000
20
1125.720000
0
VERTEX
8
1
10
52.002500
20
1126.917500
0
VERTEX
8
1
10
57.040000
20
1128.955000
0
VERTEX
8
1
10
62.235000
20
1130.737500
0
VERTEX
8
1
10
67.535000
20
1132.242500
0
VERTEX
8
1
10
73.025000
20
1133.487500
0
VERTEX
8
1
10
79.612500
20
1134.402500
0
VERTEX
8
1
10
86.037500
20
1134.877500
0
VERTEX
8
1
10
92.495000
20
1134.977500
0
VERTEX
8
1
10
98.982500
20
1134.720000
0
VERTEX
8
1
10
111.195000
20
1133.312500
0
VERTEX
8
1
10
117.470000
20
1132.162500
0
VERTEX
8
1
10
123.670000
20
1130.775000
0
VERTEX
8
1
10
135.422500
20
1127.500000
0
VERTEX
8
1
10
147.007500
20
1123.555000
0
VERTEX
8
1
10
162.025000
20
1117.360000
0
VERTEX
8
1
10
176.355000
20
1110.767500
0
VERTEX
8
1
10
190.425000
20
1103.977500
0
VERTEX
8
1
10
241.547500
20
1079.582500
0
VERTEX
8
1
10
292.515000
20
1055.807500
0
VERTEX
8
1
10
324.477500
20
1041.062500
0
VERTEX
8
1
10
325.032500
20
1040.807500
0
SEQEND
8
1
0
TEXT
8
1
10
249.120000
20
1204.202500
40
5.000000
50
0.000871
1
Piece Name: 去品牌训练营改版20230517.boke_口袋
7
STANDARD
0
TEXT
8
1
10
249.120000
20
1199.202500
40
5.000000
50
0.000871
1
Category: 5
7
STANDARD
0
TEXT
8
1
10
249.120000
20
1194.202500
40
5.000000
50
0.000871
1
Fabric: 面布
7
STANDARD
0
TEXT
8
1
10
249.120000
20
1189.202500
40
5.000000
50
0.000871
1
Size: 150
7
STANDARD
0
POLYLINE
8
1
66
 1
70
1
0
VERTEX
8
1
10
497.812500
20
1190.415000
0
VERTEX
8
1
10
497.257500
20
1190.160000
0
VERTEX
8
1
10
465.295000
20
1175.415000
0
VERTEX
8
1
10
414.327500
20
1151.640000
0
VERTEX
8
1
10
363.205000
20
1127.242500
0
VERTEX
8
1
10
349.135000
20
1120.450000
0
VERTEX
8
1
10
334.807500
20
1113.857500
0
VERTEX
8
1
10
319.790000
20
1107.662500
0
VERTEX
8
1
10
308.205000
20
1103.717500
0
VERTEX
8
1
10
296.452500
20
1100.442500
0
VERTEX
8
1
10
290.252500
20
1099.055000
0
VERTEX
8
1
10
283.977500
20
1097.905000
0
VERTEX
8
1
10
271.765000
20
1096.497500
0
VERTEX
8
1
10
265.277500
20
1096.240000
0
VERTEX
8
1
10
258.820000
20
1096.340000
0
VERTEX
8
1
10
252.395000
20
1096.815000
0
VERTEX
8
1
10
245.807500
20
1097.730000
0
VERTEX
8
1
10
240.317500
20
1098.975000
0
VERTEX
8
1
10
235.017500
20
1100.480000
0
VERTEX
8
1
10
229.822500
20
1102.262500
0
VERTEX
8
1
10
224.785000
20
1104.300000
0
VERTEX
8
1
10
222.147500
20
1105.497500
0
VERTEX
8
1
10
219.645000
20
1106.712500
0
VERTEX
8
1
10
214.840000
20
1109.300000
0
VERTEX
8
1
10
210.142500
20
1112.187500
0
VERTEX
8
1
10
205.580000
20
1115.367500
0
VERTEX
8
1
10
201.202500
20
1118.837500
0
VERTEX
8
1
10
197.087500
20
1122.542500
0
VERTEX
8
1
10
193.195000
20
1126.542500
0
VERTEX
8
1
10
189.335000
20
1131.102500
0
VERTEX
8
1
10
185.622500
20
1136.807500
0
VERTEX
8
1
10
182.497500
20
1142.580000
0
VERTEX
8
1
10
179.872500
20
1148.480000
0
VERTEX
8
1
10
177.687500
20
1154.522500
0
VERTEX
8
1
10
176.737500
20
1157.652500
0
VERTEX
8
1
10
175.857500
20
1160.935000
0
VERTEX
8
1
10
174.517500
20
1167.152500
0
VERTEX
8
1
10
173.557500
20
1173.532500
0
VERTEX
8
1
10
172.982500
20
1179.957500
0
VERTEX
8
1
10
172.782500
20
1186.422500
0
VERTEX
8
1
10
172.952500
20
1192.840000
0
VERTEX
8
1
10
173.482500
20
1199.240000
0
VERTEX
8
1
10
174.400000
20
1205.815000
0
VERTEX
8
1
10
176.627500
20
1215.112500
0
VERTEX
8
1
10
179.540000
20
1223.902500
0
VERTEX
8
1
10
181.375000
20
1228.435000
0
VERTEX
8
1
10
183.357500
20
1232.790000
0
VERTEX
8
1
10
187.732500
20
1240.942500
0
VERTEX
8
1
10
192.877500
20
1248.790000
0
VERTEX
8
1
10
198.747500
20
1256.195000
0
VERTEX
8
1
10
206.547500
20
1264.222500
0
VERTEX
8
1
10
213.605000
20
1271.227500
0
VERTEX
8
1
10
219.432500
20
1278.007500
0
VERTEX
8
1
10
221.682500
20
1281.352500
0
VERTEX
8
1
10
223.877500
20
1285.237500
0
VERTEX
8
1
10
225.890000
20
1289.375000
0
VERTEX
8
1
10
227.855000
20
1293.930000
0
VERTEX
8
1
10
231.715000
20
1303.870000
0
VERTEX
8
1
10
233.385000
20
1308.162500
0
VERTEX
8
1
10
243.830000
20
1308.162500
0
VERTEX
8
1
10
300.325000
20
1308.162500
0
VERTEX
8
1
10
303.822500
20
1304.165000
0
VERTEX
8
1
10
307.322500
20
1308.162500
0
VERTEX
8
1
10
367.822500
20
1308.162500
0
VERTEX
8
1
10
440.312500
20
1308.162500
0
VERTEX
8
1
10
443.810000
20
1304.165000
0
VERTEX
8
1
10
447.310000
20
1308.162500
0
VERTEX
8
1
10
491.810000
20
1308.162500
0
VERTEX
8
1
10
497.810000
20
1308.162500
0
VERTEX
8
1
10
497.810000
20
1299.165000
0
VERTEX
8
1
10
497.810000
20
1290.165000
0
VERTEX
8
1
10
497.810000
20
1250.567500
0
VERTEX
8
1
10
497.812500
20
1201.965000
0
VERTEX
8
1
10
497.812500
20
1190.415000
0
SEQEND
8
1
0
TEXT
8
1
10
627.942500
20
326.367500
40
5.000000
50
-0.000000
1
Piece Name: 去品牌训练营改版20230517.boke_后片
7
STANDARD
0
TEXT
8
1
10
627.942500
20
321.367500
40
5.000000
50
-0.000000
1
Category: 6
7
STANDARD
0
TEXT
8
1
10
627.942500
20
316.367500
40
5.000000
50
-0.000000
1
Fabric: 面布
7
STANDARD
0
TEXT
8
1
10
627.942500
20
311.367500
40
5.000000
50
-0.000000
1
Size: 150
7
STANDARD
0
POLYLINE
8
1
66
 1
70
1
0
VERTEX
8
1
10
752.457500
20
511.030000
0
VERTEX
8
1
10
755.155000
20
503.457500
0
VERTEX
8
1
10
759.920000
20
490.080000
0
VERTEX
8
1
10
764.975000
20
476.890000
0
VERTEX
8
1
10
770.537500
20
464.187500
0
VERTEX
8
1
10
774.162500
20
457.032500
0
VERTEX
8
1
10
778.140000
20
450.320000
0
VERTEX
8
1
10
782.640000
20
444.092500
0
VERTEX
8
1
10
786.047500
20
440.282500
0
VERTEX
8
1
10
789.865000
20
436.627500
0
VERTEX
8
1
10
793.992500
20
433.227500
0
VERTEX
8
1
10
798.177500
20
430.270000
0
VERTEX
8
1
10
807.602500
20
425.062500
0
VERTEX
8
1
10
813.397500
20
422.847500
0
VERTEX
8
1
10
819.695000
20
420.982500
0
VERTEX
8
1
10
826.232500
20
419.480000
0
VERTEX
8
1
10
832.980000
20
418.247500
0
VERTEX
8
1
10
847.110000
20
416.212500
0
VERTEX
8
1
10
941.217500
20
405.977500
0
VERTEX
8
1
10
978.607500
20
401.910000
0
VERTEX
8
1
10
1031.800000
20
396.120000
0
VERTEX
8
1
10
1034.845000
20
390.765000
0
VERTEX
8
1
10
1038.770000
20
395.512500
0
VERTEX
8
1
10
1092.157500
20
391.995000
0
VERTEX
8
1
10
1091.277500
20
381.817500
0
VERTEX
8
1
10
1081.027500
20
264.577500
0
VERTEX
8
1
10
1070.777500
20
147.335000
0
VERTEX
8
1
10
1069.550000
20
133.375000
0
VERTEX
8
1
10
1016.657500
20
142.692500
0
VERTEX
8
1
10
1013.642500
20
148.277500
0
VERTEX
8
1
10
1009.712500
20
143.300000
0
VERTEX
8
1
10
956.000000
20
143.300000
0
VERTEX
8
1
10
790.995000
20
143.300000
0
VERTEX
8
1
10
592.992500
20
143.300000
0
VERTEX
8
1
10
567.995000
20
143.300000
0
VERTEX
8
1
10
542.997500
20
143.300000
0
VERTEX
8
1
10
542.997500
20
152.297500
0
VERTEX
8
1
10
542.997500
20
308.287500
0
VERTEX
8
1
10
542.997500
20
464.277500
0
VERTEX
8
1
10
542.997500
20
477.530000
0
VERTEX
8
1
10
546.915000
20
476.865000
0
VERTEX
8
1
10
567.992500
20
473.395000
0
VERTEX
8
1
10
589.070000
20
476.865000
0
VERTEX
8
1
10
592.990000
20
477.530000
0
VERTEX
8
1
10
611.947500
20
480.765000
0
VERTEX
8
1
10
634.300000
20
484.845000
0
VERTEX
8
1
10
670.867500
20
492.307500
0
VERTEX
8
1
10
707.532500
20
500.517500
0
VERTEX
8
1
10
744.630000
20
509.200000
0
VERTEX
8
1
10
752.457500
20
511.030000
0
SEQEND
8
1
0
TEXT
8
1
10
84.945000
20
1476.452500
40
5.000000
50
-0.000000
1
Piece Name: 去品牌训练营改版20230517.boke_后片
7
STANDARD
0
TEXT
8
1
10
84.945000
20
1471.452500
40
5.000000
50
-0.000000
1
Category: 7
7
STANDARD
0
TEXT
8
1
10
84.945000
20
1466.452500
40
5.000000
50
-0.000000
1
Fabric: 面布
7
STANDARD
0
TEXT
8
1
10
84.945000
20
1461.452500
40
5.000000
50
-0.000000
1
Size: 150
7
STANDARD
0
POLYLINE
8
1
66
 1
70
1
0
VERTEX
8
1
10
209.462500
20
1291.790000
0
VERTEX
8
1
10
201.635000
20
1293.620000
0
VERTEX
8
1
10
164.540000
20
1302.297500
0
VERTEX
8
1
10
127.877500
20
1310.507500
0
VERTEX
8
1
10
91.307500
20
1317.970000
0
VERTEX
8
1
10
68.952500
20
1322.050000
0
VERTEX
8
1
10
49.995000
20
1325.280000
0
VERTEX
8
1
10
46.080000
20
1325.950000
0
VERTEX
8
1
10
24.997500
20
1329.422500
0
VERTEX
8
1
10
3.915000
20
1325.950000
0
VERTEX
8
1
10
0.000000
20
1325.280000
0
VERTEX
8
1
10
0.000000
20
1338.540000
0
VERTEX
8
1
10
0.000000
20
1494.530000
0
VERTEX
8
1
10
0.000000
20
1650.520000
0
VERTEX
8
1
10
0.000000
20
1659.520000
0
VERTEX
8
1
10
24.995000
20
1659.520000
0
VERTEX
8
1
10
49.992500
20
1659.520000
0
VERTEX
8
1
10
247.995000
20
1659.520000
0
VERTEX
8
1
10
413.000000
20
1659.520000
0
VERTEX
8
1
10
466.712500
20
1659.520000
0
VERTEX
8
1
10
470.642500
20
1654.542500
0
VERTEX
8
1
10
473.657500
20
1660.125000
0
VERTEX
8
1
10
526.552500
20
1669.440000
0
VERTEX
8
1
10
527.777500
20
1655.485000
0
VERTEX
8
1
10
538.030000
20
1538.245000
0
VERTEX
8
1
10
548.280000
20
1421.002500
0
VERTEX
8
1
10
549.065000
20
1412.035000
0
VERTEX
8
1
10
495.770000
20
1407.375000
0
VERTEX
8
1
10
491.850000
20
1412.050000
0
VERTEX
8
1
10
488.805000
20
1406.695000
0
VERTEX
8
1
10
398.220000
20
1396.842500
0
VERTEX
8
1
10
304.117500
20
1386.607500
0
VERTEX
8
1
10
289.987500
20
1384.572500
0
VERTEX
8
1
10
283.240000
20
1383.340000
0
VERTEX
8
1
10
276.705000
20
1381.837500
0
VERTEX
8
1
10
270.402500
20
1379.970000
0
VERTEX
8
1
10
264.610000
20
1377.757500
0
VERTEX
8
1
10
255.185000
20
1372.550000
0
VERTEX
8
1
10
251.000000
20
1369.592500
0
VERTEX
8
1
10
246.870000
20
1366.192500
0
VERTEX
8
1
10
243.055000
20
1362.537500
0
VERTEX
8
1
10
239.645000
20
1358.725000
0
VERTEX
8
1
10
235.145000
20
1352.500000
0
VERTEX
8
1
10
231.170000
20
1345.787500
0
VERTEX
8
1
10
227.545000
20
1338.630000
0
VERTEX
8
1
10
221.982500
20
1325.930000
0
VERTEX
8
1
10
216.927500
20
1312.737500
0
VERTEX
8
1
10
212.160000
20
1299.362500
0
VERTEX
8
1
10
209.462500
20
1291.790000
0
SEQEND
8
1
0
ENDSEC
0
EOF
