  0
SECTION
  2
HEADER
  9
$ACADVER
  1
AC1009
  9
$INSBASE
 10
0.0
 20
0.0
 30
0.0
  9
$EXTMIN
 10
4.845262
 20
3.02933
 30
0.0
  9
$EXTMAX
 10
8.847323
 20
6.850559
 30
0.0
  9
$LIMMIN
 10
0.0
 20
0.0
  9
$LIMMAX
 10
12.0
 20
9.0
  9
$ORTHOMODE
 70
     0
  9
$REGENMODE
 70
     1
  9
$FILLMODE
 70
     1
  9
$QTEXTMODE
 70
     0
  9
$MIRRTEXT
 70
     1
  9
$DRAGMODE
 70
     2
  9
$LTSCALE
 40
1.0
  9
$OSMODE
 70
     0
  9
$ATTMODE
 70
     1
  9
$TEXTSIZE
 40
0.2
  9
$TRACEWID
 40
0.05
  9
$TEXTSTYLE
  7
STANDARD
  9
$CLAYER
  8
0
  9
$CELTYPE
  6
BYLAYER
  9
$CECOLOR
 62
   256
  9
$DIMSCALE
 40
1.0
  9
$DIMASZ
 40
0.18
  9
$DIMEXO
 40
0.0625
  9
$DIMDLI
 40
0.38
  9
$DIMRND
 40
0.0
  9
$DIMDLE
 40
0.0
  9
$DIMEXE
 40
0.18
  9
$DIMTP
 40
0.0
  9
$DIMTM
 40
0.0
  9
$DIMTXT
 40
0.18
  9
$DIMCEN
 40
0.09
  9
$DIMTSZ
 40
0.0
  9
$DIMTOL
 70
     0
  9
$DIMLIM
 70
     0
  9
$DIMTIH
 70
     1
  9
$DIMTOH
 70
     1
  9
$DIMSE1
 70
     0
  9
$DIMSE2
 70
     0
  9
$DIMTAD
 70
     0
  9
$DIMZIN
 70
     0
  9
$DIMBLK
  1

  9
$DIMASO
 70
     1
  9
$DIMSHO
 70
     1
  9
$DIMPOST
  1

  9
$DIMAPOST
  1

  9
$DIMALT
 70
     0
  9
$DIMALTD
 70
     2
  9
$DIMALTF
 40
25.4
  9
$DIMLFAC
 40
1.0
  9
$DIMTOFL
 70
     0
  9
$DIMTVP
 40
0.0
  9
$DIMTIX
 70
     0
  9
$DIMSOXD
 70
     0
  9
$DIMSAH
 70
     0
  9
$DIMBLK1
  1

  9
$DIMBLK2
  1

  9
$DIMSTYLE
  2
*UNNAMED
  9
$DIMCLRD
 70
     0
  9
$DIMCLRE
 70
     0
  9
$DIMCLRT
 70
     0
  9
$DIMTFAC
 40
1.0
  9
$DIMGAP
 40
0.09
  9
$LUNITS
 70
     2
  9
$LUPREC
 70
     4
  9
$SKETCHINC
 40
0.1
  9
$FILLETRAD
 40
0.0
  9
$AUNITS
 70
     0
  9
$AUPREC
 70
     0
  9
$MENU
  1
aDXF
  9
$ELEVATION
 40
0.0
  9
$PELEVATION
 40
0.0
  9
$THICKNESS
 40
0.0
  9
$LIMCHECK
 70
     0
  9
$BLIPMODE
 70
     1
  9
$CHAMFERA
 40
0.0
  9
$CHAMFERB
 40
0.0
  9
$SKPOLY
 70
     0
  9
$TDCREATE
 40
2450406.327857407
  9
$TDUPDATE
 40
2450406.327857407
  9
$TDINDWG
 40
0.0000000000
  9
$TDUSRTIMER
 40
0.0000000000
  9
$USRTIMER
 70
     1
  9
$ANGBASE
 50
0.0
  9
$ANGDIR
 70
     0
  9
$PDMODE
 70
     0
  9
$PDSIZE
 40
0.0
  9
$PLINEWID
 40
0.0
  9
$COORDS
 70
     1
  9
$SPLFRAME
 70
     0
  9
$SPLINETYPE
 70
     6
  9
$SPLINESEGS
 70
     8
  9
$ATTDIA
 70
     0
  9
$ATTREQ
 70
     1
  9
$HANDLING
 70
     0
  9
$HANDSEED
  5
0
  9
$SURFTAB1
 70
     6
  9
$SURFTAB2
 70
     6
  9
$SURFTYPE
 70
     6
  9
$SURFU
 70
     6
  9
$SURFV
 70
     6
  9
$UCSNAME
  2

  9
$UCSORG
 10
0.0
 20
0.0
 30
0.0
  9
$UCSXDIR
 10
1.0
 20
0.0
 30
0.0
  9
$UCSYDIR
 10
0.0
 20
1.0
 30
0.0
  9
$PUCSNAME
  2

  9
$PUCSORG
 10
0.0
 20
0.0
 30
0.0
  9
$PUCSXDIR
 10
1.0
 20
0.0
 30
0.0
  9
$PUCSYDIR
 10
0.0
 20
1.0
 30
0.0
  9
$USERI1
 70
     0
  9
$USERI2
 70
     0
  9
$USERI3
 70
     0
  9
$USERI4
 70
     0
  9
$USERI5
 70
     0
  9
$USERR1
 40
0.0
  9
$USERR2
 40
0.0
  9
$USERR3
 40
0.0
  9
$USERR4
 40
0.0
  9
$USERR5
 40
0.0
  9
$WORLDVIEW
 70
     1
  9
$SHADEDGE
 70
     3
  9
$SHADEDIF
 70
    70
  9
$TILEMODE
 70
     1
  9
$MAXACTVP
 70
    16
  9
$PINSBASE
 10
0.0
 20
0.0
 30
0.0
  9
$PLIMCHECK
 70
     0
  9
$PEXTMIN
 10
1.000000E+20
 20
1.000000E+20
 30
1.000000E+20
  9
$PEXTMAX
 10
-1.000000E+20
 20
-1.000000E+20
 30
-1.000000E+20
  9
$PLIMMIN
 10
0.0
 20
0.0
  9
$PLIMMAX
 10
12.0
 20
9.0
  9
$UNITMODE
 70
     0
  9
$VISRETAIN
 70
     0
  9
$PLINEGEN
 70
     0
  9
$PSLTSCALE
 70
     1
  9
$TREEDEPTH
 70
  3020
  9
$DWGCODEPAGE
  3
iso8859-1
  0
ENDSEC
  0
SECTION
  2
TABLES
  0
TABLE
  2
VPORT
 70
     2
  0
VPORT
  2
*ACTIVE
 70
     0
 10
0.0
 20
0.0
 11
1.0
 21
1.0
 12
7.953782
 22
4.5
 13
0.0
 23
0.0
 14
1.0
 24
1.0
 15
0.0
 25
0.0
 16
0.0
 26
0.0
 36
1.0
 17
0.0
 27
0.0
 37
0.0
 40
9.0
 41
1.767507
 42
50.0
 43
0.0
 44
0.0
 50
0.0
 51
0.0
 71
     0
 72
   100
 73
     1
 74
     1
 75
     0
 76
     0
 77
     0
 78
     0
  0
ENDTAB
  0
TABLE
  2
LTYPE
 70
     1
  0
LTYPE
  2
CONTINUOUS
 70
    64
  3
Solid line
 72
    65
 73
     0
 40
0.0
  0
ENDTAB
  0
TABLE
  2
LAYER
 70
     1
  0
LAYER
  2
0
 70
     0
 62
     7
  6
CONTINUOUS
  0
ENDTAB
  0
TABLE
  2
STYLE
 70
     1
  0
STYLE
  2
STANDARD
 70
     0
 40
0.0
 41
1.0
 50
0.0
 71
     0
 42
0.2
  3
txt
  4

  0
ENDTAB
  0
TABLE
  2
VIEW
 70
     0
  0
ENDTAB
  0
TABLE
  2
UCS
 70
     0
  0
ENDTAB
  0
TABLE
  2
APPID
 70
     1
  0
APPID
  2
ADXF
 70
    64
  0
ENDTAB
  0
TABLE
  2
DIMSTYLE
 70
     0
  0
ENDTAB
  0
ENDSEC
  0
SECTION
  2
BLOCKS
  0
ENDSEC
0
SECTION
2
ENTITIES
0
TEXT
8
1
10
464.500000
20
1480.157500
40
5.000000
50
-180.000000
1
Piece Name: 新NBA职业球员版.boke_前片
7
STANDARD
0
TEXT
8
1
10
464.500000
20
1475.157500
40
5.000000
50
-180.000000
1
Category: 2
7
STANDARD
0
TEXT
8
1
10
464.500000
20
1470.157500
40
5.000000
50
-180.000000
1
Fabric: 面布
7
STANDARD
0
TEXT
8
1
10
464.500000
20
1465.157500
40
5.000000
50
-180.000000
1
Size: 5XL
7
STANDARD
0
POLYLINE
8
1
66
 1
70
1
0
VERTEX
8
1
10
606.997500
20
1632.985000
0
VERTEX
8
1
10
606.997500
20
1615.762500
0
VERTEX
8
1
10
606.997500
20
1482.260000
0
VERTEX
8
1
10
606.997500
20
1348.760000
0
VERTEX
8
1
10
606.997500
20
1336.430000
0
VERTEX
8
1
10
582.000000
20
1340.650000
0
VERTEX
8
1
10
557.002500
20
1336.430000
0
VERTEX
8
1
10
544.320000
20
1334.285000
0
VERTEX
8
1
10
505.177500
20
1327.580000
0
VERTEX
8
1
10
465.555000
20
1320.610000
0
VERTEX
8
1
10
431.822500
20
1314.475000
0
VERTEX
8
1
10
397.742500
20
1308.135000
0
VERTEX
8
1
10
363.472500
20
1301.690000
0
VERTEX
8
1
10
357.145000
20
1300.502500
0
VERTEX
8
1
10
354.632500
20
1306.430000
0
VERTEX
8
1
10
352.367500
20
1311.775000
0
VERTEX
8
1
10
350.027500
20
1316.925000
0
VERTEX
8
1
10
347.585000
20
1321.645000
0
VERTEX
8
1
10
346.362500
20
1323.715000
0
VERTEX
8
1
10
345.115000
20
1325.610000
0
VERTEX
8
1
10
342.252500
20
1329.225000
0
VERTEX
8
1
10
339.110000
20
1332.187500
0
VERTEX
8
1
10
336.897500
20
1333.762500
0
VERTEX
8
1
10
334.287500
20
1335.257500
0
VERTEX
8
1
10
331.417500
20
1336.600000
0
VERTEX
8
1
10
328.350000
20
1337.787500
0
VERTEX
8
1
10
321.575000
20
1339.837500
0
VERTEX
8
1
10
314.195000
20
1341.447500
0
VERTEX
8
1
10
306.620000
20
1342.687500
0
VERTEX
8
1
10
298.815000
20
1343.697500
0
VERTEX
8
1
10
281.632500
20
1345.465000
0
VERTEX
8
1
10
264.067500
20
1346.817500
0
VERTEX
8
1
10
246.642500
20
1347.765000
0
VERTEX
8
1
10
228.382500
20
1348.350000
0
VERTEX
8
1
10
210.400000
20
1348.705000
0
VERTEX
8
1
10
191.550000
20
1348.977500
0
VERTEX
8
1
10
133.760000
20
1350.000000
0
VERTEX
8
1
10
74.917500
20
1351.320000
0
VERTEX
8
1
10
16.802500
20
1352.760000
0
VERTEX
8
1
10
0.000000
20
1353.177500
0
VERTEX
8
1
10
0.000000
20
1360.757500
0
VERTEX
8
1
10
0.000000
20
1505.757500
0
VERTEX
8
1
10
0.000000
20
1650.760000
0
VERTEX
8
1
10
0.000000
20
1658.757500
0
VERTEX
8
1
10
17.000000
20
1658.757500
0
VERTEX
8
1
10
34.000000
20
1658.757500
0
VERTEX
8
1
10
79.497500
20
1658.757500
0
VERTEX
8
1
10
81.997500
20
1663.757500
0
VERTEX
8
1
10
84.495000
20
1658.757500
0
VERTEX
8
1
10
227.495000
20
1658.757500
0
VERTEX
8
1
10
229.995000
20
1663.757500
0
VERTEX
8
1
10
232.492500
20
1658.757500
0
VERTEX
8
1
10
249.500000
20
1658.757500
0
VERTEX
8
1
10
468.905000
20
1658.757500
0
VERTEX
8
1
10
470.482500
20
1663.262500
0
VERTEX
8
1
10
484.640000
20
1658.307500
0
VERTEX
8
1
10
534.640000
20
1640.807500
0
VERTEX
8
1
10
535.090000
20
1640.647500
0
VERTEX
8
1
10
535.797500
20
1635.105000
0
VERTEX
8
1
10
539.807500
20
1638.997500
0
VERTEX
8
1
10
557.002500
20
1632.985000
0
VERTEX
8
1
10
582.000000
20
1624.235000
0
VERTEX
8
1
10
606.997500
20
1632.985000
0
SEQEND
8
1
0
TEXT
8
1
10
1469.422500
20
856.882500
40
5.000000
50
-180.000000
1
Piece Name: 新NBA职业球员版.boke_前片
7
STANDARD
0
TEXT
8
1
10
1469.422500
20
851.882500
40
5.000000
50
-180.000000
1
Category: 2
7
STANDARD
0
TEXT
8
1
10
1469.422500
20
846.882500
40
5.000000
50
-180.000000
1
Fabric: 面布
7
STANDARD
0
TEXT
8
1
10
1469.422500
20
841.882500
40
5.000000
50
-180.000000
1
Size: 5XL
7
STANDARD
0
POLYLINE
8
1
66
 1
70
1
0
VERTEX
8
1
10
1611.920000
20
704.055000
0
VERTEX
8
1
10
1586.922500
20
712.805000
0
VERTEX
8
1
10
1561.925000
20
704.055000
0
VERTEX
8
1
10
1544.730000
20
698.037500
0
VERTEX
8
1
10
1540.720000
20
701.932500
0
VERTEX
8
1
10
1540.012500
20
696.390000
0
VERTEX
8
1
10
1539.562500
20
696.232500
0
VERTEX
8
1
10
1489.562500
20
678.732500
0
VERTEX
8
1
10
1475.405000
20
673.777500
0
VERTEX
8
1
10
1473.827500
20
678.282500
0
VERTEX
8
1
10
1254.422500
20
678.282500
0
VERTEX
8
1
10
1237.415000
20
678.282500
0
VERTEX
8
1
10
1234.917500
20
673.282500
0
VERTEX
8
1
10
1232.417500
20
678.282500
0
VERTEX
8
1
10
1089.417500
20
678.282500
0
VERTEX
8
1
10
1086.920000
20
673.282500
0
VERTEX
8
1
10
1084.420000
20
678.282500
0
VERTEX
8
1
10
1038.922500
20
678.282500
0
VERTEX
8
1
10
1021.922500
20
678.282500
0
VERTEX
8
1
10
1004.922500
20
678.282500
0
VERTEX
8
1
10
1004.922500
20
686.280000
0
VERTEX
8
1
10
1004.922500
20
831.282500
0
VERTEX
8
1
10
1004.922500
20
976.282500
0
VERTEX
8
1
10
1004.922500
20
983.862500
0
VERTEX
8
1
10
1021.725000
20
984.280000
0
VERTEX
8
1
10
1079.840000
20
985.720000
0
VERTEX
8
1
10
1138.682500
20
987.040000
0
VERTEX
8
1
10
1196.472500
20
988.062500
0
VERTEX
8
1
10
1215.322500
20
988.335000
0
VERTEX
8
1
10
1233.305000
20
988.690000
0
VERTEX
8
1
10
1251.565000
20
989.275000
0
VERTEX
8
1
10
1268.990000
20
990.222500
0
VERTEX
8
1
10
1286.555000
20
991.575000
0
VERTEX
8
1
10
1303.737500
20
993.342500
0
VERTEX
8
1
10
1311.542500
20
994.352500
0
VERTEX
8
1
10
1319.117500
20
995.592500
0
VERTEX
8
1
10
1326.497500
20
997.202500
0
VERTEX
8
1
10
1333.272500
20
999.252500
0
VERTEX
8
1
10
1336.340000
20
1000.440000
0
VERTEX
8
1
10
1339.210000
20
1001.782500
0
VERTEX
8
1
10
1341.820000
20
1003.277500
0
VERTEX
8
1
10
1344.032500
20
1004.852500
0
VERTEX
8
1
10
1347.175000
20
1007.815000
0
VERTEX
8
1
10
1350.037500
20
1011.430000
0
VERTEX
8
1
10
1351.285000
20
1013.325000
0
VERTEX
8
1
10
1352.507500
20
1015.395000
0
VERTEX
8
1
10
1354.950000
20
1020.115000
0
VERTEX
8
1
10
1357.290000
20
1025.265000
0
VERTEX
8
1
10
1359.555000
20
1030.610000
0
VERTEX
8
1
10
1362.067500
20
1036.537500
0
VERTEX
8
1
10
1368.395000
20
1035.350000
0
VERTEX
8
1
10
1402.665000
20
1028.905000
0
VERTEX
8
1
10
1436.745000
20
1022.565000
0
VERTEX
8
1
10
1470.477500
20
1016.430000
0
VERTEX
8
1
10
1510.100000
20
1009.460000
0
VERTEX
8
1
10
1549.242500
20
1002.755000
0
VERTEX
8
1
10
1561.925000
20
1000.610000
0
VERTEX
8
1
10
1586.922500
20
996.390000
0
VERTEX
8
1
10
1611.920000
20
1000.610000
0
VERTEX
8
1
10
1611.920000
20
988.280000
0
VERTEX
8
1
10
1611.920000
20
854.780000
0
VERTEX
8
1
10
1611.920000
20
721.277500
0
VERTEX
8
1
10
1611.920000
20
704.055000
0
SEQEND
8
1
0
TEXT
8
1
10
255.827500
20
1220.662500
40
5.000000
50
-180.000000
1
Piece Name: 新NBA职业球员版.boke_左手背
7
STANDARD
0
TEXT
8
1
10
255.827500
20
1215.662500
40
5.000000
50
-180.000000
1
Category: 4
7
STANDARD
0
TEXT
8
1
10
255.827500
20
1210.662500
40
5.000000
50
-180.000000
1
Fabric: 面布
7
STANDARD
0
TEXT
8
1
10
255.827500
20
1205.662500
40
5.000000
50
-180.000000
1
Size: 5XL
7
STANDARD
0
POLYLINE
8
1
66
 1
70
1
0
VERTEX
8
1
10
0.000000
20
1210.452500
0
VERTEX
8
1
10
0.000000
20
1265.550000
0
VERTEX
8
1
10
0.000000
20
1322.735000
0
VERTEX
8
1
10
0.000000
20
1331.732500
0
VERTEX
8
1
10
25.000000
20
1331.732500
0
VERTEX
8
1
10
36.502500
20
1331.732500
0
VERTEX
8
1
10
40.000000
20
1327.735000
0
VERTEX
8
1
10
43.500000
20
1331.732500
0
VERTEX
8
1
10
50.000000
20
1331.732500
0
VERTEX
8
1
10
137.497500
20
1331.732500
0
VERTEX
8
1
10
186.500000
20
1331.732500
0
VERTEX
8
1
10
189.997500
20
1327.735000
0
VERTEX
8
1
10
193.497500
20
1331.732500
0
VERTEX
8
1
10
249.995000
20
1331.732500
0
VERTEX
8
1
10
256.175000
20
1331.732500
0
VERTEX
8
1
10
258.487500
20
1328.010000
0
VERTEX
8
1
10
260.372500
20
1324.972500
0
VERTEX
8
1
10
262.197500
20
1322.175000
0
VERTEX
8
1
10
263.990000
20
1319.665000
0
VERTEX
8
1
10
266.360000
20
1316.772500
0
VERTEX
8
1
10
268.987500
20
1313.985000
0
VERTEX
8
1
10
271.635000
20
1311.510000
0
VERTEX
8
1
10
280.300000
20
1304.817500
0
VERTEX
8
1
10
289.937500
20
1298.052500
0
VERTEX
8
1
10
299.772500
20
1290.290000
0
VERTEX
8
1
10
304.460000
20
1285.482500
0
VERTEX
8
1
10
308.572500
20
1280.592500
0
VERTEX
8
1
10
312.347500
20
1275.432500
0
VERTEX
8
1
10
315.837500
20
1269.975000
0
VERTEX
8
1
10
321.630000
20
1258.922500
0
VERTEX
8
1
10
324.345000
20
1252.287500
0
VERTEX
8
1
10
326.607500
20
1245.720000
0
VERTEX
8
1
10
328.520000
20
1238.970000
0
VERTEX
8
1
10
330.042500
20
1232.195000
0
VERTEX
8
1
10
331.200000
20
1225.277500
0
VERTEX
8
1
10
331.965000
20
1218.365000
0
VERTEX
8
1
10
332.345000
20
1211.420000
0
VERTEX
8
1
10
332.390000
20
1207.862500
0
VERTEX
8
1
10
332.340000
20
1204.352500
0
VERTEX
8
1
10
331.937500
20
1197.347500
0
VERTEX
8
1
10
331.140000
20
1190.370000
0
VERTEX
8
1
10
329.937500
20
1183.447500
0
VERTEX
8
1
10
328.250000
20
1176.255000
0
VERTEX
8
1
10
324.542500
20
1165.947500
0
VERTEX
8
1
10
319.982500
20
1156.212500
0
VERTEX
8
1
10
317.277500
20
1151.382500
0
VERTEX
8
1
10
314.352500
20
1146.727500
0
VERTEX
8
1
10
311.270000
20
1142.362500
0
VERTEX
8
1
10
309.597500
20
1140.190000
0
VERTEX
8
1
10
307.797500
20
1137.982500
0
VERTEX
8
1
10
304.230000
20
1133.992500
0
VERTEX
8
1
10
300.370000
20
1130.170000
0
VERTEX
8
1
10
296.272500
20
1126.615000
0
VERTEX
8
1
10
291.730000
20
1123.197500
0
VERTEX
8
1
10
285.612500
20
1119.590000
0
VERTEX
8
1
10
279.277500
20
1116.570000
0
VERTEX
8
1
10
272.782500
20
1114.105000
0
VERTEX
8
1
10
266.077500
20
1112.125000
0
VERTEX
8
1
10
259.230000
20
1110.607500
0
VERTEX
8
1
10
252.362500
20
1109.542500
0
VERTEX
8
1
10
245.482500
20
1108.882500
0
VERTEX
8
1
10
241.912500
20
1108.692500
0
VERTEX
8
1
10
238.300000
20
1108.590000
0
VERTEX
8
1
10
231.457500
20
1108.657500
0
VERTEX
8
1
10
224.467500
20
1109.057500
0
VERTEX
8
1
10
217.585000
20
1109.762500
0
VERTEX
8
1
10
210.602500
20
1110.782500
0
VERTEX
8
1
10
197.677500
20
1113.787500
0
VERTEX
8
1
10
185.217500
20
1117.642500
0
VERTEX
8
1
10
173.207500
20
1122.147500
0
VERTEX
8
1
10
161.560000
20
1127.137500
0
VERTEX
8
1
10
139.080000
20
1137.877500
0
VERTEX
8
1
10
82.397500
20
1166.702500
0
VERTEX
8
1
10
25.967500
20
1196.490000
0
VERTEX
8
1
10
20.262500
20
1199.557500
0
VERTEX
8
1
10
0.000000
20
1210.452500
0
SEQEND
8
1
0
TEXT
8
1
10
1492.717500
20
1384.610000
40
5.000000
50
-180.000000
1
Piece Name: 新NBA职业球员版.boke_后片
7
STANDARD
0
TEXT
8
1
10
1492.717500
20
1379.610000
40
5.000000
50
-180.000000
1
Category: 6
7
STANDARD
0
TEXT
8
1
10
1492.717500
20
1374.610000
40
5.000000
50
-180.000000
1
Fabric: 面布
7
STANDARD
0
TEXT
8
1
10
1492.717500
20
1369.610000
40
5.000000
50
-180.000000
1
Size: 5XL
7
STANDARD
0
POLYLINE
8
1
66
 1
70
1
0
VERTEX
8
1
10
1426.117500
20
1108.390000
0
VERTEX
8
1
10
1423.100000
20
1117.812500
0
VERTEX
8
1
10
1418.352500
20
1132.632500
0
VERTEX
8
1
10
1413.410000
20
1147.710000
0
VERTEX
8
1
10
1408.367500
20
1162.435000
0
VERTEX
8
1
10
1403.347500
20
1175.955000
0
VERTEX
8
1
10
1400.665000
20
1182.350000
0
VERTEX
8
1
10
1397.727500
20
1188.577500
0
VERTEX
8
1
10
1394.532500
20
1194.490000
0
VERTEX
8
1
10
1391.035000
20
1200.042500
0
VERTEX
8
1
10
1387.795000
20
1204.307500
0
VERTEX
8
1
10
1384.215000
20
1208.425000
0
VERTEX
8
1
10
1380.382500
20
1212.265000
0
VERTEX
8
1
10
1376.460000
20
1215.665000
0
VERTEX
8
1
10
1367.495000
20
1221.745000
0
VERTEX
8
1
10
1362.645000
20
1224.077500
0
VERTEX
8
1
10
1357.185000
20
1226.225000
0
VERTEX
8
1
10
1351.497500
20
1228.112500
0
VERTEX
8
1
10
1345.230000
20
1229.907500
0
VERTEX
8
1
10
1338.730000
20
1231.550000
0
VERTEX
8
1
10
1332.267500
20
1233.000000
0
VERTEX
8
1
10
1318.292500
20
1235.642500
0
VERTEX
8
1
10
1303.865000
20
1237.927500
0
VERTEX
8
1
10
1289.805000
20
1239.947500
0
VERTEX
8
1
10
1159.752500
20
1252.677500
0
VERTEX
8
1
10
1029.502500
20
1265.430000
0
VERTEX
8
1
10
1012.422500
20
1267.102500
0
VERTEX
8
1
10
1013.587500
20
1277.310000
0
VERTEX
8
1
10
1033.840000
20
1454.552500
0
VERTEX
8
1
10
1049.125000
20
1588.325000
0
VERTEX
8
1
10
1053.495000
20
1591.350000
0
VERTEX
8
1
10
1049.920000
20
1595.277500
0
VERTEX
8
1
10
1054.090000
20
1631.802500
0
VERTEX
8
1
10
1055.010000
20
1639.872500
0
VERTEX
8
1
10
1070.980000
20
1639.870000
0
VERTEX
8
1
10
1303.480000
20
1639.870000
0
VERTEX
8
1
10
1534.282500
20
1639.867500
0
VERTEX
8
1
10
1559.082500
20
1648.545000
0
VERTEX
8
1
10
1574.507500
20
1653.942500
0
VERTEX
8
1
10
1578.155000
20
1663.252500
0
VERTEX
8
1
10
1592.435000
20
1657.660000
0
VERTEX
8
1
10
1610.440000
20
1650.607500
0
VERTEX
8
1
10
1616.030000
20
1648.415000
0
VERTEX
8
1
10
1635.700000
20
1640.712500
0
VERTEX
8
1
10
1654.945000
20
1649.420000
0
VERTEX
8
1
10
1660.415000
20
1651.895000
0
VERTEX
8
1
10
1660.970000
20
1630.510000
0
VERTEX
8
1
10
1666.770000
20
1406.512500
0
VERTEX
8
1
10
1672.567500
20
1182.522500
0
VERTEX
8
1
10
1672.982500
20
1166.357500
0
VERTEX
8
1
10
1647.840000
20
1171.607500
0
VERTEX
8
1
10
1623.002500
20
1165.062500
0
VERTEX
8
1
10
1607.062500
20
1160.860000
0
VERTEX
8
1
10
1564.585000
20
1149.410000
0
VERTEX
8
1
10
1521.757500
20
1137.360000
0
VERTEX
8
1
10
1490.027500
20
1127.987500
0
VERTEX
8
1
10
1457.660000
20
1118.132500
0
VERTEX
8
1
10
1435.567500
20
1111.307500
0
VERTEX
8
1
10
1426.117500
20
1108.390000
0
SEQEND
8
1
0
TEXT
8
1
10
819.940000
20
1166.007500
40
5.000000
50
-180.000000
1
Piece Name: 新NBA职业球员版.boke_后片
7
STANDARD
0
TEXT
8
1
10
819.940000
20
1161.007500
40
5.000000
50
-180.000000
1
Category: 6
7
STANDARD
0
TEXT
8
1
10
819.940000
20
1156.007500
40
5.000000
50
-180.000000
1
Fabric: 面布
7
STANDARD
0
TEXT
8
1
10
819.940000
20
1151.007500
40
5.000000
50
-180.000000
1
Size: 5XL
7
STANDARD
0
POLYLINE
8
1
66
 1
70
1
0
VERTEX
8
1
10
753.340000
20
1442.227500
0
VERTEX
8
1
10
762.790000
20
1439.310000
0
VERTEX
8
1
10
784.882500
20
1432.485000
0
VERTEX
8
1
10
817.250000
20
1422.630000
0
VERTEX
8
1
10
848.980000
20
1413.257500
0
VERTEX
8
1
10
891.807500
20
1401.207500
0
VERTEX
8
1
10
934.285000
20
1389.757500
0
VERTEX
8
1
10
950.225000
20
1385.555000
0
VERTEX
8
1
10
975.062500
20
1379.010000
0
VERTEX
8
1
10
1000.205000
20
1384.260000
0
VERTEX
8
1
10
999.790000
20
1368.095000
0
VERTEX
8
1
10
993.992500
20
1144.105000
0
VERTEX
8
1
10
988.192500
20
920.107500
0
VERTEX
8
1
10
987.637500
20
898.722500
0
VERTEX
8
1
10
982.167500
20
901.197500
0
VERTEX
8
1
10
962.922500
20
909.905000
0
VERTEX
8
1
10
943.252500
20
902.202500
0
VERTEX
8
1
10
937.662500
20
900.010000
0
VERTEX
8
1
10
919.657500
20
892.957500
0
VERTEX
8
1
10
905.377500
20
887.365000
0
VERTEX
8
1
10
901.730000
20
896.675000
0
VERTEX
8
1
10
886.305000
20
902.072500
0
VERTEX
8
1
10
861.505000
20
910.750000
0
VERTEX
8
1
10
630.702500
20
910.747500
0
VERTEX
8
1
10
398.202500
20
910.747500
0
VERTEX
8
1
10
382.232500
20
910.745000
0
VERTEX
8
1
10
381.312500
20
918.815000
0
VERTEX
8
1
10
377.140000
20
955.335000
0
VERTEX
8
1
10
380.717500
20
959.265000
0
VERTEX
8
1
10
376.347500
20
962.287500
0
VERTEX
8
1
10
361.062500
20
1096.065000
0
VERTEX
8
1
10
340.810000
20
1273.307500
0
VERTEX
8
1
10
339.645000
20
1283.515000
0
VERTEX
8
1
10
356.725000
20
1285.187500
0
VERTEX
8
1
10
486.975000
20
1297.940000
0
VERTEX
8
1
10
617.027500
20
1310.670000
0
VERTEX
8
1
10
631.087500
20
1312.690000
0
VERTEX
8
1
10
645.515000
20
1314.975000
0
VERTEX
8
1
10
659.490000
20
1317.617500
0
VERTEX
8
1
10
665.952500
20
1319.067500
0
VERTEX
8
1
10
672.452500
20
1320.710000
0
VERTEX
8
1
10
678.720000
20
1322.505000
0
VERTEX
8
1
10
684.407500
20
1324.392500
0
VERTEX
8
1
10
689.867500
20
1326.540000
0
VERTEX
8
1
10
694.717500
20
1328.872500
0
VERTEX
8
1
10
703.682500
20
1334.952500
0
VERTEX
8
1
10
707.605000
20
1338.352500
0
VERTEX
8
1
10
711.437500
20
1342.192500
0
VERTEX
8
1
10
715.017500
20
1346.310000
0
VERTEX
8
1
10
718.257500
20
1350.575000
0
VERTEX
8
1
10
721.755000
20
1356.127500
0
VERTEX
8
1
10
724.950000
20
1362.040000
0
VERTEX
8
1
10
727.887500
20
1368.267500
0
VERTEX
8
1
10
730.570000
20
1374.662500
0
VERTEX
8
1
10
735.590000
20
1388.182500
0
VERTEX
8
1
10
740.632500
20
1402.907500
0
VERTEX
8
1
10
745.575000
20
1417.985000
0
VERTEX
8
1
10
750.322500
20
1432.805000
0
VERTEX
8
1
10
753.340000
20
1442.227500
0
SEQEND
8
1
0
TEXT
8
1
10
1571.190000
20
514.170000
40
5.000000
50
-180.000000
1
Piece Name: 新NBA职业球员版.boke_前片
7
STANDARD
0
TEXT
8
1
10
1571.190000
20
509.170000
40
5.000000
50
-180.000000
1
Category: 14
7
STANDARD
0
TEXT
8
1
10
1571.190000
20
504.170000
40
5.000000
50
-180.000000
1
Fabric: 面布
7
STANDARD
0
TEXT
8
1
10
1571.190000
20
499.170000
40
5.000000
50
-180.000000
1
Size: 5XL
7
STANDARD
0
POLYLINE
8
1
66
 1
70
1
0
VERTEX
8
1
10
1082.067500
20
379.167500
0
VERTEX
8
1
10
1077.837500
20
382.657500
0
VERTEX
8
1
10
1077.565000
20
386.675000
0
VERTEX
8
1
10
1076.750000
20
394.345000
0
VERTEX
8
1
10
1075.407500
20
401.542500
0
VERTEX
8
1
10
1073.565000
20
407.707500
0
VERTEX
8
1
10
1071.087500
20
413.695000
0
VERTEX
8
1
10
1067.942500
20
419.650000
0
VERTEX
8
1
10
1066.210000
20
422.465000
0
VERTEX
8
1
10
1064.350000
20
425.237500
0
VERTEX
8
1
10
1060.097500
20
430.840000
0
VERTEX
8
1
10
1055.412500
20
436.195000
0
VERTEX
8
1
10
1050.327500
20
441.302500
0
VERTEX
8
1
10
1044.837500
20
446.215000
0
VERTEX
8
1
10
1039.040000
20
450.872500
0
VERTEX
8
1
10
1032.990000
20
455.257500
0
VERTEX
8
1
10
1026.837500
20
459.300000
0
VERTEX
8
1
10
1020.627500
20
463.005000
0
VERTEX
8
1
10
1011.062500
20
467.665000
0
VERTEX
8
1
10
1001.255000
20
471.790000
0
VERTEX
8
1
10
991.195000
20
475.490000
0
VERTEX
8
1
10
978.787500
20
479.475000
0
VERTEX
8
1
10
966.255000
20
483.022500
0
VERTEX
8
1
10
953.365000
20
486.287500
0
VERTEX
8
1
10
940.600000
20
489.237500
0
VERTEX
8
1
10
926.922500
20
492.157500
0
VERTEX
8
1
10
916.997500
20
494.277500
0
VERTEX
8
1
10
920.287500
20
503.877500
0
VERTEX
8
1
10
929.982500
20
532.142500
0
VERTEX
8
1
10
939.677500
20
560.410000
0
VERTEX
8
1
10
942.347500
20
568.192500
0
VERTEX
8
1
10
950.337500
20
566.230000
0
VERTEX
8
1
10
960.897500
20
563.635000
0
VERTEX
8
1
10
972.327500
20
560.997500
0
VERTEX
8
1
10
984.867500
20
558.370000
0
VERTEX
8
1
10
997.285000
20
556.055000
0
VERTEX
8
1
10
1009.962500
20
553.980000
0
VERTEX
8
1
10
1022.375000
20
552.220000
0
VERTEX
8
1
10
1047.765000
20
549.445000
0
VERTEX
8
1
10
1060.755000
20
548.552500
0
VERTEX
8
1
10
1073.607500
20
548.055000
0
VERTEX
8
1
10
1086.552500
20
548.055000
0
VERTEX
8
1
10
1092.900000
20
548.270000
0
VERTEX
8
1
10
1099.300000
20
548.650000
0
VERTEX
8
1
10
1112.027500
20
549.945000
0
VERTEX
8
1
10
1124.745000
20
552.052500
0
VERTEX
8
1
10
1132.405000
20
553.897500
0
VERTEX
8
1
10
1140.177500
20
556.132500
0
VERTEX
8
1
10
1147.830000
20
558.715000
0
VERTEX
8
1
10
1155.275000
20
561.630000
0
VERTEX
8
1
10
1162.622500
20
564.937500
0
VERTEX
8
1
10
1169.650000
20
568.570000
0
VERTEX
8
1
10
1176.460000
20
572.597500
0
VERTEX
8
1
10
1179.677500
20
574.702500
0
VERTEX
8
1
10
1182.757500
20
576.862500
0
VERTEX
8
1
10
1188.867500
20
581.615000
0
VERTEX
8
1
10
1194.455000
20
586.637500
0
VERTEX
8
1
10
1199.595000
20
592.020000
0
VERTEX
8
1
10
1204.117500
20
597.602500
0
VERTEX
8
1
10
1208.057500
20
604.045000
0
VERTEX
8
1
10
1211.642500
20
611.087500
0
VERTEX
8
1
10
1214.777500
20
618.430000
0
VERTEX
8
1
10
1215.310000
20
619.897500
0
VERTEX
8
1
10
1220.262500
20
621.830000
0
VERTEX
8
1
10
1217.607500
20
626.505000
0
VERTEX
8
1
10
1219.045000
20
631.117500
0
VERTEX
8
1
10
1220.785000
20
637.605000
0
VERTEX
8
1
10
1222.275000
20
644.132500
0
VERTEX
8
1
10
1223.477500
20
650.772500
0
VERTEX
8
1
10
1224.865000
20
658.435000
0
VERTEX
8
1
10
1232.645000
20
658.165000
0
VERTEX
8
1
10
1292.842500
20
656.067500
0
VERTEX
8
1
10
1352.305000
20
654.212500
0
VERTEX
8
1
10
1412.147500
20
652.792500
0
VERTEX
8
1
10
1477.630000
20
651.910000
0
VERTEX
8
1
10
1542.930000
20
651.547500
0
VERTEX
8
1
10
1608.300000
20
651.435000
0
VERTEX
8
1
10
1661.920000
20
651.357500
0
VERTEX
8
1
10
1715.497500
20
651.270000
0
VERTEX
8
1
10
1744.082500
20
651.222500
0
VERTEX
8
1
10
1769.082500
20
651.177500
0
VERTEX
8
1
10
1794.082500
20
651.222500
0
VERTEX
8
1
10
1794.082500
20
642.177500
0
VERTEX
8
1
10
1794.082500
20
510.672500
0
VERTEX
8
1
10
1794.082500
20
379.167500
0
VERTEX
8
1
10
1794.082500
20
247.662500
0
VERTEX
8
1
10
1794.082500
20
116.157500
0
VERTEX
8
1
10
1794.082500
20
107.112500
0
VERTEX
8
1
10
1769.082500
20
107.157500
0
VERTEX
8
1
10
1744.082500
20
107.112500
0
VERTEX
8
1
10
1715.497500
20
107.065000
0
VERTEX
8
1
10
1661.920000
20
106.977500
0
VERTEX
8
1
10
1608.300000
20
106.900000
0
VERTEX
8
1
10
1542.930000
20
106.787500
0
VERTEX
8
1
10
1477.630000
20
106.425000
0
VERTEX
8
1
10
1412.147500
20
105.542500
0
VERTEX
8
1
10
1352.305000
20
104.122500
0
VERTEX
8
1
10
1292.842500
20
102.267500
0
VERTEX
8
1
10
1232.645000
20
100.170000
0
VERTEX
8
1
10
1224.865000
20
99.900000
0
VERTEX
8
1
10
1223.477500
20
107.562500
0
VERTEX
8
1
10
1222.275000
20
114.202500
0
VERTEX
8
1
10
1220.785000
20
120.730000
0
VERTEX
8
1
10
1219.045000
20
127.217500
0
VERTEX
8
1
10
1217.610000
20
131.822500
0
VERTEX
8
1
10
1220.262500
20
136.502500
0
VERTEX
8
1
10
1215.312500
20
138.430000
0
VERTEX
8
1
10
1214.777500
20
139.905000
0
VERTEX
8
1
10
1211.642500
20
147.247500
0
VERTEX
8
1
10
1208.057500
20
154.290000
0
VERTEX
8
1
10
1204.117500
20
160.732500
0
VERTEX
8
1
10
1199.595000
20
166.315000
0
VERTEX
8
1
10
1194.455000
20
171.697500
0
VERTEX
8
1
10
1188.867500
20
176.720000
0
VERTEX
8
1
10
1182.757500
20
181.472500
0
VERTEX
8
1
10
1179.677500
20
183.632500
0
VERTEX
8
1
10
1176.460000
20
185.737500
0
VERTEX
8
1
10
1169.650000
20
189.765000
0
VERTEX
8
1
10
1162.622500
20
193.397500
0
VERTEX
8
1
10
1155.275000
20
196.705000
0
VERTEX
8
1
10
1147.830000
20
199.620000
0
VERTEX
8
1
10
1140.177500
20
202.202500
0
VERTEX
8
1
10
1132.405000
20
204.437500
0
VERTEX
8
1
10
1124.745000
20
206.282500
0
VERTEX
8
1
10
1112.027500
20
208.390000
0
VERTEX
8
1
10
1099.300000
20
209.685000
0
VERTEX
8
1
10
1092.900000
20
210.065000
0
VERTEX
8
1
10
1086.552500
20
210.280000
0
VERTEX
8
1
10
1073.607500
20
210.280000
0
VERTEX
8
1
10
1060.755000
20
209.782500
0
VERTEX
8
1
10
1047.765000
20
208.890000
0
VERTEX
8
1
10
1022.375000
20
206.115000
0
VERTEX
8
1
10
1009.962500
20
204.355000
0
VERTEX
8
1
10
997.285000
20
202.280000
0
VERTEX
8
1
10
984.867500
20
199.965000
0
VERTEX
8
1
10
972.327500
20
197.337500
0
VERTEX
8
1
10
960.897500
20
194.700000
0
VERTEX
8
1
10
950.337500
20
192.105000
0
VERTEX
8
1
10
942.347500
20
190.142500
0
VERTEX
8
1
10
939.677500
20
197.925000
0
VERTEX
8
1
10
929.982500
20
226.192500
0
VERTEX
8
1
10
920.287500
20
254.457500
0
VERTEX
8
1
10
916.997500
20
264.057500
0
VERTEX
8
1
10
926.922500
20
266.177500
0
VERTEX
8
1
10
940.600000
20
269.097500
0
VERTEX
8
1
10
953.365000
20
272.047500
0
VERTEX
8
1
10
966.255000
20
275.312500
0
VERTEX
8
1
10
978.787500
20
278.860000
0
VERTEX
8
1
10
991.195000
20
282.845000
0
VERTEX
8
1
10
1001.255000
20
286.545000
0
VERTEX
8
1
10
1011.062500
20
290.670000
0
VERTEX
8
1
10
1020.627500
20
295.330000
0
VERTEX
8
1
10
1026.837500
20
299.035000
0
VERTEX
8
1
10
1032.990000
20
303.077500
0
VERTEX
8
1
10
1039.040000
20
307.462500
0
VERTEX
8
1
10
1044.837500
20
312.120000
0
VERTEX
8
1
10
1050.327500
20
317.032500
0
VERTEX
8
1
10
1055.412500
20
322.140000
0
VERTEX
8
1
10
1060.097500
20
327.495000
0
VERTEX
8
1
10
1064.350000
20
333.097500
0
VERTEX
8
1
10
1066.210000
20
335.870000
0
VERTEX
8
1
10
1067.942500
20
338.685000
0
VERTEX
8
1
10
1071.087500
20
344.640000
0
VERTEX
8
1
10
1073.565000
20
350.627500
0
VERTEX
8
1
10
1075.407500
20
356.792500
0
VERTEX
8
1
10
1076.750000
20
363.990000
0
VERTEX
8
1
10
1077.565000
20
371.660000
0
VERTEX
8
1
10
1077.837500
20
375.675000
0
SEQEND
8
1
0
TEXT
8
1
10
717.637500
20
677.752500
40
5.000000
50
-180.000000
1
Piece Name: 新NBA职业球员版.boke_后片
7
STANDARD
0
TEXT
8
1
10
717.637500
20
672.752500
40
5.000000
50
-180.000000
1
Category: 16
7
STANDARD
0
TEXT
8
1
10
717.637500
20
667.752500
40
5.000000
50
-180.000000
1
Fabric: 面布
7
STANDARD
0
TEXT
8
1
10
717.637500
20
662.752500
40
5.000000
50
-180.000000
1
Size: 5XL
7
STANDARD
0
POLYLINE
8
1
66
 1
70
1
0
VERTEX
8
1
10
48.312500
20
492.755000
0
VERTEX
8
1
10
44.425000
20
496.250000
0
VERTEX
8
1
10
45.905000
20
540.067500
0
VERTEX
8
1
10
45.900000
20
550.512500
0
VERTEX
8
1
10
45.600000
20
560.587500
0
VERTEX
8
1
10
44.717500
20
570.207500
0
VERTEX
8
1
10
44.020000
20
574.537500
0
VERTEX
8
1
10
43.080000
20
578.752500
0
VERTEX
8
1
10
41.910000
20
582.667500
0
VERTEX
8
1
10
40.472500
20
586.352500
0
VERTEX
8
1
10
38.775000
20
589.735000
0
VERTEX
8
1
10
36.752500
20
592.902500
0
VERTEX
8
1
10
34.457500
20
595.782500
0
VERTEX
8
1
10
31.760000
20
598.632500
0
VERTEX
8
1
10
28.697500
20
601.465000
0
VERTEX
8
1
10
25.347500
20
604.280000
0
VERTEX
8
1
10
18.545000
20
609.565000
0
VERTEX
8
1
10
13.552500
20
611.970000
0
VERTEX
8
1
10
7.700000
20
614.790000
0
VERTEX
8
1
10
0.517500
20
618.252500
0
VERTEX
8
1
10
3.090000
20
625.802500
0
VERTEX
8
1
10
12.740000
20
654.082500
0
VERTEX
8
1
10
22.390000
20
682.365000
0
VERTEX
8
1
10
25.567500
20
691.682500
0
VERTEX
8
1
10
34.572500
20
687.677500
0
VERTEX
8
1
10
35.725000
20
687.165000
0
VERTEX
8
1
10
42.295000
20
684.297500
0
VERTEX
8
1
10
44.315000
20
679.080000
0
VERTEX
8
1
10
48.935000
20
682.232500
0
VERTEX
8
1
10
59.500000
20
680.185000
0
VERTEX
8
1
10
74.282500
20
677.435000
0
VERTEX
8
1
10
89.195000
20
674.895000
0
VERTEX
8
1
10
110.352500
20
671.890000
0
VERTEX
8
1
10
121.080000
20
670.685000
0
VERTEX
8
1
10
131.585000
20
669.735000
0
VERTEX
8
1
10
142.245000
20
669.025000
0
VERTEX
8
1
10
152.842500
20
668.587500
0
VERTEX
8
1
10
170.870000
20
668.655000
0
VERTEX
8
1
10
179.807500
20
669.040000
0
VERTEX
8
1
10
188.740000
20
669.682500
0
VERTEX
8
1
10
197.592500
20
670.600000
0
VERTEX
8
1
10
206.437500
20
671.812500
0
VERTEX
8
1
10
215.215000
20
673.345000
0
VERTEX
8
1
10
223.767500
20
675.172500
0
VERTEX
8
1
10
232.315000
20
677.370000
0
VERTEX
8
1
10
240.752500
20
679.932500
0
VERTEX
8
1
10
249.027500
20
682.867500
0
VERTEX
8
1
10
257.027500
20
686.147500
0
VERTEX
8
1
10
262.565000
20
688.912500
0
VERTEX
8
1
10
268.195000
20
691.995000
0
VERTEX
8
1
10
273.630000
20
695.247500
0
VERTEX
8
1
10
279.015000
20
698.765000
0
VERTEX
8
1
10
284.160000
20
702.435000
0
VERTEX
8
1
10
289.182500
20
706.352500
0
VERTEX
8
1
10
293.957500
20
710.440000
0
VERTEX
8
1
10
296.172500
20
712.470000
0
VERTEX
8
1
10
298.482500
20
714.697500
0
VERTEX
8
1
10
302.782500
20
719.150000
0
VERTEX
8
1
10
305.177500
20
721.900000
0
VERTEX
8
1
10
310.585000
20
722.115000
0
VERTEX
8
1
10
309.585000
20
727.332500
0
VERTEX
8
1
10
310.610000
20
728.652500
0
VERTEX
8
1
10
313.987500
20
733.535000
0
VERTEX
8
1
10
317.380000
20
739.462500
0
VERTEX
8
1
10
320.435000
20
745.665000
0
VERTEX
8
1
10
323.115000
20
752.007500
0
VERTEX
8
1
10
326.485000
20
761.752500
0
VERTEX
8
1
10
329.192500
20
771.655000
0
VERTEX
8
1
10
331.435000
20
781.960000
0
VERTEX
8
1
10
333.292500
20
792.435000
0
VERTEX
8
1
10
335.757500
20
809.522500
0
VERTEX
8
1
10
340.252500
20
812.885000
0
VERTEX
8
1
10
335.942500
20
816.470000
0
VERTEX
8
1
10
333.762500
20
840.442500
0
VERTEX
8
1
10
331.957500
20
854.190000
0
VERTEX
8
1
10
330.702500
20
861.157500
0
VERTEX
8
1
10
328.797500
20
871.750000
0
VERTEX
8
1
10
339.560000
20
871.750000
0
VERTEX
8
1
10
607.937500
20
871.750000
0
VERTEX
8
1
10
851.310000
20
871.750000
0
VERTEX
8
1
10
876.310000
20
871.750000
0
VERTEX
8
1
10
901.310000
20
871.750000
0
VERTEX
8
1
10
901.310000
20
862.750000
0
VERTEX
8
1
10
901.310000
20
837.752500
0
VERTEX
8
1
10
901.310000
20
812.755000
0
VERTEX
8
1
10
901.310000
20
652.755000
0
VERTEX
8
1
10
901.310000
20
492.755000
0
VERTEX
8
1
10
901.310000
20
332.755000
0
VERTEX
8
1
10
901.310000
20
172.755000
0
VERTEX
8
1
10
901.310000
20
147.757500
0
VERTEX
8
1
10
901.310000
20
122.760000
0
VERTEX
8
1
10
901.310000
20
113.760000
0
VERTEX
8
1
10
876.310000
20
113.760000
0
VERTEX
8
1
10
851.310000
20
113.760000
0
VERTEX
8
1
10
607.937500
20
113.760000
0
VERTEX
8
1
10
339.560000
20
113.760000
0
VERTEX
8
1
10
328.797500
20
113.760000
0
VERTEX
8
1
10
330.702500
20
124.352500
0
VERTEX
8
1
10
331.957500
20
131.320000
0
VERTEX
8
1
10
333.762500
20
145.067500
0
VERTEX
8
1
10
335.940000
20
169.035000
0
VERTEX
8
1
10
340.252500
20
172.622500
0
VERTEX
8
1
10
335.757500
20
175.982500
0
VERTEX
8
1
10
333.292500
20
193.075000
0
VERTEX
8
1
10
331.435000
20
203.550000
0
VERTEX
8
1
10
329.192500
20
213.855000
0
VERTEX
8
1
10
326.485000
20
223.757500
0
VERTEX
8
1
10
323.115000
20
233.502500
0
VERTEX
8
1
10
320.435000
20
239.845000
0
VERTEX
8
1
10
317.380000
20
246.047500
0
VERTEX
8
1
10
313.987500
20
251.975000
0
VERTEX
8
1
10
310.610000
20
256.857500
0
VERTEX
8
1
10
309.585000
20
258.172500
0
VERTEX
8
1
10
310.585000
20
263.392500
0
VERTEX
8
1
10
305.177500
20
263.605000
0
VERTEX
8
1
10
302.782500
20
266.360000
0
VERTEX
8
1
10
298.482500
20
270.812500
0
VERTEX
8
1
10
296.172500
20
273.040000
0
VERTEX
8
1
10
293.957500
20
275.070000
0
VERTEX
8
1
10
289.182500
20
279.157500
0
VERTEX
8
1
10
284.160000
20
283.075000
0
VERTEX
8
1
10
279.015000
20
286.745000
0
VERTEX
8
1
10
273.630000
20
290.262500
0
VERTEX
8
1
10
268.195000
20
293.515000
0
VERTEX
8
1
10
262.565000
20
296.597500
0
VERTEX
8
1
10
257.027500
20
299.362500
0
VERTEX
8
1
10
249.027500
20
302.642500
0
VERTEX
8
1
10
240.752500
20
305.577500
0
VERTEX
8
1
10
232.315000
20
308.140000
0
VERTEX
8
1
10
223.767500
20
310.337500
0
VERTEX
8
1
10
215.215000
20
312.165000
0
VERTEX
8
1
10
206.437500
20
313.697500
0
VERTEX
8
1
10
197.592500
20
314.910000
0
VERTEX
8
1
10
188.740000
20
315.827500
0
VERTEX
8
1
10
179.807500
20
316.470000
0
VERTEX
8
1
10
170.870000
20
316.855000
0
VERTEX
8
1
10
152.842500
20
316.922500
0
VERTEX
8
1
10
142.245000
20
316.485000
0
VERTEX
8
1
10
131.585000
20
315.775000
0
VERTEX
8
1
10
121.080000
20
314.825000
0
VERTEX
8
1
10
110.352500
20
313.620000
0
VERTEX
8
1
10
89.195000
20
310.615000
0
VERTEX
8
1
10
74.282500
20
308.075000
0
VERTEX
8
1
10
59.500000
20
305.325000
0
VERTEX
8
1
10
48.935000
20
303.275000
0
VERTEX
8
1
10
44.315000
20
306.427500
0
VERTEX
8
1
10
42.295000
20
301.210000
0
VERTEX
8
1
10
35.725000
20
298.345000
0
VERTEX
8
1
10
34.572500
20
297.832500
0
VERTEX
8
1
10
25.567500
20
293.827500
0
VERTEX
8
1
10
22.390000
20
303.145000
0
VERTEX
8
1
10
12.740000
20
331.427500
0
VERTEX
8
1
10
3.090000
20
359.707500
0
VERTEX
8
1
10
0.517500
20
367.257500
0
VERTEX
8
1
10
7.700000
20
370.720000
0
VERTEX
8
1
10
13.552500
20
373.540000
0
VERTEX
8
1
10
18.545000
20
375.945000
0
VERTEX
8
1
10
25.347500
20
381.230000
0
VERTEX
8
1
10
28.697500
20
384.045000
0
VERTEX
8
1
10
31.760000
20
386.877500
0
VERTEX
8
1
10
34.457500
20
389.727500
0
VERTEX
8
1
10
36.752500
20
392.607500
0
VERTEX
8
1
10
38.775000
20
395.775000
0
VERTEX
8
1
10
40.472500
20
399.157500
0
VERTEX
8
1
10
41.910000
20
402.842500
0
VERTEX
8
1
10
43.080000
20
406.757500
0
VERTEX
8
1
10
44.020000
20
410.972500
0
VERTEX
8
1
10
44.717500
20
415.302500
0
VERTEX
8
1
10
45.600000
20
424.922500
0
VERTEX
8
1
10
45.900000
20
434.997500
0
VERTEX
8
1
10
45.905000
20
445.442500
0
VERTEX
8
1
10
44.425000
20
489.257500
0
SEQEND
8
1
0
TEXT
8
1
10
255.827500
20
981.532500
40
5.000000
50
-180.000000
1
Piece Name: 新NBA职业球员版.boke_左手心
7
STANDARD
0
TEXT
8
1
10
255.827500
20
976.532500
40
5.000000
50
-180.000000
1
Category: 18
7
STANDARD
0
TEXT
8
1
10
255.827500
20
971.532500
40
5.000000
50
-180.000000
1
Fabric: 面布
7
STANDARD
0
TEXT
8
1
10
255.827500
20
966.532500
40
5.000000
50
-180.000000
1
Size: 5XL
7
STANDARD
0
POLYLINE
8
1
66
 1
70
1
0
VERTEX
8
1
10
0.002500
20
991.735000
0
VERTEX
8
1
10
20.265000
20
1002.637500
0
VERTEX
8
1
10
25.967500
20
1005.707500
0
VERTEX
8
1
10
82.397500
20
1035.492500
0
VERTEX
8
1
10
139.080000
20
1064.317500
0
VERTEX
8
1
10
161.557500
20
1075.060000
0
VERTEX
8
1
10
173.207500
20
1080.047500
0
VERTEX
8
1
10
185.217500
20
1084.552500
0
VERTEX
8
1
10
197.677500
20
1088.407500
0
VERTEX
8
1
10
210.602500
20
1091.412500
0
VERTEX
8
1
10
217.585000
20
1092.432500
0
VERTEX
8
1
10
224.467500
20
1093.137500
0
VERTEX
8
1
10
231.457500
20
1093.537500
0
VERTEX
8
1
10
238.292500
20
1093.607500
0
VERTEX
8
1
10
241.910000
20
1093.507500
0
VERTEX
8
1
10
245.482500
20
1093.317500
0
VERTEX
8
1
10
252.362500
20
1092.657500
0
VERTEX
8
1
10
259.227500
20
1091.592500
0
VERTEX
8
1
10
266.077500
20
1090.075000
0
VERTEX
8
1
10
272.782500
20
1088.097500
0
VERTEX
8
1
10
279.277500
20
1085.630000
0
VERTEX
8
1
10
285.612500
20
1082.610000
0
VERTEX
8
1
10
291.730000
20
1079.005000
0
VERTEX
8
1
10
296.272500
20
1075.585000
0
VERTEX
8
1
10
300.367500
20
1072.032500
0
VERTEX
8
1
10
304.230000
20
1068.210000
0
VERTEX
8
1
10
307.795000
20
1064.220000
0
VERTEX
8
1
10
309.597500
20
1062.010000
0
VERTEX
8
1
10
311.267500
20
1059.840000
0
VERTEX
8
1
10
314.350000
20
1055.475000
0
VERTEX
8
1
10
317.277500
20
1050.820000
0
VERTEX
8
1
10
319.982500
20
1045.987500
0
VERTEX
8
1
10
324.540000
20
1036.252500
0
VERTEX
8
1
10
328.250000
20
1025.942500
0
VERTEX
8
1
10
329.935000
20
1018.752500
0
VERTEX
8
1
10
331.137500
20
1011.830000
0
VERTEX
8
1
10
331.937500
20
1004.852500
0
VERTEX
8
1
10
332.340000
20
997.850000
0
VERTEX
8
1
10
332.392500
20
994.342500
0
VERTEX
8
1
10
332.350000
20
990.782500
0
VERTEX
8
1
10
331.970000
20
983.832500
0
VERTEX
8
1
10
331.202500
20
976.922500
0
VERTEX
8
1
10
330.045000
20
970.005000
0
VERTEX
8
1
10
328.522500
20
963.227500
0
VERTEX
8
1
10
326.610000
20
956.480000
0
VERTEX
8
1
10
324.347500
20
949.912500
0
VERTEX
8
1
10
321.632500
20
943.277500
0
VERTEX
8
1
10
315.842500
20
932.227500
0
VERTEX
8
1
10
312.352500
20
926.770000
0
VERTEX
8
1
10
308.575000
20
921.607500
0
VERTEX
8
1
10
304.462500
20
916.717500
0
VERTEX
8
1
10
299.775000
20
911.910000
0
VERTEX
8
1
10
289.937500
20
904.147500
0
VERTEX
8
1
10
280.302500
20
897.385000
0
VERTEX
8
1
10
271.637500
20
890.690000
0
VERTEX
8
1
10
268.990000
20
888.217500
0
VERTEX
8
1
10
266.365000
20
885.430000
0
VERTEX
8
1
10
263.992500
20
882.537500
0
VERTEX
8
1
10
262.205000
20
880.030000
0
VERTEX
8
1
10
260.377500
20
877.230000
0
VERTEX
8
1
10
258.487500
20
874.185000
0
VERTEX
8
1
10
256.177500
20
870.462500
0
VERTEX
8
1
10
249.995000
20
870.462500
0
VERTEX
8
1
10
193.497500
20
870.462500
0
VERTEX
8
1
10
189.997500
20
874.460000
0
VERTEX
8
1
10
186.500000
20
870.462500
0
VERTEX
8
1
10
137.497500
20
870.462500
0
VERTEX
8
1
10
50.000000
20
870.462500
0
VERTEX
8
1
10
43.500000
20
870.462500
0
VERTEX
8
1
10
40.000000
20
874.460000
0
VERTEX
8
1
10
36.502500
20
870.462500
0
VERTEX
8
1
10
25.000000
20
870.462500
0
VERTEX
8
1
10
0.000000
20
870.465000
0
VERTEX
8
1
10
0.000000
20
879.465000
0
VERTEX
8
1
10
0.000000
20
936.650000
0
VERTEX
8
1
10
0.002500
20
991.735000
0
SEQEND
8
1
0
TEXT
8
1
10
1264.420000
20
1116.507500
40
5.000000
50
-180.000000
1
Piece Name: 新NBA职业球员版.boke_右手心
7
STANDARD
0
TEXT
8
1
10
1264.420000
20
1111.507500
40
5.000000
50
-180.000000
1
Category: 20
7
STANDARD
0
TEXT
8
1
10
1264.420000
20
1106.507500
40
5.000000
50
-180.000000
1
Fabric: 面布
7
STANDARD
0
TEXT
8
1
10
1264.420000
20
1101.507500
40
5.000000
50
-180.000000
1
Size: 5XL
7
STANDARD
0
POLYLINE
8
1
66
 1
70
1
0
VERTEX
8
1
10
1008.595000
20
1126.717500
0
VERTEX
8
1
10
1028.857500
20
1137.612500
0
VERTEX
8
1
10
1034.562500
20
1140.680000
0
VERTEX
8
1
10
1090.992500
20
1170.465000
0
VERTEX
8
1
10
1147.675000
20
1199.290000
0
VERTEX
8
1
10
1170.152500
20
1210.030000
0
VERTEX
8
1
10
1181.800000
20
1215.020000
0
VERTEX
8
1
10
1193.812500
20
1219.525000
0
VERTEX
8
1
10
1206.272500
20
1223.377500
0
VERTEX
8
1
10
1219.195000
20
1226.385000
0
VERTEX
8
1
10
1226.180000
20
1227.405000
0
VERTEX
8
1
10
1233.060000
20
1228.110000
0
VERTEX
8
1
10
1240.050000
20
1228.510000
0
VERTEX
8
1
10
1246.887500
20
1228.580000
0
VERTEX
8
1
10
1250.502500
20
1228.480000
0
VERTEX
8
1
10
1254.075000
20
1228.290000
0
VERTEX
8
1
10
1260.955000
20
1227.630000
0
VERTEX
8
1
10
1267.820000
20
1226.565000
0
VERTEX
8
1
10
1274.670000
20
1225.050000
0
VERTEX
8
1
10
1281.377500
20
1223.070000
0
VERTEX
8
1
10
1287.870000
20
1220.602500
0
VERTEX
8
1
10
1294.205000
20
1217.585000
0
VERTEX
8
1
10
1300.325000
20
1213.977500
0
VERTEX
8
1
10
1304.867500
20
1210.557500
0
VERTEX
8
1
10
1308.962500
20
1207.005000
0
VERTEX
8
1
10
1312.825000
20
1203.182500
0
VERTEX
8
1
10
1316.390000
20
1199.192500
0
VERTEX
8
1
10
1318.192500
20
1196.982500
0
VERTEX
8
1
10
1319.862500
20
1194.812500
0
VERTEX
8
1
10
1322.947500
20
1190.445000
0
VERTEX
8
1
10
1325.872500
20
1185.792500
0
VERTEX
8
1
10
1328.580000
20
1180.960000
0
VERTEX
8
1
10
1333.137500
20
1171.225000
0
VERTEX
8
1
10
1336.845000
20
1160.915000
0
VERTEX
8
1
10
1338.530000
20
1153.727500
0
VERTEX
8
1
10
1339.735000
20
1146.805000
0
VERTEX
8
1
10
1340.532500
20
1139.825000
0
VERTEX
8
1
10
1340.935000
20
1132.822500
0
VERTEX
8
1
10
1340.987500
20
1129.315000
0
VERTEX
8
1
10
1340.945000
20
1125.755000
0
VERTEX
8
1
10
1340.565000
20
1118.807500
0
VERTEX
8
1
10
1339.800000
20
1111.895000
0
VERTEX
8
1
10
1338.642500
20
1104.977500
0
VERTEX
8
1
10
1337.120000
20
1098.200000
0
VERTEX
8
1
10
1335.207500
20
1091.452500
0
VERTEX
8
1
10
1332.945000
20
1084.885000
0
VERTEX
8
1
10
1330.227500
20
1078.250000
0
VERTEX
8
1
10
1324.437500
20
1067.197500
0
VERTEX
8
1
10
1320.947500
20
1061.740000
0
VERTEX
8
1
10
1317.170000
20
1056.577500
0
VERTEX
8
1
10
1313.057500
20
1051.690000
0
VERTEX
8
1
10
1308.370000
20
1046.882500
0
VERTEX
8
1
10
1298.535000
20
1039.120000
0
VERTEX
8
1
10
1288.900000
20
1032.355000
0
VERTEX
8
1
10
1280.235000
20
1025.660000
0
VERTEX
8
1
10
1277.582500
20
1023.182500
0
VERTEX
8
1
10
1274.957500
20
1020.400000
0
VERTEX
8
1
10
1272.590000
20
1017.507500
0
VERTEX
8
1
10
1270.797500
20
1014.995000
0
VERTEX
8
1
10
1268.972500
20
1012.197500
0
VERTEX
8
1
10
1267.082500
20
1009.160000
0
VERTEX
8
1
10
1264.770000
20
1005.437500
0
VERTEX
8
1
10
1258.587500
20
1005.437500
0
VERTEX
8
1
10
1202.090000
20
1005.437500
0
VERTEX
8
1
10
1198.590000
20
1009.435000
0
VERTEX
8
1
10
1195.092500
20
1005.437500
0
VERTEX
8
1
10
1146.090000
20
1005.437500
0
VERTEX
8
1
10
1058.590000
20
1005.437500
0
VERTEX
8
1
10
1052.092500
20
1005.437500
0
VERTEX
8
1
10
1048.592500
20
1009.435000
0
VERTEX
8
1
10
1045.095000
20
1005.437500
0
VERTEX
8
1
10
1033.592500
20
1005.437500
0
VERTEX
8
1
10
1008.595000
20
1005.437500
0
VERTEX
8
1
10
1008.595000
20
1014.435000
0
VERTEX
8
1
10
1008.595000
20
1071.620000
0
VERTEX
8
1
10
1008.595000
20
1126.717500
0
SEQEND
8
1
0
TEXT
8
1
10
877.822500
20
1552.797500
40
5.000000
50
-180.000000
1
Piece Name: 新NBA职业球员版.boke_右手背
7
STANDARD
0
TEXT
8
1
10
877.822500
20
1547.797500
40
5.000000
50
-180.000000
1
Category: 22
7
STANDARD
0
TEXT
8
1
10
877.822500
20
1542.797500
40
5.000000
50
-180.000000
1
Fabric: 面布
7
STANDARD
0
TEXT
8
1
10
877.822500
20
1537.797500
40
5.000000
50
-180.000000
1
Size: 5XL
7
STANDARD
0
POLYLINE
8
1
66
 1
70
1
0
VERTEX
8
1
10
621.997500
20
1542.590000
0
VERTEX
8
1
10
621.997500
20
1597.682500
0
VERTEX
8
1
10
621.997500
20
1654.867500
0
VERTEX
8
1
10
621.997500
20
1663.867500
0
VERTEX
8
1
10
646.995000
20
1663.867500
0
VERTEX
8
1
10
658.497500
20
1663.867500
0
VERTEX
8
1
10
661.995000
20
1659.870000
0
VERTEX
8
1
10
665.495000
20
1663.867500
0
VERTEX
8
1
10
671.992500
20
1663.867500
0
VERTEX
8
1
10
759.492500
20
1663.867500
0
VERTEX
8
1
10
808.495000
20
1663.867500
0
VERTEX
8
1
10
811.992500
20
1659.870000
0
VERTEX
8
1
10
815.492500
20
1663.867500
0
VERTEX
8
1
10
871.990000
20
1663.867500
0
VERTEX
8
1
10
878.172500
20
1663.867500
0
VERTEX
8
1
10
880.485000
20
1660.145000
0
VERTEX
8
1
10
882.372500
20
1657.105000
0
VERTEX
8
1
10
884.200000
20
1654.307500
0
VERTEX
8
1
10
885.992500
20
1651.795000
0
VERTEX
8
1
10
888.360000
20
1648.902500
0
VERTEX
8
1
10
890.985000
20
1646.120000
0
VERTEX
8
1
10
893.635000
20
1643.642500
0
VERTEX
8
1
10
902.300000
20
1636.950000
0
VERTEX
8
1
10
911.935000
20
1630.185000
0
VERTEX
8
1
10
921.772500
20
1622.422500
0
VERTEX
8
1
10
926.460000
20
1617.615000
0
VERTEX
8
1
10
930.572500
20
1612.725000
0
VERTEX
8
1
10
934.347500
20
1607.565000
0
VERTEX
8
1
10
937.837500
20
1602.107500
0
VERTEX
8
1
10
943.630000
20
1591.055000
0
VERTEX
8
1
10
946.345000
20
1584.417500
0
VERTEX
8
1
10
948.607500
20
1577.850000
0
VERTEX
8
1
10
950.520000
20
1571.102500
0
VERTEX
8
1
10
952.042500
20
1564.327500
0
VERTEX
8
1
10
953.200000
20
1557.407500
0
VERTEX
8
1
10
953.965000
20
1550.495000
0
VERTEX
8
1
10
954.345000
20
1543.550000
0
VERTEX
8
1
10
954.390000
20
1539.990000
0
VERTEX
8
1
10
954.340000
20
1536.482500
0
VERTEX
8
1
10
953.937500
20
1529.477500
0
VERTEX
8
1
10
953.137500
20
1522.500000
0
VERTEX
8
1
10
951.935000
20
1515.580000
0
VERTEX
8
1
10
950.250000
20
1508.387500
0
VERTEX
8
1
10
946.540000
20
1498.077500
0
VERTEX
8
1
10
941.982500
20
1488.342500
0
VERTEX
8
1
10
939.277500
20
1483.512500
0
VERTEX
8
1
10
936.350000
20
1478.857500
0
VERTEX
8
1
10
933.267500
20
1474.492500
0
VERTEX
8
1
10
931.595000
20
1472.320000
0
VERTEX
8
1
10
929.792500
20
1470.112500
0
VERTEX
8
1
10
926.230000
20
1466.122500
0
VERTEX
8
1
10
922.367500
20
1462.300000
0
VERTEX
8
1
10
918.270000
20
1458.745000
0
VERTEX
8
1
10
913.727500
20
1455.327500
0
VERTEX
8
1
10
907.610000
20
1451.720000
0
VERTEX
8
1
10
901.275000
20
1448.700000
0
VERTEX
8
1
10
894.780000
20
1446.235000
0
VERTEX
8
1
10
888.075000
20
1444.255000
0
VERTEX
8
1
10
881.225000
20
1442.740000
0
VERTEX
8
1
10
874.362500
20
1441.675000
0
VERTEX
8
1
10
867.482500
20
1441.015000
0
VERTEX
8
1
10
863.910000
20
1440.825000
0
VERTEX
8
1
10
860.295000
20
1440.722500
0
VERTEX
8
1
10
853.455000
20
1440.790000
0
VERTEX
8
1
10
846.465000
20
1441.190000
0
VERTEX
8
1
10
839.582500
20
1441.895000
0
VERTEX
8
1
10
832.600000
20
1442.915000
0
VERTEX
8
1
10
819.677500
20
1445.922500
0
VERTEX
8
1
10
807.217500
20
1449.775000
0
VERTEX
8
1
10
795.205000
20
1454.280000
0
VERTEX
8
1
10
783.557500
20
1459.270000
0
VERTEX
8
1
10
761.080000
20
1470.010000
0
VERTEX
8
1
10
704.397500
20
1498.835000
0
VERTEX
8
1
10
647.967500
20
1528.622500
0
VERTEX
8
1
10
642.260000
20
1531.692500
0
VERTEX
8
1
10
621.997500
20
1542.590000
0
SEQEND
8
1
0
ENDSEC
0
EOF
