  0
SECTION
  2
HEADER
  9
$ACADVER
  1
AC1009
  9
$INSBASE
 10
0.0
 20
0.0
 30
0.0
  9
$EXTMIN
 10
4.845262
 20
3.02933
 30
0.0
  9
$EXTMAX
 10
8.847323
 20
6.850559
 30
0.0
  9
$LIMMIN
 10
0.0
 20
0.0
  9
$LIMMAX
 10
12.0
 20
9.0
  9
$ORTHOMODE
 70
     0
  9
$REGENMODE
 70
     1
  9
$FILLMODE
 70
     1
  9
$QTEXTMODE
 70
     0
  9
$MIRRTEXT
 70
     1
  9
$DRAGMODE
 70
     2
  9
$LTSCALE
 40
1.0
  9
$OSMODE
 70
     0
  9
$ATTMODE
 70
     1
  9
$TEXTSIZE
 40
0.2
  9
$TRACEWID
 40
0.05
  9
$TEXTSTYLE
  7
STANDARD
  9
$CLAYER
  8
0
  9
$CELTYPE
  6
BYLAYER
  9
$CECOLOR
 62
   256
  9
$DIMSCALE
 40
1.0
  9
$DIMASZ
 40
0.18
  9
$DIMEXO
 40
0.0625
  9
$DIMDLI
 40
0.38
  9
$DIMRND
 40
0.0
  9
$DIMDLE
 40
0.0
  9
$DIMEXE
 40
0.18
  9
$DIMTP
 40
0.0
  9
$DIMTM
 40
0.0
  9
$DIMTXT
 40
0.18
  9
$DIMCEN
 40
0.09
  9
$DIMTSZ
 40
0.0
  9
$DIMTOL
 70
     0
  9
$DIMLIM
 70
     0
  9
$DIMTIH
 70
     1
  9
$DIMTOH
 70
     1
  9
$DIMSE1
 70
     0
  9
$DIMSE2
 70
     0
  9
$DIMTAD
 70
     0
  9
$DIMZIN
 70
     0
  9
$DIMBLK
  1

  9
$DIMASO
 70
     1
  9
$DIMSHO
 70
     1
  9
$DIMPOST
  1

  9
$DIMAPOST
  1

  9
$DIMALT
 70
     0
  9
$DIMALTD
 70
     2
  9
$DIMALTF
 40
25.4
  9
$DIMLFAC
 40
1.0
  9
$DIMTOFL
 70
     0
  9
$DIMTVP
 40
0.0
  9
$DIMTIX
 70
     0
  9
$DIMSOXD
 70
     0
  9
$DIMSAH
 70
     0
  9
$DIMBLK1
  1

  9
$DIMBLK2
  1

  9
$DIMSTYLE
  2
*UNNAMED
  9
$DIMCLRD
 70
     0
  9
$DIMCLRE
 70
     0
  9
$DIMCLRT
 70
     0
  9
$DIMTFAC
 40
1.0
  9
$DIMGAP
 40
0.09
  9
$LUNITS
 70
     2
  9
$LUPREC
 70
     4
  9
$SKETCHINC
 40
0.1
  9
$FILLETRAD
 40
0.0
  9
$AUNITS
 70
     0
  9
$AUPREC
 70
     0
  9
$MENU
  1
aDXF
  9
$ELEVATION
 40
0.0
  9
$PELEVATION
 40
0.0
  9
$THICKNESS
 40
0.0
  9
$LIMCHECK
 70
     0
  9
$BLIPMODE
 70
     1
  9
$CHAMFERA
 40
0.0
  9
$CHAMFERB
 40
0.0
  9
$SKPOLY
 70
     0
  9
$TDCREATE
 40
2450406.327857407
  9
$TDUPDATE
 40
2450406.327857407
  9
$TDINDWG
 40
0.0000000000
  9
$TDUSRTIMER
 40
0.0000000000
  9
$USRTIMER
 70
     1
  9
$ANGBASE
 50
0.0
  9
$ANGDIR
 70
     0
  9
$PDMODE
 70
     0
  9
$PDSIZE
 40
0.0
  9
$PLINEWID
 40
0.0
  9
$COORDS
 70
     1
  9
$SPLFRAME
 70
     0
  9
$SPLINETYPE
 70
     6
  9
$SPLINESEGS
 70
     8
  9
$ATTDIA
 70
     0
  9
$ATTREQ
 70
     1
  9
$HANDLING
 70
     0
  9
$HANDSEED
  5
0
  9
$SURFTAB1
 70
     6
  9
$SURFTAB2
 70
     6
  9
$SURFTYPE
 70
     6
  9
$SURFU
 70
     6
  9
$SURFV
 70
     6
  9
$UCSNAME
  2

  9
$UCSORG
 10
0.0
 20
0.0
 30
0.0
  9
$UCSXDIR
 10
1.0
 20
0.0
 30
0.0
  9
$UCSYDIR
 10
0.0
 20
1.0
 30
0.0
  9
$PUCSNAME
  2

  9
$PUCSORG
 10
0.0
 20
0.0
 30
0.0
  9
$PUCSXDIR
 10
1.0
 20
0.0
 30
0.0
  9
$PUCSYDIR
 10
0.0
 20
1.0
 30
0.0
  9
$USERI1
 70
     0
  9
$USERI2
 70
     0
  9
$USERI3
 70
     0
  9
$USERI4
 70
     0
  9
$USERI5
 70
     0
  9
$USERR1
 40
0.0
  9
$USERR2
 40
0.0
  9
$USERR3
 40
0.0
  9
$USERR4
 40
0.0
  9
$USERR5
 40
0.0
  9
$WORLDVIEW
 70
     1
  9
$SHADEDGE
 70
     3
  9
$SHADEDIF
 70
    70
  9
$TILEMODE
 70
     1
  9
$MAXACTVP
 70
    16
  9
$PINSBASE
 10
0.0
 20
0.0
 30
0.0
  9
$PLIMCHECK
 70
     0
  9
$PEXTMIN
 10
1.000000E+20
 20
1.000000E+20
 30
1.000000E+20
  9
$PEXTMAX
 10
-1.000000E+20
 20
-1.000000E+20
 30
-1.000000E+20
  9
$PLIMMIN
 10
0.0
 20
0.0
  9
$PLIMMAX
 10
12.0
 20
9.0
  9
$UNITMODE
 70
     0
  9
$VISRETAIN
 70
     0
  9
$PLINEGEN
 70
     0
  9
$PSLTSCALE
 70
     1
  9
$TREEDEPTH
 70
  3020
  9
$DWGCODEPAGE
  3
iso8859-1
  0
ENDSEC
  0
SECTION
  2
TABLES
  0
TABLE
  2
VPORT
 70
     2
  0
VPORT
  2
*ACTIVE
 70
     0
 10
0.0
 20
0.0
 11
1.0
 21
1.0
 12
7.953782
 22
4.5
 13
0.0
 23
0.0
 14
1.0
 24
1.0
 15
0.0
 25
0.0
 16
0.0
 26
0.0
 36
1.0
 17
0.0
 27
0.0
 37
0.0
 40
9.0
 41
1.767507
 42
50.0
 43
0.0
 44
0.0
 50
0.0
 51
0.0
 71
     0
 72
   100
 73
     1
 74
     1
 75
     0
 76
     0
 77
     0
 78
     0
  0
ENDTAB
  0
TABLE
  2
LTYPE
 70
     1
  0
LTYPE
  2
CONTINUOUS
 70
    64
  3
Solid line
 72
    65
 73
     0
 40
0.0
  0
ENDTAB
  0
TABLE
  2
LAYER
 70
     1
  0
LAYER
  2
0
 70
     0
 62
     7
  6
CONTINUOUS
  0
ENDTAB
  0
TABLE
  2
STYLE
 70
     1
  0
STYLE
  2
STANDARD
 70
     0
 40
0.0
 41
1.0
 50
0.0
 71
     0
 42
0.2
  3
txt
  4

  0
ENDTAB
  0
TABLE
  2
VIEW
 70
     0
  0
ENDTAB
  0
TABLE
  2
UCS
 70
     0
  0
ENDTAB
  0
TABLE
  2
APPID
 70
     1
  0
APPID
  2
ADXF
 70
    64
  0
ENDTAB
  0
TABLE
  2
DIMSTYLE
 70
     0
  0
ENDTAB
  0
ENDSEC
  0
SECTION
  2
BLOCKS
  0
ENDSEC
0
SECTION
2
ENTITIES
0
POLYLINE
8
0
66
 1
70
1
0
VERTEX
8
0
10
0.000000
20
452.007500
0
VERTEX
8
0
10
0.000000
20
469.230000
0
VERTEX
8
0
10
0.000000
20
577.732500
0
VERTEX
8
0
10
0.000000
20
686.232500
0
VERTEX
8
0
10
0.000000
20
698.805000
0
VERTEX
8
0
10
24.997500
20
694.355000
0
VERTEX
8
0
10
49.995000
20
698.805000
0
VERTEX
8
0
10
53.395000
20
699.412500
0
VERTEX
8
0
10
84.392500
20
705.022500
0
VERTEX
8
0
10
114.277500
20
710.615000
0
VERTEX
8
0
10
140.662500
20
715.757500
0
VERTEX
8
0
10
167.455000
20
721.120000
0
VERTEX
8
0
10
193.410000
20
726.385000
0
VERTEX
8
0
10
199.625000
20
727.642500
0
VERTEX
8
0
10
202.270000
20
721.880000
0
VERTEX
8
0
10
204.517500
20
716.980000
0
VERTEX
8
0
10
206.730000
20
712.457500
0
VERTEX
8
0
10
209.115000
20
708.155000
0
VERTEX
8
0
10
210.260000
20
706.345000
0
VERTEX
8
0
10
211.435000
20
704.662500
0
VERTEX
8
0
10
214.090000
20
701.505000
0
VERTEX
8
0
10
216.997500
20
698.920000
0
VERTEX
8
0
10
218.987500
20
697.587500
0
VERTEX
8
0
10
221.387500
20
696.305000
0
VERTEX
8
0
10
223.985000
20
695.180000
0
VERTEX
8
0
10
226.805000
20
694.177500
0
VERTEX
8
0
10
233.005000
20
692.497500
0
VERTEX
8
0
10
239.765000
20
691.220000
0
VERTEX
8
0
10
246.817500
20
690.272500
0
VERTEX
8
0
10
253.787500
20
689.582500
0
VERTEX
8
0
10
269.640000
20
688.477500
0
VERTEX
8
0
10
285.877500
20
687.740000
0
VERTEX
8
0
10
301.717500
20
687.237500
0
VERTEX
8
0
10
319.100000
20
686.787500
0
VERTEX
8
0
10
336.212500
20
686.390000
0
VERTEX
8
0
10
353.300000
20
686.010000
0
VERTEX
8
0
10
407.227500
20
684.785000
0
VERTEX
8
0
10
461.272500
20
683.520000
0
VERTEX
8
0
10
515.187500
20
682.235000
0
VERTEX
8
0
10
531.997500
20
681.835000
0
VERTEX
8
0
10
531.997500
20
674.237500
0
VERTEX
8
0
10
531.997500
20
554.237500
0
VERTEX
8
0
10
531.997500
20
434.235000
0
VERTEX
8
0
10
531.997500
20
426.237500
0
VERTEX
8
0
10
514.997500
20
426.237500
0
VERTEX
8
0
10
497.997500
20
426.237500
0
VERTEX
8
0
10
452.500000
20
426.237500
0
VERTEX
8
0
10
450.000000
20
421.237500
0
VERTEX
8
0
10
447.502500
20
426.237500
0
VERTEX
8
0
10
319.997500
20
426.235000
0
VERTEX
8
0
10
304.502500
20
426.235000
0
VERTEX
8
0
10
302.002500
20
421.235000
0
VERTEX
8
0
10
299.505000
20
426.235000
0
VERTEX
8
0
10
138.092500
20
426.235000
0
VERTEX
8
0
10
136.515000
20
421.730000
0
VERTEX
8
0
10
122.357500
20
426.685000
0
VERTEX
8
0
10
72.357500
20
444.185000
0
VERTEX
8
0
10
71.912500
20
444.340000
0
VERTEX
8
0
10
71.202500
20
449.885000
0
VERTEX
8
0
10
67.195000
20
445.990000
0
VERTEX
8
0
10
49.995000
20
452.007500
0
VERTEX
8
0
10
24.997500
20
460.757500
0
VERTEX
8
0
10
0.000000
20
452.007500
0
SEQEND
8
1
0
POLYLINE
8
0
66
 1
70
1
0
VERTEX
8
0
10
11.987500
20
375.535000
0
VERTEX
8
0
10
36.985000
20
366.785000
0
VERTEX
8
0
10
61.982500
20
375.535000
0
VERTEX
8
0
10
79.182500
20
381.550000
0
VERTEX
8
0
10
83.190000
20
377.655000
0
VERTEX
8
0
10
83.900000
20
383.197500
0
VERTEX
8
0
10
84.345000
20
383.357500
0
VERTEX
8
0
10
134.342500
20
400.857500
0
VERTEX
8
0
10
148.500000
20
405.812500
0
VERTEX
8
0
10
150.077500
20
401.307500
0
VERTEX
8
0
10
311.490000
20
401.307500
0
VERTEX
8
0
10
313.987500
20
406.307500
0
VERTEX
8
0
10
316.487500
20
401.307500
0
VERTEX
8
0
10
331.982500
20
401.307500
0
VERTEX
8
0
10
459.490000
20
401.310000
0
VERTEX
8
0
10
461.987500
20
406.307500
0
VERTEX
8
0
10
464.487500
20
401.310000
0
VERTEX
8
0
10
509.985000
20
401.310000
0
VERTEX
8
0
10
526.985000
20
401.310000
0
VERTEX
8
0
10
543.982500
20
401.310000
0
VERTEX
8
0
10
543.985000
20
393.312500
0
VERTEX
8
0
10
543.985000
20
273.310000
0
VERTEX
8
0
10
543.985000
20
153.310000
0
VERTEX
8
0
10
543.985000
20
145.712500
0
VERTEX
8
0
10
527.175000
20
145.312500
0
VERTEX
8
0
10
473.260000
20
144.027500
0
VERTEX
8
0
10
419.215000
20
142.760000
0
VERTEX
8
0
10
365.287500
20
141.532500
0
VERTEX
8
0
10
348.200000
20
141.152500
0
VERTEX
8
0
10
331.090000
20
140.755000
0
VERTEX
8
0
10
313.707500
20
140.305000
0
VERTEX
8
0
10
297.867500
20
139.802500
0
VERTEX
8
0
10
281.630000
20
139.065000
0
VERTEX
8
0
10
265.777500
20
137.960000
0
VERTEX
8
0
10
258.807500
20
137.270000
0
VERTEX
8
0
10
251.755000
20
136.322500
0
VERTEX
8
0
10
244.995000
20
135.045000
0
VERTEX
8
0
10
238.795000
20
133.365000
0
VERTEX
8
0
10
235.975000
20
132.362500
0
VERTEX
8
0
10
233.377500
20
131.237500
0
VERTEX
8
0
10
230.977500
20
129.955000
0
VERTEX
8
0
10
228.987500
20
128.622500
0
VERTEX
8
0
10
226.080000
20
126.037500
0
VERTEX
8
0
10
223.425000
20
122.880000
0
VERTEX
8
0
10
222.250000
20
121.197500
0
VERTEX
8
0
10
221.105000
20
119.387500
0
VERTEX
8
0
10
218.720000
20
115.085000
0
VERTEX
8
0
10
216.507500
20
110.562500
0
VERTEX
8
0
10
214.260000
20
105.662500
0
VERTEX
8
0
10
211.615000
20
99.900000
0
VERTEX
8
0
10
205.400000
20
101.157500
0
VERTEX
8
0
10
179.445000
20
106.422500
0
VERTEX
8
0
10
152.650000
20
111.785000
0
VERTEX
8
0
10
126.265000
20
116.927500
0
VERTEX
8
0
10
96.380000
20
122.520000
0
VERTEX
8
0
10
65.382500
20
128.130000
0
VERTEX
8
0
10
61.982500
20
128.737500
0
VERTEX
8
0
10
36.985000
20
133.187500
0
VERTEX
8
0
10
11.987500
20
128.737500
0
VERTEX
8
0
10
11.987500
20
141.310000
0
VERTEX
8
0
10
11.987500
20
249.810000
0
VERTEX
8
0
10
11.987500
20
358.312500
0
VERTEX
8
0
10
11.987500
20
375.535000
0
SEQEND
8
1
0
POLYLINE
8
0
66
 1
70
1
0
VERTEX
8
0
10
1291.907500
20
1566.145000
0
VERTEX
8
0
10
1291.907500
20
1514.682500
0
VERTEX
8
0
10
1291.907500
20
1460.595000
0
VERTEX
8
0
10
1291.907500
20
1451.597500
0
VERTEX
8
0
10
1266.907500
20
1451.597500
0
VERTEX
8
0
10
1255.407500
20
1451.597500
0
VERTEX
8
0
10
1251.907500
20
1455.595000
0
VERTEX
8
0
10
1248.410000
20
1451.597500
0
VERTEX
8
0
10
1241.907500
20
1451.597500
0
VERTEX
8
0
10
1156.910000
20
1451.597500
0
VERTEX
8
0
10
1105.410000
20
1451.595000
0
VERTEX
8
0
10
1101.910000
20
1455.592500
0
VERTEX
8
0
10
1098.412500
20
1451.595000
0
VERTEX
8
0
10
1046.912500
20
1451.595000
0
VERTEX
8
0
10
1040.630000
20
1451.595000
0
VERTEX
8
0
10
1038.317500
20
1455.485000
0
VERTEX
8
0
10
1036.537500
20
1458.482500
0
VERTEX
8
0
10
1034.805000
20
1461.262500
0
VERTEX
8
0
10
1033.132500
20
1463.702500
0
VERTEX
8
0
10
1030.875000
20
1466.575000
0
VERTEX
8
0
10
1028.377500
20
1469.330000
0
VERTEX
8
0
10
1025.875000
20
1471.767500
0
VERTEX
8
0
10
1017.485000
20
1478.522500
0
VERTEX
8
0
10
1008.270000
20
1485.267500
0
VERTEX
8
0
10
998.810000
20
1493.047500
0
VERTEX
8
0
10
994.340000
20
1497.822500
0
VERTEX
8
0
10
990.382500
20
1502.717500
0
VERTEX
8
0
10
986.817500
20
1507.800000
0
VERTEX
8
0
10
983.490000
20
1513.240000
0
VERTEX
8
0
10
978.050000
20
1524.147500
0
VERTEX
8
0
10
975.522500
20
1530.697500
0
VERTEX
8
0
10
973.435000
20
1537.170000
0
VERTEX
8
0
10
971.697500
20
1543.805000
0
VERTEX
8
0
10
970.345000
20
1550.450000
0
VERTEX
8
0
10
969.352500
20
1557.207500
0
VERTEX
8
0
10
968.737500
20
1564.022500
0
VERTEX
8
0
10
968.502500
20
1570.752500
0
VERTEX
8
0
10
968.522500
20
1574.222500
0
VERTEX
8
0
10
968.650000
20
1577.785000
0
VERTEX
8
0
10
969.172500
20
1584.535000
0
VERTEX
8
0
10
970.087500
20
1591.327500
0
VERTEX
8
0
10
971.410000
20
1598.127500
0
VERTEX
8
0
10
973.187500
20
1605.095000
0
VERTEX
8
0
10
977.017500
20
1615.105000
0
VERTEX
8
0
10
981.665000
20
1624.535000
0
VERTEX
8
0
10
984.425000
20
1629.237500
0
VERTEX
8
0
10
987.335000
20
1633.662500
0
VERTEX
8
0
10
990.477500
20
1637.932500
0
VERTEX
8
0
10
992.152500
20
1640.022500
0
VERTEX
8
0
10
993.930000
20
1642.117500
0
VERTEX
8
0
10
997.510000
20
1645.967500
0
VERTEX
8
0
10
1001.370000
20
1649.632500
0
VERTEX
8
0
10
1005.457500
20
1653.040000
0
VERTEX
8
0
10
1009.930000
20
1656.267500
0
VERTEX
8
0
10
1016.025000
20
1659.702500
0
VERTEX
8
0
10
1022.262500
20
1662.520000
0
VERTEX
8
0
10
1028.710000
20
1664.820000
0
VERTEX
8
0
10
1035.287500
20
1666.620000
0
VERTEX
8
0
10
1041.957500
20
1667.960000
0
VERTEX
8
0
10
1048.767500
20
1668.877500
0
VERTEX
8
0
10
1055.492500
20
1669.385000
0
VERTEX
8
0
10
1058.977500
20
1669.502500
0
VERTEX
8
0
10
1062.440000
20
1669.530000
0
VERTEX
8
0
10
1069.227500
20
1669.327500
0
VERTEX
8
0
10
1075.990000
20
1668.802500
0
VERTEX
8
0
10
1082.752500
20
1667.972500
0
VERTEX
8
0
10
1089.505000
20
1666.847500
0
VERTEX
8
0
10
1102.117500
20
1663.650000
0
VERTEX
8
0
10
1114.182500
20
1659.650000
0
VERTEX
8
0
10
1125.842500
20
1655.007500
0
VERTEX
8
0
10
1137.120000
20
1649.910000
0
VERTEX
8
0
10
1158.820000
20
1639.005000
0
VERTEX
8
0
10
1213.562500
20
1609.772500
0
VERTEX
8
0
10
1268.122500
20
1579.565000
0
VERTEX
8
0
10
1271.822500
20
1577.477500
0
VERTEX
8
0
10
1291.907500
20
1566.145000
0
SEQEND
8
1
0
POLYLINE
8
0
66
 1
70
1
0
VERTEX
8
0
10
323.407500
20
1311.605000
0
VERTEX
8
0
10
303.322500
20
1300.272500
0
VERTEX
8
0
10
299.622500
20
1298.185000
0
VERTEX
8
0
10
245.062500
20
1267.977500
0
VERTEX
8
0
10
190.320000
20
1238.742500
0
VERTEX
8
0
10
168.620000
20
1227.835000
0
VERTEX
8
0
10
157.345000
20
1222.737500
0
VERTEX
8
0
10
145.685000
20
1218.095000
0
VERTEX
8
0
10
133.620000
20
1214.095000
0
VERTEX
8
0
10
121.007500
20
1210.897500
0
VERTEX
8
0
10
114.255000
20
1209.772500
0
VERTEX
8
0
10
107.492500
20
1208.942500
0
VERTEX
8
0
10
100.730000
20
1208.417500
0
VERTEX
8
0
10
93.942500
20
1208.215000
0
VERTEX
8
0
10
90.480000
20
1208.242500
0
VERTEX
8
0
10
86.995000
20
1208.360000
0
VERTEX
8
0
10
80.270000
20
1208.867500
0
VERTEX
8
0
10
73.460000
20
1209.785000
0
VERTEX
8
0
10
66.790000
20
1211.125000
0
VERTEX
8
0
10
60.212500
20
1212.925000
0
VERTEX
8
0
10
53.765000
20
1215.225000
0
VERTEX
8
0
10
47.527500
20
1218.042500
0
VERTEX
8
0
10
41.432500
20
1221.477500
0
VERTEX
8
0
10
36.960000
20
1224.705000
0
VERTEX
8
0
10
32.872500
20
1228.112500
0
VERTEX
8
0
10
29.012500
20
1231.777500
0
VERTEX
8
0
10
25.432500
20
1235.627500
0
VERTEX
8
0
10
23.655000
20
1237.722500
0
VERTEX
8
0
10
21.980000
20
1239.812500
0
VERTEX
8
0
10
18.837500
20
1244.082500
0
VERTEX
8
0
10
15.927500
20
1248.507500
0
VERTEX
8
0
10
13.167500
20
1253.210000
0
VERTEX
8
0
10
8.520000
20
1262.640000
0
VERTEX
8
0
10
4.690000
20
1272.650000
0
VERTEX
8
0
10
2.910000
20
1279.617500
0
VERTEX
8
0
10
1.587500
20
1286.417500
0
VERTEX
8
0
10
0.672500
20
1293.210000
0
VERTEX
8
0
10
0.150000
20
1299.960000
0
VERTEX
8
0
10
0.022500
20
1303.522500
0
VERTEX
8
0
10
0.002500
20
1306.992500
0
VERTEX
8
0
10
0.237500
20
1313.722500
0
VERTEX
8
0
10
0.852500
20
1320.537500
0
VERTEX
8
0
10
1.845000
20
1327.295000
0
VERTEX
8
0
10
3.197500
20
1333.940000
0
VERTEX
8
0
10
4.935000
20
1340.575000
0
VERTEX
8
0
10
7.022500
20
1347.047500
0
VERTEX
8
0
10
9.550000
20
1353.597500
0
VERTEX
8
0
10
14.987500
20
1364.505000
0
VERTEX
8
0
10
18.315000
20
1369.945000
0
VERTEX
8
0
10
21.880000
20
1375.027500
0
VERTEX
8
0
10
25.837500
20
1379.922500
0
VERTEX
8
0
10
30.307500
20
1384.697500
0
VERTEX
8
0
10
39.767500
20
1392.477500
0
VERTEX
8
0
10
48.982500
20
1399.222500
0
VERTEX
8
0
10
57.372500
20
1405.977500
0
VERTEX
8
0
10
59.875000
20
1408.415000
0
VERTEX
8
0
10
62.372500
20
1411.170000
0
VERTEX
8
0
10
64.630000
20
1414.042500
0
VERTEX
8
0
10
66.302500
20
1416.482500
0
VERTEX
8
0
10
68.035000
20
1419.262500
0
VERTEX
8
0
10
69.815000
20
1422.260000
0
VERTEX
8
0
10
72.127500
20
1426.150000
0
VERTEX
8
0
10
78.410000
20
1426.150000
0
VERTEX
8
0
10
129.910000
20
1426.150000
0
VERTEX
8
0
10
133.407500
20
1422.152500
0
VERTEX
8
0
10
136.907500
20
1426.150000
0
VERTEX
8
0
10
188.410000
20
1426.150000
0
VERTEX
8
0
10
273.405000
20
1426.150000
0
VERTEX
8
0
10
279.907500
20
1426.150000
0
VERTEX
8
0
10
283.405000
20
1422.152500
0
VERTEX
8
0
10
286.905000
20
1426.150000
0
VERTEX
8
0
10
298.405000
20
1426.150000
0
VERTEX
8
0
10
323.405000
20
1426.150000
0
VERTEX
8
0
10
323.405000
20
1417.155000
0
VERTEX
8
0
10
323.405000
20
1363.067500
0
VERTEX
8
0
10
323.407500
20
1311.605000
0
SEQEND
8
1
0
POLYLINE
8
0
66
 1
70
1
0
VERTEX
8
0
10
1320.092500
20
1333.232500
0
VERTEX
8
0
10
1320.092500
20
1281.770000
0
VERTEX
8
0
10
1320.092500
20
1227.682500
0
VERTEX
8
0
10
1320.092500
20
1218.685000
0
VERTEX
8
0
10
1295.092500
20
1218.685000
0
VERTEX
8
0
10
1283.592500
20
1218.685000
0
VERTEX
8
0
10
1280.092500
20
1222.682500
0
VERTEX
8
0
10
1276.595000
20
1218.685000
0
VERTEX
8
0
10
1270.092500
20
1218.685000
0
VERTEX
8
0
10
1185.095000
20
1218.685000
0
VERTEX
8
0
10
1133.595000
20
1218.682500
0
VERTEX
8
0
10
1130.095000
20
1222.680000
0
VERTEX
8
0
10
1126.597500
20
1218.682500
0
VERTEX
8
0
10
1075.097500
20
1218.682500
0
VERTEX
8
0
10
1068.815000
20
1218.682500
0
VERTEX
8
0
10
1066.502500
20
1222.572500
0
VERTEX
8
0
10
1064.722500
20
1225.570000
0
VERTEX
8
0
10
1062.990000
20
1228.350000
0
VERTEX
8
0
10
1061.317500
20
1230.790000
0
VERTEX
8
0
10
1059.060000
20
1233.662500
0
VERTEX
8
0
10
1056.562500
20
1236.417500
0
VERTEX
8
0
10
1054.060000
20
1238.855000
0
VERTEX
8
0
10
1045.670000
20
1245.610000
0
VERTEX
8
0
10
1036.455000
20
1252.355000
0
VERTEX
8
0
10
1026.995000
20
1260.135000
0
VERTEX
8
0
10
1022.525000
20
1264.910000
0
VERTEX
8
0
10
1018.567500
20
1269.805000
0
VERTEX
8
0
10
1015.002500
20
1274.887500
0
VERTEX
8
0
10
1011.675000
20
1280.327500
0
VERTEX
8
0
10
1006.235000
20
1291.235000
0
VERTEX
8
0
10
1003.707500
20
1297.785000
0
VERTEX
8
0
10
1001.620000
20
1304.257500
0
VERTEX
8
0
10
999.882500
20
1310.892500
0
VERTEX
8
0
10
998.530000
20
1317.537500
0
VERTEX
8
0
10
997.537500
20
1324.295000
0
VERTEX
8
0
10
996.922500
20
1331.110000
0
VERTEX
8
0
10
996.687500
20
1337.840000
0
VERTEX
8
0
10
996.707500
20
1341.310000
0
VERTEX
8
0
10
996.835000
20
1344.872500
0
VERTEX
8
0
10
997.357500
20
1351.622500
0
VERTEX
8
0
10
998.272500
20
1358.415000
0
VERTEX
8
0
10
999.595000
20
1365.215000
0
VERTEX
8
0
10
1001.372500
20
1372.182500
0
VERTEX
8
0
10
1005.202500
20
1382.192500
0
VERTEX
8
0
10
1009.850000
20
1391.622500
0
VERTEX
8
0
10
1012.610000
20
1396.325000
0
VERTEX
8
0
10
1015.520000
20
1400.750000
0
VERTEX
8
0
10
1018.662500
20
1405.020000
0
VERTEX
8
0
10
1020.337500
20
1407.110000
0
VERTEX
8
0
10
1022.115000
20
1409.205000
0
VERTEX
8
0
10
1025.695000
20
1413.055000
0
VERTEX
8
0
10
1029.555000
20
1416.720000
0
VERTEX
8
0
10
1033.642500
20
1420.127500
0
VERTEX
8
0
10
1038.115000
20
1423.355000
0
VERTEX
8
0
10
1044.210000
20
1426.790000
0
VERTEX
8
0
10
1050.447500
20
1429.607500
0
VERTEX
8
0
10
1056.895000
20
1431.907500
0
VERTEX
8
0
10
1063.472500
20
1433.707500
0
VERTEX
8
0
10
1070.142500
20
1435.047500
0
VERTEX
8
0
10
1076.952500
20
1435.965000
0
VERTEX
8
0
10
1083.677500
20
1436.472500
0
VERTEX
8
0
10
1087.162500
20
1436.590000
0
VERTEX
8
0
10
1090.625000
20
1436.617500
0
VERTEX
8
0
10
1097.412500
20
1436.415000
0
VERTEX
8
0
10
1104.175000
20
1435.890000
0
VERTEX
8
0
10
1110.937500
20
1435.060000
0
VERTEX
8
0
10
1117.690000
20
1433.935000
0
VERTEX
8
0
10
1130.302500
20
1430.737500
0
VERTEX
8
0
10
1142.367500
20
1426.737500
0
VERTEX
8
0
10
1154.027500
20
1422.095000
0
VERTEX
8
0
10
1165.305000
20
1416.997500
0
VERTEX
8
0
10
1187.005000
20
1406.092500
0
VERTEX
8
0
10
1241.747500
20
1376.860000
0
VERTEX
8
0
10
1296.307500
20
1346.652500
0
VERTEX
8
0
10
1300.007500
20
1344.565000
0
VERTEX
8
0
10
1320.092500
20
1333.232500
0
SEQEND
8
1
0
POLYLINE
8
0
66
 1
70
1
0
VERTEX
8
0
10
323.407500
20
1554.990000
0
VERTEX
8
0
10
303.322500
20
1543.657500
0
VERTEX
8
0
10
299.622500
20
1541.570000
0
VERTEX
8
0
10
245.062500
20
1511.362500
0
VERTEX
8
0
10
190.320000
20
1482.127500
0
VERTEX
8
0
10
168.620000
20
1471.220000
0
VERTEX
8
0
10
157.345000
20
1466.122500
0
VERTEX
8
0
10
145.685000
20
1461.480000
0
VERTEX
8
0
10
133.620000
20
1457.480000
0
VERTEX
8
0
10
121.007500
20
1454.282500
0
VERTEX
8
0
10
114.255000
20
1453.157500
0
VERTEX
8
0
10
107.492500
20
1452.327500
0
VERTEX
8
0
10
100.730000
20
1451.802500
0
VERTEX
8
0
10
93.942500
20
1451.600000
0
VERTEX
8
0
10
90.480000
20
1451.627500
0
VERTEX
8
0
10
86.995000
20
1451.745000
0
VERTEX
8
0
10
80.270000
20
1452.252500
0
VERTEX
8
0
10
73.460000
20
1453.170000
0
VERTEX
8
0
10
66.790000
20
1454.510000
0
VERTEX
8
0
10
60.212500
20
1456.310000
0
VERTEX
8
0
10
53.765000
20
1458.610000
0
VERTEX
8
0
10
47.527500
20
1461.427500
0
VERTEX
8
0
10
41.432500
20
1464.862500
0
VERTEX
8
0
10
36.960000
20
1468.090000
0
VERTEX
8
0
10
32.872500
20
1471.497500
0
VERTEX
8
0
10
29.012500
20
1475.162500
0
VERTEX
8
0
10
25.432500
20
1479.012500
0
VERTEX
8
0
10
23.655000
20
1481.107500
0
VERTEX
8
0
10
21.980000
20
1483.197500
0
VERTEX
8
0
10
18.837500
20
1487.467500
0
VERTEX
8
0
10
15.927500
20
1491.892500
0
VERTEX
8
0
10
13.167500
20
1496.595000
0
VERTEX
8
0
10
8.520000
20
1506.025000
0
VERTEX
8
0
10
4.690000
20
1516.035000
0
VERTEX
8
0
10
2.910000
20
1523.002500
0
VERTEX
8
0
10
1.587500
20
1529.802500
0
VERTEX
8
0
10
0.672500
20
1536.595000
0
VERTEX
8
0
10
0.150000
20
1543.345000
0
VERTEX
8
0
10
0.022500
20
1546.907500
0
VERTEX
8
0
10
0.002500
20
1550.377500
0
VERTEX
8
0
10
0.237500
20
1557.107500
0
VERTEX
8
0
10
0.852500
20
1563.922500
0
VERTEX
8
0
10
1.845000
20
1570.680000
0
VERTEX
8
0
10
3.197500
20
1577.325000
0
VERTEX
8
0
10
4.935000
20
1583.960000
0
VERTEX
8
0
10
7.022500
20
1590.432500
0
VERTEX
8
0
10
9.550000
20
1596.982500
0
VERTEX
8
0
10
14.987500
20
1607.890000
0
VERTEX
8
0
10
18.315000
20
1613.330000
0
VERTEX
8
0
10
21.880000
20
1618.412500
0
VERTEX
8
0
10
25.837500
20
1623.307500
0
VERTEX
8
0
10
30.307500
20
1628.082500
0
VERTEX
8
0
10
39.767500
20
1635.862500
0
VERTEX
8
0
10
48.982500
20
1642.607500
0
VERTEX
8
0
10
57.372500
20
1649.362500
0
VERTEX
8
0
10
59.875000
20
1651.800000
0
VERTEX
8
0
10
62.372500
20
1654.555000
0
VERTEX
8
0
10
64.630000
20
1657.427500
0
VERTEX
8
0
10
66.302500
20
1659.867500
0
VERTEX
8
0
10
68.035000
20
1662.647500
0
VERTEX
8
0
10
69.815000
20
1665.645000
0
VERTEX
8
0
10
72.127500
20
1669.535000
0
VERTEX
8
0
10
78.410000
20
1669.535000
0
VERTEX
8
0
10
129.910000
20
1669.535000
0
VERTEX
8
0
10
133.407500
20
1665.537500
0
VERTEX
8
0
10
136.907500
20
1669.535000
0
VERTEX
8
0
10
188.410000
20
1669.535000
0
VERTEX
8
0
10
273.405000
20
1669.535000
0
VERTEX
8
0
10
279.907500
20
1669.535000
0
VERTEX
8
0
10
283.405000
20
1665.537500
0
VERTEX
8
0
10
286.905000
20
1669.535000
0
VERTEX
8
0
10
298.405000
20
1669.535000
0
VERTEX
8
0
10
323.405000
20
1669.535000
0
VERTEX
8
0
10
323.405000
20
1660.540000
0
VERTEX
8
0
10
323.405000
20
1606.452500
0
VERTEX
8
0
10
323.407500
20
1554.990000
0
SEQEND
8
1
0
POLYLINE
8
0
66
 1
70
1
0
VERTEX
8
0
10
984.937500
20
1305.050000
0
VERTEX
8
0
10
988.307500
20
1296.090000
0
VERTEX
8
0
10
993.145000
20
1283.222500
0
VERTEX
8
0
10
998.227500
20
1269.970000
0
VERTEX
8
0
10
1003.302500
20
1257.255000
0
VERTEX
8
0
10
1008.292500
20
1245.610000
0
VERTEX
8
0
10
1010.960000
20
1240.037500
0
VERTEX
8
0
10
1013.777500
20
1234.760000
0
VERTEX
8
0
10
1016.832500
20
1229.720000
0
VERTEX
8
0
10
1020.130000
20
1225.017500
0
VERTEX
8
0
10
1023.120000
20
1221.460000
0
VERTEX
8
0
10
1026.432500
20
1218.010000
0
VERTEX
8
0
10
1029.910000
20
1214.852500
0
VERTEX
8
0
10
1033.460000
20
1212.075000
0
VERTEX
8
0
10
1041.520000
20
1207.172500
0
VERTEX
8
0
10
1045.805000
20
1205.367500
0
VERTEX
8
0
10
1050.635000
20
1203.742500
0
VERTEX
8
0
10
1055.755000
20
1202.320000
0
VERTEX
8
0
10
1061.310000
20
1201.022500
0
VERTEX
8
0
10
1067.130000
20
1199.855000
0
VERTEX
8
0
10
1072.802500
20
1198.872500
0
VERTEX
8
0
10
1085.300000
20
1197.142500
0
VERTEX
8
0
10
1098.010000
20
1195.770000
0
VERTEX
8
0
10
1110.877500
20
1194.570000
0
VERTEX
8
0
10
1110.910000
20
1194.567500
0
VERTEX
8
0
10
1230.077500
20
1183.067500
0
VERTEX
8
0
10
1349.242500
20
1171.565000
0
VERTEX
8
0
10
1366.337500
20
1169.915000
0
VERTEX
8
0
10
1365.172500
20
1159.687500
0
VERTEX
8
0
10
1347.672500
20
1006.197500
0
VERTEX
8
0
10
1335.130000
20
896.170000
0
VERTEX
8
0
10
1330.760000
20
893.145000
0
VERTEX
8
0
10
1334.337500
20
889.217500
0
VERTEX
8
0
10
1330.172500
20
852.695000
0
VERTEX
8
0
10
1329.255000
20
844.620000
0
VERTEX
8
0
10
1313.282500
20
844.620000
0
VERTEX
8
0
10
1118.282500
20
844.622500
0
VERTEX
8
0
10
924.980000
20
844.625000
0
VERTEX
8
0
10
900.180000
20
835.947500
0
VERTEX
8
0
10
884.755000
20
830.550000
0
VERTEX
8
0
10
881.110000
20
821.240000
0
VERTEX
8
0
10
866.830000
20
826.832500
0
VERTEX
8
0
10
848.820000
20
833.885000
0
VERTEX
8
0
10
843.232500
20
836.075000
0
VERTEX
8
0
10
823.560000
20
843.777500
0
VERTEX
8
0
10
804.312500
20
835.077500
0
VERTEX
8
0
10
798.845000
20
832.607500
0
VERTEX
8
0
10
798.292500
20
853.985000
0
VERTEX
8
0
10
793.292500
20
1047.980000
0
VERTEX
8
0
10
788.292500
20
1241.972500
0
VERTEX
8
0
10
787.867500
20
1258.635000
0
VERTEX
8
0
10
813.020000
20
1252.927500
0
VERTEX
8
0
10
837.845000
20
1259.922500
0
VERTEX
8
0
10
844.595000
20
1261.827500
0
VERTEX
8
0
10
878.420000
20
1271.562500
0
VERTEX
8
0
10
912.365000
20
1281.735000
0
VERTEX
8
0
10
937.512500
20
1289.632500
0
VERTEX
8
0
10
963.135000
20
1297.910000
0
VERTEX
8
0
10
975.840000
20
1302.072500
0
VERTEX
8
0
10
984.937500
20
1305.050000
0
SEQEND
8
1
0
POLYLINE
8
0
66
 1
70
1
0
VERTEX
8
0
10
599.852500
20
1185.107500
0
VERTEX
8
0
10
590.755000
20
1188.085000
0
VERTEX
8
0
10
578.050000
20
1192.247500
0
VERTEX
8
0
10
552.427500
20
1200.525000
0
VERTEX
8
0
10
527.280000
20
1208.422500
0
VERTEX
8
0
10
493.335000
20
1218.595000
0
VERTEX
8
0
10
459.510000
20
1228.330000
0
VERTEX
8
0
10
452.760000
20
1230.235000
0
VERTEX
8
0
10
427.935000
20
1237.230000
0
VERTEX
8
0
10
402.780000
20
1231.522500
0
VERTEX
8
0
10
403.207500
20
1248.185000
0
VERTEX
8
0
10
408.205000
20
1442.177500
0
VERTEX
8
0
10
413.202500
20
1636.172500
0
VERTEX
8
0
10
413.755000
20
1657.550000
0
VERTEX
8
0
10
419.222500
20
1655.080000
0
VERTEX
8
0
10
438.470000
20
1646.380000
0
VERTEX
8
0
10
458.142500
20
1654.082500
0
VERTEX
8
0
10
463.730000
20
1656.272500
0
VERTEX
8
0
10
481.740000
20
1663.325000
0
VERTEX
8
0
10
496.020000
20
1668.917500
0
VERTEX
8
0
10
499.665000
20
1659.607500
0
VERTEX
8
0
10
515.090000
20
1654.210000
0
VERTEX
8
0
10
539.890000
20
1645.532500
0
VERTEX
8
0
10
733.192500
20
1645.535000
0
VERTEX
8
0
10
928.192500
20
1645.537500
0
VERTEX
8
0
10
944.165000
20
1645.537500
0
VERTEX
8
0
10
945.082500
20
1637.462500
0
VERTEX
8
0
10
949.250000
20
1600.935000
0
VERTEX
8
0
10
945.670000
20
1597.010000
0
VERTEX
8
0
10
950.042500
20
1593.982500
0
VERTEX
8
0
10
962.585000
20
1483.960000
0
VERTEX
8
0
10
980.087500
20
1330.470000
0
VERTEX
8
0
10
981.252500
20
1320.242500
0
VERTEX
8
0
10
964.157500
20
1318.592500
0
VERTEX
8
0
10
844.990000
20
1307.090000
0
VERTEX
8
0
10
725.825000
20
1295.590000
0
VERTEX
8
0
10
725.792500
20
1295.587500
0
VERTEX
8
0
10
712.925000
20
1294.387500
0
VERTEX
8
0
10
700.215000
20
1293.015000
0
VERTEX
8
0
10
687.717500
20
1291.285000
0
VERTEX
8
0
10
682.045000
20
1290.302500
0
VERTEX
8
0
10
676.225000
20
1289.135000
0
VERTEX
8
0
10
670.670000
20
1287.837500
0
VERTEX
8
0
10
665.550000
20
1286.415000
0
VERTEX
8
0
10
660.720000
20
1284.790000
0
VERTEX
8
0
10
656.435000
20
1282.985000
0
VERTEX
8
0
10
648.375000
20
1278.082500
0
VERTEX
8
0
10
644.825000
20
1275.305000
0
VERTEX
8
0
10
641.347500
20
1272.147500
0
VERTEX
8
0
10
638.035000
20
1268.697500
0
VERTEX
8
0
10
635.045000
20
1265.140000
0
VERTEX
8
0
10
631.747500
20
1260.437500
0
VERTEX
8
0
10
628.692500
20
1255.397500
0
VERTEX
8
0
10
625.875000
20
1250.120000
0
VERTEX
8
0
10
623.207500
20
1244.547500
0
VERTEX
8
0
10
618.217500
20
1232.902500
0
VERTEX
8
0
10
613.142500
20
1220.187500
0
VERTEX
8
0
10
608.060000
20
1206.935000
0
VERTEX
8
0
10
603.222500
20
1194.067500
0
VERTEX
8
0
10
599.852500
20
1185.107500
0
SEQEND
8
1
0
POLYLINE
8
0
66
 1
70
1
0
VERTEX
8
0
10
627.020000
20
966.180000
0
VERTEX
8
0
10
631.275000
20
962.690000
0
VERTEX
8
0
10
631.512500
20
959.497500
0
VERTEX
8
0
10
632.290000
20
952.610000
0
VERTEX
8
0
10
633.545000
20
946.125000
0
VERTEX
8
0
10
635.222500
20
940.645000
0
VERTEX
8
0
10
637.490000
20
935.267500
0
VERTEX
8
0
10
640.337500
20
929.960000
0
VERTEX
8
0
10
641.892500
20
927.470000
0
VERTEX
8
0
10
643.602500
20
924.957500
0
VERTEX
8
0
10
647.445000
20
919.965000
0
VERTEX
8
0
10
651.697500
20
915.170000
0
VERTEX
8
0
10
656.330000
20
910.572500
0
VERTEX
8
0
10
661.287500
20
906.200000
0
VERTEX
8
0
10
666.517500
20
902.057500
0
VERTEX
8
0
10
672.002500
20
898.132500
0
VERTEX
8
0
10
677.642500
20
894.482500
0
VERTEX
8
0
10
683.222500
20
891.200000
0
VERTEX
8
0
10
691.870000
20
887.060000
0
VERTEX
8
0
10
700.832500
20
883.360000
0
VERTEX
8
0
10
709.897500
20
880.095000
0
VERTEX
8
0
10
721.170000
20
876.555000
0
VERTEX
8
0
10
732.495000
20
873.432500
0
VERTEX
8
0
10
744.157500
20
870.562500
0
VERTEX
8
0
10
755.902500
20
867.927500
0
VERTEX
8
0
10
767.085000
20
865.617500
0
VERTEX
8
0
10
777.085000
20
863.552500
0
VERTEX
8
0
10
773.780000
20
853.890000
0
VERTEX
8
0
10
765.887500
20
830.832500
0
VERTEX
8
0
10
757.995000
20
807.775000
0
VERTEX
8
0
10
755.255000
20
799.772500
0
VERTEX
8
0
10
747.097500
20
802.012500
0
VERTEX
8
0
10
740.022500
20
803.955000
0
VERTEX
8
0
10
730.390000
20
806.457500
0
VERTEX
8
0
10
709.255000
20
811.242500
0
VERTEX
8
0
10
687.935000
20
815.097500
0
VERTEX
8
0
10
666.460000
20
818.035000
0
VERTEX
8
0
10
655.580000
20
819.082500
0
VERTEX
8
0
10
644.630000
20
819.805000
0
VERTEX
8
0
10
633.605000
20
820.105000
0
VERTEX
8
0
10
628.210000
20
820.070000
0
VERTEX
8
0
10
622.877500
20
819.897500
0
VERTEX
8
0
10
611.990000
20
819.087500
0
VERTEX
8
0
10
601.252500
20
817.610000
0
VERTEX
8
0
10
594.737500
20
816.227500
0
VERTEX
8
0
10
588.110000
20
814.517500
0
VERTEX
8
0
10
581.612500
20
812.517500
0
VERTEX
8
0
10
575.182500
20
810.202500
0
VERTEX
8
0
10
569.005000
20
807.622500
0
VERTEX
8
0
10
562.970000
20
804.707500
0
VERTEX
8
0
10
557.082500
20
801.440000
0
VERTEX
8
0
10
554.442500
20
799.812500
0
VERTEX
8
0
10
551.737500
20
798.025000
0
VERTEX
8
0
10
546.490000
20
794.165000
0
VERTEX
8
0
10
541.700000
20
790.090000
0
VERTEX
8
0
10
537.257500
20
785.687500
0
VERTEX
8
0
10
533.367500
20
781.145000
0
VERTEX
8
0
10
529.940000
20
775.867500
0
VERTEX
8
0
10
528.450000
20
773.127500
0
VERTEX
8
0
10
523.267500
20
771.962500
0
VERTEX
8
0
10
525.317500
20
766.877500
0
VERTEX
8
0
10
523.995000
20
764.005000
0
VERTEX
8
0
10
520.082500
20
753.345000
0
VERTEX
8
0
10
517.422500
20
743.770000
0
VERTEX
8
0
10
515.520000
20
736.925000
0
VERTEX
8
0
10
508.425000
20
737.182500
0
VERTEX
8
0
10
454.112500
20
739.150000
0
VERTEX
8
0
10
400.560000
20
740.895000
0
VERTEX
8
0
10
346.600000
20
742.255000
0
VERTEX
8
0
10
287.597500
20
743.135000
0
VERTEX
8
0
10
228.770000
20
743.545000
0
VERTEX
8
0
10
169.877500
20
743.732500
0
VERTEX
8
0
10
121.515000
20
743.872500
0
VERTEX
8
0
10
73.280000
20
744.020000
0
VERTEX
8
0
10
50.000000
20
744.090000
0
VERTEX
8
0
10
25.000000
20
744.172500
0
VERTEX
8
0
10
0.000000
20
744.090000
0
VERTEX
8
0
10
0.000000
20
753.172500
0
VERTEX
8
0
10
0.000000
20
859.675000
0
VERTEX
8
0
10
0.000000
20
966.177500
0
VERTEX
8
0
10
0.000000
20
1072.680000
0
VERTEX
8
0
10
0.000000
20
1179.182500
0
VERTEX
8
0
10
0.000000
20
1188.265000
0
VERTEX
8
0
10
25.000000
20
1188.182500
0
VERTEX
8
0
10
50.000000
20
1188.265000
0
VERTEX
8
0
10
73.280000
20
1188.335000
0
VERTEX
8
0
10
121.515000
20
1188.482500
0
VERTEX
8
0
10
169.875000
20
1188.622500
0
VERTEX
8
0
10
228.767500
20
1188.810000
0
VERTEX
8
0
10
287.595000
20
1189.220000
0
VERTEX
8
0
10
346.597500
20
1190.100000
0
VERTEX
8
0
10
400.557500
20
1191.460000
0
VERTEX
8
0
10
454.110000
20
1193.205000
0
VERTEX
8
0
10
508.422500
20
1195.177500
0
VERTEX
8
0
10
515.517500
20
1195.432500
0
VERTEX
8
0
10
517.420000
20
1188.590000
0
VERTEX
8
0
10
520.082500
20
1179.015000
0
VERTEX
8
0
10
523.995000
20
1168.355000
0
VERTEX
8
0
10
525.317500
20
1165.477500
0
VERTEX
8
0
10
523.267500
20
1160.395000
0
VERTEX
8
0
10
528.452500
20
1159.227500
0
VERTEX
8
0
10
529.940000
20
1156.492500
0
VERTEX
8
0
10
533.367500
20
1151.215000
0
VERTEX
8
0
10
537.257500
20
1146.672500
0
VERTEX
8
0
10
541.700000
20
1142.270000
0
VERTEX
8
0
10
546.490000
20
1138.195000
0
VERTEX
8
0
10
551.737500
20
1134.335000
0
VERTEX
8
0
10
554.442500
20
1132.547500
0
VERTEX
8
0
10
557.082500
20
1130.920000
0
VERTEX
8
0
10
562.970000
20
1127.652500
0
VERTEX
8
0
10
569.005000
20
1124.737500
0
VERTEX
8
0
10
575.182500
20
1122.157500
0
VERTEX
8
0
10
581.612500
20
1119.842500
0
VERTEX
8
0
10
588.110000
20
1117.842500
0
VERTEX
8
0
10
594.737500
20
1116.132500
0
VERTEX
8
0
10
601.252500
20
1114.750000
0
VERTEX
8
0
10
611.990000
20
1113.272500
0
VERTEX
8
0
10
622.875000
20
1112.462500
0
VERTEX
8
0
10
628.207500
20
1112.290000
0
VERTEX
8
0
10
633.602500
20
1112.255000
0
VERTEX
8
0
10
644.627500
20
1112.555000
0
VERTEX
8
0
10
655.580000
20
1113.277500
0
VERTEX
8
0
10
666.460000
20
1114.325000
0
VERTEX
8
0
10
687.935000
20
1117.262500
0
VERTEX
8
0
10
709.255000
20
1121.117500
0
VERTEX
8
0
10
730.390000
20
1125.902500
0
VERTEX
8
0
10
740.022500
20
1128.405000
0
VERTEX
8
0
10
747.097500
20
1130.347500
0
VERTEX
8
0
10
755.255000
20
1132.587500
0
VERTEX
8
0
10
757.995000
20
1124.585000
0
VERTEX
8
0
10
765.887500
20
1101.527500
0
VERTEX
8
0
10
773.780000
20
1078.470000
0
VERTEX
8
0
10
777.085000
20
1068.807500
0
VERTEX
8
0
10
767.085000
20
1066.742500
0
VERTEX
8
0
10
755.902500
20
1064.432500
0
VERTEX
8
0
10
744.157500
20
1061.797500
0
VERTEX
8
0
10
732.495000
20
1058.927500
0
VERTEX
8
0
10
721.170000
20
1055.805000
0
VERTEX
8
0
10
709.897500
20
1052.265000
0
VERTEX
8
0
10
700.832500
20
1049.000000
0
VERTEX
8
0
10
691.870000
20
1045.300000
0
VERTEX
8
0
10
683.222500
20
1041.160000
0
VERTEX
8
0
10
677.642500
20
1037.877500
0
VERTEX
8
0
10
672.002500
20
1034.227500
0
VERTEX
8
0
10
666.517500
20
1030.302500
0
VERTEX
8
0
10
661.287500
20
1026.160000
0
VERTEX
8
0
10
656.330000
20
1021.787500
0
VERTEX
8
0
10
651.697500
20
1017.190000
0
VERTEX
8
0
10
647.445000
20
1012.395000
0
VERTEX
8
0
10
643.602500
20
1007.402500
0
VERTEX
8
0
10
641.892500
20
1004.890000
0
VERTEX
8
0
10
640.337500
20
1002.400000
0
VERTEX
8
0
10
637.490000
20
997.092500
0
VERTEX
8
0
10
635.222500
20
991.715000
0
VERTEX
8
0
10
633.545000
20
986.235000
0
VERTEX
8
0
10
632.290000
20
979.750000
0
VERTEX
8
0
10
631.512500
20
972.862500
0
VERTEX
8
0
10
631.275000
20
969.667500
0
SEQEND
8
1
0
POLYLINE
8
0
66
 1
70
1
0
VERTEX
8
0
10
1311.982500
20
455.262500
0
VERTEX
8
0
10
1315.955000
20
451.762500
0
VERTEX
8
0
10
1315.620000
20
412.620000
0
VERTEX
8
0
10
1315.860000
20
403.160000
0
VERTEX
8
0
10
1316.360000
20
394.147500
0
VERTEX
8
0
10
1317.377500
20
385.455000
0
VERTEX
8
0
10
1318.090000
20
381.650000
0
VERTEX
8
0
10
1319.025000
20
377.902500
0
VERTEX
8
0
10
1320.152500
20
374.447500
0
VERTEX
8
0
10
1321.510000
20
371.210000
0
VERTEX
8
0
10
1323.090000
20
368.257500
0
VERTEX
8
0
10
1324.945000
20
365.507500
0
VERTEX
8
0
10
1327.032500
20
363.017500
0
VERTEX
8
0
10
1329.487500
20
360.555000
0
VERTEX
8
0
10
1332.287500
20
358.090000
0
VERTEX
8
0
10
1335.397500
20
355.610000
0
VERTEX
8
0
10
1341.662500
20
350.990000
0
VERTEX
8
0
10
1346.760000
20
348.510000
0
VERTEX
8
0
10
1352.602500
20
345.667500
0
VERTEX
8
0
10
1359.730000
20
342.200000
0
VERTEX
8
0
10
1357.190000
20
334.692500
0
VERTEX
8
0
10
1349.375000
20
311.610000
0
VERTEX
8
0
10
1341.560000
20
288.527500
0
VERTEX
8
0
10
1338.490000
20
279.457500
0
VERTEX
8
0
10
1329.622500
20
283.085000
0
VERTEX
8
0
10
1327.075000
20
284.127500
0
VERTEX
8
0
10
1321.570000
20
286.332500
0
VERTEX
8
0
10
1319.500000
20
291.455000
0
VERTEX
8
0
10
1314.905000
20
288.392500
0
VERTEX
8
0
10
1306.340000
20
290.300000
0
VERTEX
8
0
10
1293.780000
20
292.992500
0
VERTEX
8
0
10
1281.220000
20
295.485000
0
VERTEX
8
0
10
1263.250000
20
298.537500
0
VERTEX
8
0
10
1245.302500
20
300.852500
0
VERTEX
8
0
10
1227.240000
20
302.320000
0
VERTEX
8
0
10
1212.015000
20
302.677500
0
VERTEX
8
0
10
1196.795000
20
302.220000
0
VERTEX
8
0
10
1189.202500
20
301.640000
0
VERTEX
8
0
10
1181.800000
20
300.827500
0
VERTEX
8
0
10
1174.322500
20
299.735000
0
VERTEX
8
0
10
1170.630000
20
299.085000
0
VERTEX
8
0
10
1167.055000
20
298.387500
0
VERTEX
8
0
10
1159.722500
20
296.712500
0
VERTEX
8
0
10
1152.572500
20
294.752500
0
VERTEX
8
0
10
1145.505000
20
292.462500
0
VERTEX
8
0
10
1138.742500
20
289.900000
0
VERTEX
8
0
10
1129.152500
20
285.212500
0
VERTEX
8
0
10
1119.792500
20
279.707500
0
VERTEX
8
0
10
1115.407500
20
276.755000
0
VERTEX
8
0
10
1111.097500
20
273.577500
0
VERTEX
8
0
10
1107.010000
20
270.272500
0
VERTEX
8
0
10
1104.952500
20
268.485000
0
VERTEX
8
0
10
1103.132500
20
266.827500
0
VERTEX
8
0
10
1100.625000
20
264.362500
0
VERTEX
8
0
10
1095.247500
20
264.557500
0
VERTEX
8
0
10
1095.825000
20
259.272500
0
VERTEX
8
0
10
1092.562500
20
255.320000
0
VERTEX
8
0
10
1089.607500
20
251.285000
0
VERTEX
8
0
10
1086.655000
20
246.440000
0
VERTEX
8
0
10
1083.927500
20
241.265000
0
VERTEX
8
0
10
1081.525000
20
235.982500
0
VERTEX
8
0
10
1078.477500
20
227.885000
0
VERTEX
8
0
10
1075.955000
20
219.562500
0
VERTEX
8
0
10
1073.810000
20
210.860000
0
VERTEX
8
0
10
1072.010000
20
202.097500
0
VERTEX
8
0
10
1069.667500
20
188.475000
0
VERTEX
8
0
10
1065.077500
20
185.130000
0
VERTEX
8
0
10
1069.485000
20
181.552500
0
VERTEX
8
0
10
1071.787500
20
162.105000
0
VERTEX
8
0
10
1073.630000
20
150.507500
0
VERTEX
8
0
10
1076.007500
20
139.115000
0
VERTEX
8
0
10
1076.412500
20
137.655000
0
VERTEX
8
0
10
1079.570000
20
126.267500
0
VERTEX
8
0
10
1067.735000
20
126.267500
0
VERTEX
8
0
10
825.857500
20
126.267500
0
VERTEX
8
0
10
608.985000
20
126.267500
0
VERTEX
8
0
10
583.985000
20
126.267500
0
VERTEX
8
0
10
558.985000
20
126.267500
0
VERTEX
8
0
10
558.985000
20
135.267500
0
VERTEX
8
0
10
558.985000
20
160.265000
0
VERTEX
8
0
10
558.985000
20
185.262500
0
VERTEX
8
0
10
558.985000
20
320.262500
0
VERTEX
8
0
10
558.985000
20
455.262500
0
VERTEX
8
0
10
558.985000
20
590.262500
0
VERTEX
8
0
10
558.985000
20
725.262500
0
VERTEX
8
0
10
558.985000
20
750.260000
0
VERTEX
8
0
10
558.985000
20
775.257500
0
VERTEX
8
0
10
558.985000
20
784.257500
0
VERTEX
8
0
10
583.982500
20
784.257500
0
VERTEX
8
0
10
608.982500
20
784.257500
0
VERTEX
8
0
10
825.855000
20
784.257500
0
VERTEX
8
0
10
1067.732500
20
784.257500
0
VERTEX
8
0
10
1079.567500
20
784.257500
0
VERTEX
8
0
10
1076.410000
20
772.870000
0
VERTEX
8
0
10
1076.005000
20
771.410000
0
VERTEX
8
0
10
1073.627500
20
760.017500
0
VERTEX
8
0
10
1071.785000
20
748.420000
0
VERTEX
8
0
10
1069.480000
20
728.967500
0
VERTEX
8
0
10
1065.075000
20
725.392500
0
VERTEX
8
0
10
1069.665000
20
722.045000
0
VERTEX
8
0
10
1072.007500
20
708.427500
0
VERTEX
8
0
10
1073.807500
20
699.665000
0
VERTEX
8
0
10
1075.952500
20
690.962500
0
VERTEX
8
0
10
1078.475000
20
682.640000
0
VERTEX
8
0
10
1081.522500
20
674.542500
0
VERTEX
8
0
10
1083.925000
20
669.260000
0
VERTEX
8
0
10
1086.652500
20
664.085000
0
VERTEX
8
0
10
1089.605000
20
659.240000
0
VERTEX
8
0
10
1092.560000
20
655.205000
0
VERTEX
8
0
10
1095.825000
20
651.245000
0
VERTEX
8
0
10
1095.245000
20
645.965000
0
VERTEX
8
0
10
1100.625000
20
646.157500
0
VERTEX
8
0
10
1103.130000
20
643.697500
0
VERTEX
8
0
10
1104.950000
20
642.040000
0
VERTEX
8
0
10
1107.007500
20
640.252500
0
VERTEX
8
0
10
1111.095000
20
636.947500
0
VERTEX
8
0
10
1115.405000
20
633.770000
0
VERTEX
8
0
10
1119.790000
20
630.817500
0
VERTEX
8
0
10
1129.150000
20
625.312500
0
VERTEX
8
0
10
1138.740000
20
620.625000
0
VERTEX
8
0
10
1145.502500
20
618.062500
0
VERTEX
8
0
10
1152.570000
20
615.772500
0
VERTEX
8
0
10
1159.720000
20
613.812500
0
VERTEX
8
0
10
1167.052500
20
612.137500
0
VERTEX
8
0
10
1170.627500
20
611.440000
0
VERTEX
8
0
10
1174.320000
20
610.790000
0
VERTEX
8
0
10
1181.797500
20
609.697500
0
VERTEX
8
0
10
1189.200000
20
608.885000
0
VERTEX
8
0
10
1196.792500
20
608.305000
0
VERTEX
8
0
10
1212.012500
20
607.847500
0
VERTEX
8
0
10
1227.240000
20
608.205000
0
VERTEX
8
0
10
1245.302500
20
609.672500
0
VERTEX
8
0
10
1263.250000
20
611.987500
0
VERTEX
8
0
10
1281.220000
20
615.040000
0
VERTEX
8
0
10
1293.780000
20
617.532500
0
VERTEX
8
0
10
1306.340000
20
620.225000
0
VERTEX
8
0
10
1314.905000
20
622.130000
0
VERTEX
8
0
10
1319.500000
20
619.067500
0
VERTEX
8
0
10
1321.567500
20
624.187500
0
VERTEX
8
0
10
1327.075000
20
626.397500
0
VERTEX
8
0
10
1329.622500
20
627.440000
0
VERTEX
8
0
10
1338.490000
20
631.067500
0
VERTEX
8
0
10
1341.560000
20
621.997500
0
VERTEX
8
0
10
1349.375000
20
598.915000
0
VERTEX
8
0
10
1357.190000
20
575.832500
0
VERTEX
8
0
10
1359.730000
20
568.325000
0
VERTEX
8
0
10
1352.602500
20
564.857500
0
VERTEX
8
0
10
1346.760000
20
562.015000
0
VERTEX
8
0
10
1341.662500
20
559.535000
0
VERTEX
8
0
10
1335.397500
20
554.915000
0
VERTEX
8
0
10
1332.287500
20
552.435000
0
VERTEX
8
0
10
1329.487500
20
549.970000
0
VERTEX
8
0
10
1327.032500
20
547.507500
0
VERTEX
8
0
10
1324.945000
20
545.017500
0
VERTEX
8
0
10
1323.090000
20
542.267500
0
VERTEX
8
0
10
1321.510000
20
539.315000
0
VERTEX
8
0
10
1320.152500
20
536.077500
0
VERTEX
8
0
10
1319.025000
20
532.622500
0
VERTEX
8
0
10
1318.090000
20
528.875000
0
VERTEX
8
0
10
1317.377500
20
525.070000
0
VERTEX
8
0
10
1316.360000
20
516.377500
0
VERTEX
8
0
10
1315.860000
20
507.365000
0
VERTEX
8
0
10
1315.620000
20
497.905000
0
VERTEX
8
0
10
1315.955000
20
458.760000
0
SEQEND
8
1
0
ENDSEC
0
EOF
