  0
SECTION
  2
HEADER
  9
$ACADVER
  1
AC1009
  9
$INSBASE
 10
0.0
 20
0.0
 30
0.0
  9
$EXTMIN
 10
4.845262
 20
3.02933
 30
0.0
  9
$EXTMAX
 10
8.847323
 20
6.850559
 30
0.0
  9
$LIMMIN
 10
0.0
 20
0.0
  9
$LIMMAX
 10
12.0
 20
9.0
  9
$ORTHOMODE
 70
     0
  9
$REGENMODE
 70
     1
  9
$FILLMODE
 70
     1
  9
$QTEXTMODE
 70
     0
  9
$MIRRTEXT
 70
     1
  9
$DRAGMODE
 70
     2
  9
$LTSCALE
 40
1.0
  9
$OSMODE
 70
     0
  9
$ATTMODE
 70
     1
  9
$TEXTSIZE
 40
0.2
  9
$TRACEWID
 40
0.05
  9
$TEXTSTYLE
  7
STANDARD
  9
$CLAYER
  8
0
  9
$CELTYPE
  6
BYLAYER
  9
$CECOLOR
 62
   256
  9
$DIMSCALE
 40
1.0
  9
$DIMASZ
 40
0.18
  9
$DIMEXO
 40
0.0625
  9
$DIMDLI
 40
0.38
  9
$DIMRND
 40
0.0
  9
$DIMDLE
 40
0.0
  9
$DIMEXE
 40
0.18
  9
$DIMTP
 40
0.0
  9
$DIMTM
 40
0.0
  9
$DIMTXT
 40
0.18
  9
$DIMCEN
 40
0.09
  9
$DIMTSZ
 40
0.0
  9
$DIMTOL
 70
     0
  9
$DIMLIM
 70
     0
  9
$DIMTIH
 70
     1
  9
$DIMTOH
 70
     1
  9
$DIMSE1
 70
     0
  9
$DIMSE2
 70
     0
  9
$DIMTAD
 70
     0
  9
$DIMZIN
 70
     0
  9
$DIMBLK
  1

  9
$DIMASO
 70
     1
  9
$DIMSHO
 70
     1
  9
$DIMPOST
  1

  9
$DIMAPOST
  1

  9
$DIMALT
 70
     0
  9
$DIMALTD
 70
     2
  9
$DIMALTF
 40
25.4
  9
$DIMLFAC
 40
1.0
  9
$DIMTOFL
 70
     0
  9
$DIMTVP
 40
0.0
  9
$DIMTIX
 70
     0
  9
$DIMSOXD
 70
     0
  9
$DIMSAH
 70
     0
  9
$DIMBLK1
  1

  9
$DIMBLK2
  1

  9
$DIMSTYLE
  2
*UNNAMED
  9
$DIMCLRD
 70
     0
  9
$DIMCLRE
 70
     0
  9
$DIMCLRT
 70
     0
  9
$DIMTFAC
 40
1.0
  9
$DIMGAP
 40
0.09
  9
$LUNITS
 70
     2
  9
$LUPREC
 70
     4
  9
$SKETCHINC
 40
0.1
  9
$FILLETRAD
 40
0.0
  9
$AUNITS
 70
     0
  9
$AUPREC
 70
     0
  9
$MENU
  1
aDXF
  9
$ELEVATION
 40
0.0
  9
$PELEVATION
 40
0.0
  9
$THICKNESS
 40
0.0
  9
$LIMCHECK
 70
     0
  9
$BLIPMODE
 70
     1
  9
$CHAMFERA
 40
0.0
  9
$CHAMFERB
 40
0.0
  9
$SKPOLY
 70
     0
  9
$TDCREATE
 40
2450406.327857407
  9
$TDUPDATE
 40
2450406.327857407
  9
$TDINDWG
 40
0.0000000000
  9
$TDUSRTIMER
 40
0.0000000000
  9
$USRTIMER
 70
     1
  9
$ANGBASE
 50
0.0
  9
$ANGDIR
 70
     0
  9
$PDMODE
 70
     0
  9
$PDSIZE
 40
0.0
  9
$PLINEWID
 40
0.0
  9
$COORDS
 70
     1
  9
$SPLFRAME
 70
     0
  9
$SPLINETYPE
 70
     6
  9
$SPLINESEGS
 70
     8
  9
$ATTDIA
 70
     0
  9
$ATTREQ
 70
     1
  9
$HANDLING
 70
     0
  9
$HANDSEED
  5
0
  9
$SURFTAB1
 70
     6
  9
$SURFTAB2
 70
     6
  9
$SURFTYPE
 70
     6
  9
$SURFU
 70
     6
  9
$SURFV
 70
     6
  9
$UCSNAME
  2

  9
$UCSORG
 10
0.0
 20
0.0
 30
0.0
  9
$UCSXDIR
 10
1.0
 20
0.0
 30
0.0
  9
$UCSYDIR
 10
0.0
 20
1.0
 30
0.0
  9
$PUCSNAME
  2

  9
$PUCSORG
 10
0.0
 20
0.0
 30
0.0
  9
$PUCSXDIR
 10
1.0
 20
0.0
 30
0.0
  9
$PUCSYDIR
 10
0.0
 20
1.0
 30
0.0
  9
$USERI1
 70
     0
  9
$USERI2
 70
     0
  9
$USERI3
 70
     0
  9
$USERI4
 70
     0
  9
$USERI5
 70
     0
  9
$USERR1
 40
0.0
  9
$USERR2
 40
0.0
  9
$USERR3
 40
0.0
  9
$USERR4
 40
0.0
  9
$USERR5
 40
0.0
  9
$WORLDVIEW
 70
     1
  9
$SHADEDGE
 70
     3
  9
$SHADEDIF
 70
    70
  9
$TILEMODE
 70
     1
  9
$MAXACTVP
 70
    16
  9
$PINSBASE
 10
0.0
 20
0.0
 30
0.0
  9
$PLIMCHECK
 70
     0
  9
$PEXTMIN
 10
1.000000E+20
 20
1.000000E+20
 30
1.000000E+20
  9
$PEXTMAX
 10
-1.000000E+20
 20
-1.000000E+20
 30
-1.000000E+20
  9
$PLIMMIN
 10
0.0
 20
0.0
  9
$PLIMMAX
 10
12.0
 20
9.0
  9
$UNITMODE
 70
     0
  9
$VISRETAIN
 70
     0
  9
$PLINEGEN
 70
     0
  9
$PSLTSCALE
 70
     1
  9
$TREEDEPTH
 70
  3020
  9
$DWGCODEPAGE
  3
iso8859-1
  0
ENDSEC
  0
SECTION
  2
TABLES
  0
TABLE
  2
VPORT
 70
     2
  0
VPORT
  2
*ACTIVE
 70
     0
 10
0.0
 20
0.0
 11
1.0
 21
1.0
 12
7.953782
 22
4.5
 13
0.0
 23
0.0
 14
1.0
 24
1.0
 15
0.0
 25
0.0
 16
0.0
 26
0.0
 36
1.0
 17
0.0
 27
0.0
 37
0.0
 40
9.0
 41
1.767507
 42
50.0
 43
0.0
 44
0.0
 50
0.0
 51
0.0
 71
     0
 72
   100
 73
     1
 74
     1
 75
     0
 76
     0
 77
     0
 78
     0
  0
ENDTAB
  0
TABLE
  2
LTYPE
 70
     1
  0
LTYPE
  2
CONTINUOUS
 70
    64
  3
Solid line
 72
    65
 73
     0
 40
0.0
  0
ENDTAB
  0
TABLE
  2
LAYER
 70
     1
  0
LAYER
  2
0
 70
     0
 62
     7
  6
CONTINUOUS
  0
ENDTAB
  0
TABLE
  2
STYLE
 70
     1
  0
STYLE
  2
STANDARD
 70
     0
 40
0.0
 41
1.0
 50
0.0
 71
     0
 42
0.2
  3
txt
  4

  0
ENDTAB
  0
TABLE
  2
VIEW
 70
     0
  0
ENDTAB
  0
TABLE
  2
UCS
 70
     0
  0
ENDTAB
  0
TABLE
  2
APPID
 70
     1
  0
APPID
  2
ADXF
 70
    64
  0
ENDTAB
  0
TABLE
  2
DIMSTYLE
 70
     0
  0
ENDTAB
  0
ENDSEC
  0
SECTION
  2
BLOCKS
  0
ENDSEC
0
SECTION
2
ENTITIES
0
TEXT
8
1
10
739.275000
20
1560.955000
40
5.000000
50
-180.000000
1
Piece Name: 新NBA职业球员版.boke_裤左前
7
STANDARD
0
TEXT
8
1
10
739.275000
20
1555.955000
40
5.000000
50
-180.000000
1
Category: 1
7
STANDARD
0
TEXT
8
1
10
739.275000
20
1550.955000
40
5.000000
50
-180.000000
1
Fabric: 面布
7
STANDARD
0
TEXT
8
1
10
739.275000
20
1545.955000
40
5.000000
50
-180.000000
1
Size: 100
7
STANDARD
0
POLYLINE
8
1
66
 1
70
1
0
VERTEX
8
1
10
759.275000
20
1639.127500
0
VERTEX
8
1
10
759.275000
20
1621.905000
0
VERTEX
8
1
10
759.275000
20
1552.902500
0
VERTEX
8
1
10
759.275000
20
1483.902500
0
VERTEX
8
1
10
759.275000
20
1471.535000
0
VERTEX
8
1
10
750.430000
20
1473.070000
0
VERTEX
8
1
10
734.277500
20
1475.795000
0
VERTEX
8
1
10
718.125000
20
1473.070000
0
VERTEX
8
1
10
709.280000
20
1471.535000
0
VERTEX
8
1
10
699.860000
20
1469.897500
0
VERTEX
8
1
10
682.362500
20
1466.680000
0
VERTEX
8
1
10
666.657500
20
1463.582500
0
VERTEX
8
1
10
651.207500
20
1460.397500
0
VERTEX
8
1
10
635.920000
20
1457.177500
0
VERTEX
8
1
10
629.760000
20
1455.882500
0
VERTEX
8
1
10
627.052500
20
1461.567500
0
VERTEX
8
1
10
623.965000
20
1468.052500
0
VERTEX
8
1
10
622.460000
20
1470.757500
0
VERTEX
8
1
10
620.925000
20
1473.060000
0
VERTEX
8
1
10
619.337500
20
1474.942500
0
VERTEX
8
1
10
617.757500
20
1476.345000
0
VERTEX
8
1
10
614.975000
20
1478.005000
0
VERTEX
8
1
10
611.527500
20
1479.352500
0
VERTEX
8
1
10
607.580000
20
1480.417500
0
VERTEX
8
1
10
603.060000
20
1481.265000
0
VERTEX
8
1
10
598.407500
20
1481.882500
0
VERTEX
8
1
10
593.652500
20
1482.345000
0
VERTEX
8
1
10
582.762500
20
1483.070000
0
VERTEX
8
1
10
571.735000
20
1483.542500
0
VERTEX
8
1
10
560.490000
20
1483.910000
0
VERTEX
8
1
10
548.617500
20
1484.305000
0
VERTEX
8
1
10
536.895000
20
1484.715000
0
VERTEX
8
1
10
525.192500
20
1485.132500
0
VERTEX
8
1
10
488.067500
20
1486.422500
0
VERTEX
8
1
10
450.812500
20
1487.680000
0
VERTEX
8
1
10
414.012500
20
1488.905000
0
VERTEX
8
1
10
397.277500
20
1489.462500
0
VERTEX
8
1
10
397.277500
20
1496.900000
0
VERTEX
8
1
10
397.277500
20
1576.900000
0
VERTEX
8
1
10
397.277500
20
1656.902500
0
VERTEX
8
1
10
397.277500
20
1664.900000
0
VERTEX
8
1
10
414.277500
20
1664.900000
0
VERTEX
8
1
10
431.277500
20
1664.900000
0
VERTEX
8
1
10
466.775000
20
1664.900000
0
VERTEX
8
1
10
469.275000
20
1669.900000
0
VERTEX
8
1
10
471.772500
20
1664.900000
0
VERTEX
8
1
10
524.277500
20
1664.900000
0
VERTEX
8
1
10
584.772500
20
1664.900000
0
VERTEX
8
1
10
587.272500
20
1669.900000
0
VERTEX
8
1
10
589.770000
20
1664.900000
0
VERTEX
8
1
10
621.182500
20
1664.900000
0
VERTEX
8
1
10
622.760000
20
1669.405000
0
VERTEX
8
1
10
636.917500
20
1664.450000
0
VERTEX
8
1
10
686.917500
20
1646.950000
0
VERTEX
8
1
10
687.367500
20
1646.790000
0
VERTEX
8
1
10
688.075000
20
1641.247500
0
VERTEX
8
1
10
692.085000
20
1645.140000
0
VERTEX
8
1
10
709.280000
20
1639.127500
0
VERTEX
8
1
10
734.277500
20
1630.377500
0
VERTEX
8
1
10
759.275000
20
1639.127500
0
SEQEND
8
1
0
TEXT
8
1
10
220.855000
20
1111.012500
40
5.000000
50
-180.000000
1
Piece Name: 新NBA职业球员版.boke_左手背
7
STANDARD
0
TEXT
8
1
10
220.855000
20
1106.012500
40
5.000000
50
-180.000000
1
Category: 3
7
STANDARD
0
TEXT
8
1
10
220.855000
20
1101.012500
40
5.000000
50
-180.000000
1
Fabric: 面布
7
STANDARD
0
TEXT
8
1
10
220.855000
20
1096.012500
40
5.000000
50
-180.000000
1
Size: 100
7
STANDARD
0
POLYLINE
8
1
66
 1
70
1
0
VERTEX
8
1
10
0.000000
20
1103.460000
0
VERTEX
8
1
10
0.000000
20
1103.745000
0
VERTEX
8
1
10
0.000000
20
1148.150000
0
VERTEX
8
1
10
0.000000
20
1192.557500
0
VERTEX
8
1
10
0.000000
20
1201.555000
0
VERTEX
8
1
10
20.000000
20
1201.555000
0
VERTEX
8
1
10
31.502500
20
1201.555000
0
VERTEX
8
1
10
35.000000
20
1197.557500
0
VERTEX
8
1
10
38.500000
20
1201.555000
0
VERTEX
8
1
10
40.000000
20
1201.555000
0
VERTEX
8
1
10
110.497500
20
1201.555000
0
VERTEX
8
1
10
151.500000
20
1201.555000
0
VERTEX
8
1
10
154.997500
20
1197.557500
0
VERTEX
8
1
10
158.497500
20
1201.555000
0
VERTEX
8
1
10
200.995000
20
1201.555000
0
VERTEX
8
1
10
207.250000
20
1201.555000
0
VERTEX
8
1
10
209.565000
20
1197.702500
0
VERTEX
8
1
10
211.037500
20
1195.250000
0
VERTEX
8
1
10
212.390000
20
1193.097500
0
VERTEX
8
1
10
213.760000
20
1191.112500
0
VERTEX
8
1
10
215.535000
20
1188.872500
0
VERTEX
8
1
10
217.480000
20
1186.747500
0
VERTEX
8
1
10
219.472500
20
1184.822500
0
VERTEX
8
1
10
226.272500
20
1179.397500
0
VERTEX
8
1
10
233.867500
20
1173.885000
0
VERTEX
8
1
10
241.757500
20
1167.452500
0
VERTEX
8
1
10
245.565000
20
1163.420000
0
VERTEX
8
1
10
248.897500
20
1159.332500
0
VERTEX
8
1
10
251.922500
20
1155.060000
0
VERTEX
8
1
10
254.732500
20
1150.505000
0
VERTEX
8
1
10
259.287500
20
1141.475000
0
VERTEX
8
1
10
261.440000
20
1135.962500
0
VERTEX
8
1
10
263.207500
20
1130.567500
0
VERTEX
8
1
10
264.677500
20
1125.045000
0
VERTEX
8
1
10
265.830000
20
1119.510000
0
VERTEX
8
1
10
266.682500
20
1113.867500
0
VERTEX
8
1
10
267.222500
20
1108.185000
0
VERTEX
8
1
10
267.440000
20
1102.560000
0
VERTEX
8
1
10
267.435000
20
1099.665000
0
VERTEX
8
1
10
267.345000
20
1096.717500
0
VERTEX
8
1
10
266.932500
20
1091.067500
0
VERTEX
8
1
10
266.187500
20
1085.380000
0
VERTEX
8
1
10
265.117500
20
1079.720000
0
VERTEX
8
1
10
263.637500
20
1073.842500
0
VERTEX
8
1
10
260.475000
20
1065.470000
0
VERTEX
8
1
10
256.570000
20
1057.457500
0
VERTEX
8
1
10
251.970000
20
1049.985000
0
VERTEX
8
1
10
249.265000
20
1046.277500
0
VERTEX
8
1
10
246.455000
20
1042.842500
0
VERTEX
8
1
10
243.425000
20
1039.557500
0
VERTEX
8
1
10
240.170000
20
1036.435000
0
VERTEX
8
1
10
236.752500
20
1033.565000
0
VERTEX
8
1
10
232.955000
20
1030.797500
0
VERTEX
8
1
10
227.827500
20
1027.882500
0
VERTEX
8
1
10
222.580000
20
1025.482500
0
VERTEX
8
1
10
217.182500
20
1023.532500
0
VERTEX
8
1
10
211.657500
20
1021.990000
0
VERTEX
8
1
10
206.067500
20
1020.847500
0
VERTEX
8
1
10
200.435000
20
1020.062500
0
VERTEX
8
1
10
194.690000
20
1019.605000
0
VERTEX
8
1
10
188.690000
20
1019.457500
0
VERTEX
8
1
10
166.747500
20
1021.530000
0
VERTEX
8
1
10
155.950000
20
1024.220000
0
VERTEX
8
1
10
145.945000
20
1027.490000
0
VERTEX
8
1
10
136.292500
20
1031.287500
0
VERTEX
8
1
10
126.922500
20
1035.475000
0
VERTEX
8
1
10
109.125000
20
1044.327500
0
VERTEX
8
1
10
63.925000
20
1068.217500
0
VERTEX
8
1
10
19.737500
20
1092.440000
0
VERTEX
8
1
10
15.125000
20
1095.015000
0
VERTEX
8
1
10
0.000000
20
1103.460000
0
SEQEND
8
1
0
TEXT
8
1
10
348.847500
20
583.675000
40
5.000000
50
-180.000000
1
Piece Name: 新NBA职业球员版.boke_裤右后
7
STANDARD
0
TEXT
8
1
10
348.847500
20
578.675000
40
5.000000
50
-180.000000
1
Category: 5
7
STANDARD
0
TEXT
8
1
10
348.847500
20
573.675000
40
5.000000
50
-180.000000
1
Fabric: 面布
7
STANDARD
0
TEXT
8
1
10
348.847500
20
568.675000
40
5.000000
50
-180.000000
1
Size: 100
7
STANDARD
0
POLYLINE
8
1
66
 1
70
1
0
VERTEX
8
1
10
268.810000
20
411.960000
0
VERTEX
8
1
10
265.147500
20
420.482500
0
VERTEX
8
1
10
261.350000
20
429.320000
0
VERTEX
8
1
10
257.540000
20
438.012500
0
VERTEX
8
1
10
253.647500
20
446.582500
0
VERTEX
8
1
10
249.912500
20
454.282500
0
VERTEX
8
1
10
245.917500
20
461.340000
0
VERTEX
8
1
10
241.367500
20
467.645000
0
VERTEX
8
1
10
239.455000
20
469.717500
0
VERTEX
8
1
10
237.245000
20
471.815000
0
VERTEX
8
1
10
234.885000
20
473.765000
0
VERTEX
8
1
10
232.635000
20
475.362500
0
VERTEX
8
1
10
227.280000
20
478.290000
0
VERTEX
8
1
10
224.645000
20
479.257500
0
VERTEX
8
1
10
221.425000
20
480.175000
0
VERTEX
8
1
10
218.027500
20
480.950000
0
VERTEX
8
1
10
214.182500
20
481.660000
0
VERTEX
8
1
10
210.402500
20
482.235000
0
VERTEX
8
1
10
206.487500
20
482.725000
0
VERTEX
8
1
10
197.900000
20
483.507500
0
VERTEX
8
1
10
189.185000
20
484.040000
0
VERTEX
8
1
10
180.350000
20
484.450000
0
VERTEX
8
1
10
179.680000
20
484.505000
0
VERTEX
8
1
10
98.797500
20
493.755000
0
VERTEX
8
1
10
17.915000
20
503.005000
0
VERTEX
8
1
10
0.980000
20
504.942500
0
VERTEX
8
1
10
2.167500
20
514.940000
0
VERTEX
8
1
10
14.717500
20
620.690000
0
VERTEX
8
1
10
23.297500
20
692.965000
0
VERTEX
8
1
10
27.680000
20
695.970000
0
VERTEX
8
1
10
24.122500
20
699.912500
0
VERTEX
8
1
10
27.267500
20
726.440000
0
VERTEX
8
1
10
28.215000
20
734.437500
0
VERTEX
8
1
10
44.150000
20
734.437500
0
VERTEX
8
1
10
154.150000
20
734.435000
0
VERTEX
8
1
10
262.452500
20
734.435000
0
VERTEX
8
1
10
287.252500
20
743.112500
0
VERTEX
8
1
10
302.677500
20
748.510000
0
VERTEX
8
1
10
306.322500
20
757.820000
0
VERTEX
8
1
10
320.602500
20
752.227500
0
VERTEX
8
1
10
338.597500
20
745.180000
0
VERTEX
8
1
10
344.200000
20
742.985000
0
VERTEX
8
1
10
363.862500
20
735.285000
0
VERTEX
8
1
10
383.090000
20
744.010000
0
VERTEX
8
1
10
388.567500
20
746.500000
0
VERTEX
8
1
10
389.137500
20
725.095000
0
VERTEX
8
1
10
392.697500
20
590.597500
0
VERTEX
8
1
10
396.257500
20
456.100000
0
VERTEX
8
1
10
396.712500
20
438.870000
0
VERTEX
8
1
10
391.240000
20
440.240000
0
VERTEX
8
1
10
371.542500
20
445.077500
0
VERTEX
8
1
10
352.130000
20
439.205000
0
VERTEX
8
1
10
346.737500
20
437.545000
0
VERTEX
8
1
10
330.725000
20
432.605000
0
VERTEX
8
1
10
309.110000
20
425.677500
0
VERTEX
8
1
10
292.752500
20
420.200000
0
VERTEX
8
1
10
277.585000
20
414.977500
0
VERTEX
8
1
10
268.810000
20
411.960000
0
SEQEND
8
1
0
TEXT
8
1
10
716.442500
20
1365.077500
40
5.000000
50
-180.000000
1
Piece Name: 新NBA职业球员版.boke_前片
7
STANDARD
0
TEXT
8
1
10
716.442500
20
1360.077500
40
5.000000
50
-180.000000
1
Category: 13
7
STANDARD
0
TEXT
8
1
10
716.442500
20
1355.077500
40
5.000000
50
-180.000000
1
Fabric: 面布
7
STANDARD
0
TEXT
8
1
10
716.442500
20
1350.077500
40
5.000000
50
-180.000000
1
Size: 100
7
STANDARD
0
POLYLINE
8
1
66
 1
70
1
0
VERTEX
8
1
10
365.215000
20
1292.575000
0
VERTEX
8
1
10
360.802500
20
1296.047500
0
VERTEX
8
1
10
360.640000
20
1297.380000
0
VERTEX
8
1
10
359.790000
20
1302.722500
0
VERTEX
8
1
10
358.592500
20
1307.692500
0
VERTEX
8
1
10
357.105000
20
1311.862500
0
VERTEX
8
1
10
355.172500
20
1315.920000
0
VERTEX
8
1
10
352.815000
20
1319.870000
0
VERTEX
8
1
10
350.035000
20
1323.735000
0
VERTEX
8
1
10
346.897500
20
1327.455000
0
VERTEX
8
1
10
343.392500
20
1331.057500
0
VERTEX
8
1
10
339.545000
20
1334.545000
0
VERTEX
8
1
10
337.607500
20
1336.145000
0
VERTEX
8
1
10
335.612500
20
1337.707500
0
VERTEX
8
1
10
331.277500
20
1340.830000
0
VERTEX
8
1
10
326.807500
20
1343.727500
0
VERTEX
8
1
10
322.257500
20
1346.390000
0
VERTEX
8
1
10
317.750000
20
1348.770000
0
VERTEX
8
1
10
310.800000
20
1351.720000
0
VERTEX
8
1
10
303.590000
20
1354.320000
0
VERTEX
8
1
10
296.220000
20
1356.602500
0
VERTEX
8
1
10
287.195000
20
1358.992500
0
VERTEX
8
1
10
278.030000
20
1361.075000
0
VERTEX
8
1
10
268.652500
20
1362.937500
0
VERTEX
8
1
10
259.180000
20
1364.612500
0
VERTEX
8
1
10
252.695000
20
1365.647500
0
VERTEX
8
1
10
242.150000
20
1367.330000
0
VERTEX
8
1
10
245.597500
20
1377.440000
0
VERTEX
8
1
10
250.227500
20
1391.007500
0
VERTEX
8
1
10
254.857500
20
1404.577500
0
VERTEX
8
1
10
257.680000
20
1412.852500
0
VERTEX
8
1
10
266.060000
20
1410.260000
0
VERTEX
8
1
10
267.247500
20
1409.892500
0
VERTEX
8
1
10
273.992500
20
1407.900000
0
VERTEX
8
1
10
288.665000
20
1404.060000
0
VERTEX
8
1
10
303.372500
20
1400.890000
0
VERTEX
8
1
10
318.370000
20
1398.327500
0
VERTEX
8
1
10
325.935000
20
1397.345000
0
VERTEX
8
1
10
333.527500
20
1396.590000
0
VERTEX
8
1
10
341.047500
20
1396.132500
0
VERTEX
8
1
10
348.460000
20
1396.027500
0
VERTEX
8
1
10
363.555000
20
1397.122500
0
VERTEX
8
1
10
372.625000
20
1398.937500
0
VERTEX
8
1
10
377.055000
20
1400.140000
0
VERTEX
8
1
10
381.530000
20
1401.585000
0
VERTEX
8
1
10
385.777500
20
1403.197500
0
VERTEX
8
1
10
389.970000
20
1405.050000
0
VERTEX
8
1
10
393.980000
20
1407.105000
0
VERTEX
8
1
10
397.785000
20
1409.360000
0
VERTEX
8
1
10
401.365000
20
1411.812500
0
VERTEX
8
1
10
404.710000
20
1414.470000
0
VERTEX
8
1
10
405.520000
20
1415.220000
0
VERTEX
8
1
10
411.002500
20
1414.925000
0
VERTEX
8
1
10
410.420000
20
1420.205000
0
VERTEX
8
1
10
412.810000
20
1423.627500
0
VERTEX
8
1
10
415.060000
20
1427.455000
0
VERTEX
8
1
10
417.080000
20
1431.492500
0
VERTEX
8
1
10
420.002500
20
1438.697500
0
VERTEX
8
1
10
420.500000
20
1440.280000
0
VERTEX
8
1
10
422.572500
20
1446.875000
0
VERTEX
8
1
10
429.485000
20
1446.567500
0
VERTEX
8
1
10
463.232500
20
1445.060000
0
VERTEX
8
1
10
497.542500
20
1443.652500
0
VERTEX
8
1
10
531.540000
20
1442.507500
0
VERTEX
8
1
10
568.497500
20
1441.645000
0
VERTEX
8
1
10
605.890000
20
1441.067500
0
VERTEX
8
1
10
643.040000
20
1440.637500
0
VERTEX
8
1
10
673.650000
20
1440.290000
0
VERTEX
8
1
10
703.907500
20
1439.940000
0
VERTEX
8
1
10
709.275000
20
1439.880000
0
VERTEX
8
1
10
734.275000
20
1439.585000
0
VERTEX
8
1
10
759.275000
20
1439.880000
0
VERTEX
8
1
10
759.275000
20
1430.585000
0
VERTEX
8
1
10
759.275000
20
1361.580000
0
VERTEX
8
1
10
759.275000
20
1292.575000
0
VERTEX
8
1
10
759.275000
20
1223.570000
0
VERTEX
8
1
10
759.275000
20
1154.565000
0
VERTEX
8
1
10
759.275000
20
1145.270000
0
VERTEX
8
1
10
734.275000
20
1145.565000
0
VERTEX
8
1
10
709.275000
20
1145.270000
0
VERTEX
8
1
10
703.907500
20
1145.210000
0
VERTEX
8
1
10
673.650000
20
1144.860000
0
VERTEX
8
1
10
643.040000
20
1144.512500
0
VERTEX
8
1
10
605.890000
20
1144.082500
0
VERTEX
8
1
10
568.497500
20
1143.505000
0
VERTEX
8
1
10
531.540000
20
1142.642500
0
VERTEX
8
1
10
497.542500
20
1141.497500
0
VERTEX
8
1
10
463.232500
20
1140.090000
0
VERTEX
8
1
10
429.485000
20
1138.582500
0
VERTEX
8
1
10
422.572500
20
1138.275000
0
VERTEX
8
1
10
420.500000
20
1144.870000
0
VERTEX
8
1
10
420.002500
20
1146.452500
0
VERTEX
8
1
10
417.080000
20
1153.657500
0
VERTEX
8
1
10
415.060000
20
1157.695000
0
VERTEX
8
1
10
412.810000
20
1161.522500
0
VERTEX
8
1
10
410.420000
20
1164.940000
0
VERTEX
8
1
10
411.002500
20
1170.222500
0
VERTEX
8
1
10
405.520000
20
1169.927500
0
VERTEX
8
1
10
404.710000
20
1170.680000
0
VERTEX
8
1
10
401.365000
20
1173.337500
0
VERTEX
8
1
10
397.785000
20
1175.790000
0
VERTEX
8
1
10
393.980000
20
1178.045000
0
VERTEX
8
1
10
389.970000
20
1180.100000
0
VERTEX
8
1
10
385.777500
20
1181.952500
0
VERTEX
8
1
10
381.530000
20
1183.565000
0
VERTEX
8
1
10
377.055000
20
1185.010000
0
VERTEX
8
1
10
372.625000
20
1186.212500
0
VERTEX
8
1
10
363.555000
20
1188.027500
0
VERTEX
8
1
10
348.460000
20
1189.122500
0
VERTEX
8
1
10
341.047500
20
1189.017500
0
VERTEX
8
1
10
333.527500
20
1188.560000
0
VERTEX
8
1
10
325.935000
20
1187.805000
0
VERTEX
8
1
10
318.370000
20
1186.822500
0
VERTEX
8
1
10
303.372500
20
1184.260000
0
VERTEX
8
1
10
288.665000
20
1181.090000
0
VERTEX
8
1
10
273.992500
20
1177.250000
0
VERTEX
8
1
10
267.247500
20
1175.257500
0
VERTEX
8
1
10
266.060000
20
1174.890000
0
VERTEX
8
1
10
257.680000
20
1172.297500
0
VERTEX
8
1
10
254.857500
20
1180.572500
0
VERTEX
8
1
10
250.227500
20
1194.142500
0
VERTEX
8
1
10
245.597500
20
1207.710000
0
VERTEX
8
1
10
242.150000
20
1217.820000
0
VERTEX
8
1
10
252.695000
20
1219.502500
0
VERTEX
8
1
10
259.180000
20
1220.537500
0
VERTEX
8
1
10
268.652500
20
1222.212500
0
VERTEX
8
1
10
278.030000
20
1224.075000
0
VERTEX
8
1
10
287.195000
20
1226.157500
0
VERTEX
8
1
10
296.220000
20
1228.547500
0
VERTEX
8
1
10
303.590000
20
1230.830000
0
VERTEX
8
1
10
310.800000
20
1233.430000
0
VERTEX
8
1
10
317.750000
20
1236.380000
0
VERTEX
8
1
10
322.257500
20
1238.760000
0
VERTEX
8
1
10
326.807500
20
1241.422500
0
VERTEX
8
1
10
331.277500
20
1244.320000
0
VERTEX
8
1
10
335.612500
20
1247.442500
0
VERTEX
8
1
10
337.607500
20
1249.005000
0
VERTEX
8
1
10
339.545000
20
1250.605000
0
VERTEX
8
1
10
343.392500
20
1254.092500
0
VERTEX
8
1
10
346.897500
20
1257.695000
0
VERTEX
8
1
10
350.035000
20
1261.415000
0
VERTEX
8
1
10
352.815000
20
1265.280000
0
VERTEX
8
1
10
355.172500
20
1269.230000
0
VERTEX
8
1
10
357.105000
20
1273.287500
0
VERTEX
8
1
10
358.592500
20
1277.457500
0
VERTEX
8
1
10
359.790000
20
1282.427500
0
VERTEX
8
1
10
360.640000
20
1287.770000
0
VERTEX
8
1
10
360.802500
20
1289.100000
0
SEQEND
8
1
0
TEXT
8
1
10
755.715000
20
997.170000
40
5.000000
50
-180.000000
1
Piece Name: 新NBA职业球员版.boke_后片
7
STANDARD
0
TEXT
8
1
10
755.715000
20
992.170000
40
5.000000
50
-180.000000
1
Category: 15
7
STANDARD
0
TEXT
8
1
10
755.715000
20
987.170000
40
5.000000
50
-180.000000
1
Fabric: 面布
7
STANDARD
0
TEXT
8
1
10
755.715000
20
982.170000
40
5.000000
50
-180.000000
1
Size: 100
7
STANDARD
0
POLYLINE
8
1
66
 1
70
1
0
VERTEX
8
1
10
261.280000
20
884.672500
0
VERTEX
8
1
10
257.215000
20
888.170000
0
VERTEX
8
1
10
256.675000
20
916.597500
0
VERTEX
8
1
10
256.297500
20
923.650000
0
VERTEX
8
1
10
255.737500
20
930.427500
0
VERTEX
8
1
10
254.812500
20
936.787500
0
VERTEX
8
1
10
254.215000
20
939.550000
0
VERTEX
8
1
10
253.475000
20
942.205000
0
VERTEX
8
1
10
252.597500
20
944.657500
0
VERTEX
8
1
10
251.597500
20
946.872500
0
VERTEX
8
1
10
250.442500
20
948.892500
0
VERTEX
8
1
10
249.240000
20
950.575000
0
VERTEX
8
1
10
245.762500
20
954.172500
0
VERTEX
8
1
10
241.365000
20
957.652500
0
VERTEX
8
1
10
236.585000
20
960.977500
0
VERTEX
8
1
10
231.322500
20
963.767500
0
VERTEX
8
1
10
225.582500
20
966.812500
0
VERTEX
8
1
10
218.890000
20
970.365000
0
VERTEX
8
1
10
221.247500
20
977.562500
0
VERTEX
8
1
10
225.712500
20
991.185000
0
VERTEX
8
1
10
230.177500
20
1004.810000
0
VERTEX
8
1
10
233.057500
20
1013.600000
0
VERTEX
8
1
10
241.767500
20
1010.480000
0
VERTEX
8
1
10
247.475000
20
1008.435000
0
VERTEX
8
1
10
250.292500
20
1007.447500
0
VERTEX
8
1
10
252.432500
20
1002.465000
0
VERTEX
8
1
10
256.982500
20
1005.417500
0
VERTEX
8
1
10
262.080000
20
1004.105000
0
VERTEX
8
1
10
270.797500
20
1001.932500
0
VERTEX
8
1
10
279.567500
20
999.885000
0
VERTEX
8
1
10
292.030000
20
997.337500
0
VERTEX
8
1
10
304.480000
20
995.307500
0
VERTEX
8
1
10
317.077500
20
993.860000
0
VERTEX
8
1
10
327.580000
20
993.265000
0
VERTEX
8
1
10
338.135000
20
993.230000
0
VERTEX
8
1
10
348.705000
20
993.855000
0
VERTEX
8
1
10
353.702500
20
994.417500
0
VERTEX
8
1
10
358.907500
20
995.205000
0
VERTEX
8
1
10
363.852500
20
996.162500
0
VERTEX
8
1
10
368.917500
20
997.370000
0
VERTEX
8
1
10
373.730000
20
998.755000
0
VERTEX
8
1
10
378.420000
20
1000.355000
0
VERTEX
8
1
10
385.077500
20
1003.337500
0
VERTEX
8
1
10
391.530000
20
1006.850000
0
VERTEX
8
1
10
397.720000
20
1010.910000
0
VERTEX
8
1
10
398.165000
20
1011.242500
0
VERTEX
8
1
10
403.500000
20
1010.295000
0
VERTEX
8
1
10
403.602500
20
1015.637500
0
VERTEX
8
1
10
408.350000
20
1020.230000
0
VERTEX
8
1
10
412.780000
20
1025.552500
0
VERTEX
8
1
10
414.810000
20
1028.650000
0
VERTEX
8
1
10
416.747500
20
1032.047500
0
VERTEX
8
1
10
418.502500
20
1035.590000
0
VERTEX
8
1
10
420.770000
20
1041.047500
0
VERTEX
8
1
10
422.687500
20
1046.700000
0
VERTEX
8
1
10
424.370000
20
1052.655000
0
VERTEX
8
1
10
425.815000
20
1058.660000
0
VERTEX
8
1
10
427.432500
20
1066.480000
0
VERTEX
8
1
10
432.135000
20
1069.805000
0
VERTEX
8
1
10
427.615000
20
1073.365000
0
VERTEX
8
1
10
425.810000
20
1085.202500
0
VERTEX
8
1
10
424.255000
20
1093.255000
0
VERTEX
8
1
10
422.342500
20
1101.097500
0
VERTEX
8
1
10
420.497500
20
1106.980000
0
VERTEX
8
1
10
416.835000
20
1118.667500
0
VERTEX
8
1
10
429.085000
20
1118.667500
0
VERTEX
8
1
10
581.682500
20
1118.667500
0
VERTEX
8
1
10
709.275000
20
1118.667500
0
VERTEX
8
1
10
734.275000
20
1118.667500
0
VERTEX
8
1
10
759.275000
20
1118.667500
0
VERTEX
8
1
10
759.275000
20
1109.667500
0
VERTEX
8
1
10
759.275000
20
1089.670000
0
VERTEX
8
1
10
759.275000
20
1069.672500
0
VERTEX
8
1
10
759.275000
20
977.172500
0
VERTEX
8
1
10
759.275000
20
884.672500
0
VERTEX
8
1
10
759.275000
20
792.172500
0
VERTEX
8
1
10
759.275000
20
699.672500
0
VERTEX
8
1
10
759.275000
20
679.675000
0
VERTEX
8
1
10
759.275000
20
659.677500
0
VERTEX
8
1
10
759.275000
20
650.677500
0
VERTEX
8
1
10
734.275000
20
650.677500
0
VERTEX
8
1
10
709.275000
20
650.677500
0
VERTEX
8
1
10
581.682500
20
650.677500
0
VERTEX
8
1
10
429.085000
20
650.677500
0
VERTEX
8
1
10
416.835000
20
650.677500
0
VERTEX
8
1
10
420.497500
20
662.365000
0
VERTEX
8
1
10
422.342500
20
668.247500
0
VERTEX
8
1
10
424.255000
20
676.090000
0
VERTEX
8
1
10
425.810000
20
684.142500
0
VERTEX
8
1
10
427.612500
20
695.975000
0
VERTEX
8
1
10
432.135000
20
699.537500
0
VERTEX
8
1
10
427.432500
20
702.860000
0
VERTEX
8
1
10
425.815000
20
710.685000
0
VERTEX
8
1
10
424.370000
20
716.690000
0
VERTEX
8
1
10
422.687500
20
722.645000
0
VERTEX
8
1
10
420.770000
20
728.297500
0
VERTEX
8
1
10
418.502500
20
733.755000
0
VERTEX
8
1
10
416.747500
20
737.297500
0
VERTEX
8
1
10
414.810000
20
740.695000
0
VERTEX
8
1
10
412.780000
20
743.792500
0
VERTEX
8
1
10
408.350000
20
749.115000
0
VERTEX
8
1
10
403.602500
20
753.702500
0
VERTEX
8
1
10
403.500000
20
759.047500
0
VERTEX
8
1
10
398.165000
20
758.097500
0
VERTEX
8
1
10
397.720000
20
758.435000
0
VERTEX
8
1
10
391.530000
20
762.495000
0
VERTEX
8
1
10
385.077500
20
766.007500
0
VERTEX
8
1
10
378.420000
20
768.990000
0
VERTEX
8
1
10
373.730000
20
770.590000
0
VERTEX
8
1
10
368.917500
20
771.975000
0
VERTEX
8
1
10
363.852500
20
773.182500
0
VERTEX
8
1
10
358.907500
20
774.140000
0
VERTEX
8
1
10
353.702500
20
774.927500
0
VERTEX
8
1
10
348.705000
20
775.490000
0
VERTEX
8
1
10
338.135000
20
776.115000
0
VERTEX
8
1
10
327.580000
20
776.080000
0
VERTEX
8
1
10
317.077500
20
775.485000
0
VERTEX
8
1
10
304.480000
20
774.037500
0
VERTEX
8
1
10
292.030000
20
772.007500
0
VERTEX
8
1
10
279.567500
20
769.460000
0
VERTEX
8
1
10
270.797500
20
767.412500
0
VERTEX
8
1
10
262.080000
20
765.240000
0
VERTEX
8
1
10
256.982500
20
763.922500
0
VERTEX
8
1
10
252.432500
20
766.877500
0
VERTEX
8
1
10
250.292500
20
761.895000
0
VERTEX
8
1
10
247.475000
20
760.910000
0
VERTEX
8
1
10
241.767500
20
758.865000
0
VERTEX
8
1
10
233.057500
20
755.745000
0
VERTEX
8
1
10
230.177500
20
764.535000
0
VERTEX
8
1
10
225.712500
20
778.160000
0
VERTEX
8
1
10
221.247500
20
791.782500
0
VERTEX
8
1
10
218.890000
20
798.980000
0
VERTEX
8
1
10
225.582500
20
802.532500
0
VERTEX
8
1
10
231.322500
20
805.577500
0
VERTEX
8
1
10
236.585000
20
808.367500
0
VERTEX
8
1
10
241.365000
20
811.692500
0
VERTEX
8
1
10
245.762500
20
815.172500
0
VERTEX
8
1
10
249.240000
20
818.770000
0
VERTEX
8
1
10
250.442500
20
820.452500
0
VERTEX
8
1
10
251.597500
20
822.472500
0
VERTEX
8
1
10
252.597500
20
824.687500
0
VERTEX
8
1
10
253.475000
20
827.140000
0
VERTEX
8
1
10
254.215000
20
829.795000
0
VERTEX
8
1
10
254.812500
20
832.557500
0
VERTEX
8
1
10
255.737500
20
838.917500
0
VERTEX
8
1
10
256.297500
20
845.695000
0
VERTEX
8
1
10
256.675000
20
852.747500
0
VERTEX
8
1
10
257.215000
20
881.172500
0
SEQEND
8
1
0
TEXT
8
1
10
319.262500
20
190.445000
40
5.000000
50
-180.000000
1
Piece Name: 新NBA职业球员版.boke_左手心
7
STANDARD
0
TEXT
8
1
10
319.262500
20
185.445000
40
5.000000
50
-180.000000
1
Category: 17
7
STANDARD
0
TEXT
8
1
10
319.262500
20
180.445000
40
5.000000
50
-180.000000
1
Fabric: 面布
7
STANDARD
0
TEXT
8
1
10
319.262500
20
175.445000
40
5.000000
50
-180.000000
1
Size: 100
7
STANDARD
0
POLYLINE
8
1
66
 1
70
1
0
VERTEX
8
1
10
98.407500
20
197.990000
0
VERTEX
8
1
10
113.532500
20
206.442500
0
VERTEX
8
1
10
118.140000
20
209.017500
0
VERTEX
8
1
10
162.330000
20
233.240000
0
VERTEX
8
1
10
207.530000
20
257.130000
0
VERTEX
8
1
10
225.330000
20
265.982500
0
VERTEX
8
1
10
234.697500
20
270.170000
0
VERTEX
8
1
10
244.350000
20
273.965000
0
VERTEX
8
1
10
254.355000
20
277.235000
0
VERTEX
8
1
10
265.152500
20
279.925000
0
VERTEX
8
1
10
287.095000
20
282.000000
0
VERTEX
8
1
10
293.092500
20
281.855000
0
VERTEX
8
1
10
298.840000
20
281.397500
0
VERTEX
8
1
10
304.475000
20
280.612500
0
VERTEX
8
1
10
310.060000
20
279.472500
0
VERTEX
8
1
10
315.587500
20
277.930000
0
VERTEX
8
1
10
320.985000
20
275.980000
0
VERTEX
8
1
10
326.232500
20
273.580000
0
VERTEX
8
1
10
331.357500
20
270.665000
0
VERTEX
8
1
10
335.155000
20
267.900000
0
VERTEX
8
1
10
338.575000
20
265.027500
0
VERTEX
8
1
10
341.827500
20
261.905000
0
VERTEX
8
1
10
344.857500
20
258.622500
0
VERTEX
8
1
10
347.670000
20
255.185000
0
VERTEX
8
1
10
350.375000
20
251.477500
0
VERTEX
8
1
10
354.972500
20
244.007500
0
VERTEX
8
1
10
358.880000
20
235.995000
0
VERTEX
8
1
10
362.042500
20
227.622500
0
VERTEX
8
1
10
363.522500
20
221.745000
0
VERTEX
8
1
10
364.592500
20
216.082500
0
VERTEX
8
1
10
365.337500
20
210.397500
0
VERTEX
8
1
10
365.750000
20
204.747500
0
VERTEX
8
1
10
365.840000
20
201.810000
0
VERTEX
8
1
10
365.847500
20
198.907500
0
VERTEX
8
1
10
365.632500
20
193.282500
0
VERTEX
8
1
10
365.095000
20
187.597500
0
VERTEX
8
1
10
364.240000
20
181.952500
0
VERTEX
8
1
10
363.090000
20
176.420000
0
VERTEX
8
1
10
361.620000
20
170.897500
0
VERTEX
8
1
10
359.852500
20
165.500000
0
VERTEX
8
1
10
357.697500
20
159.987500
0
VERTEX
8
1
10
353.145000
20
150.957500
0
VERTEX
8
1
10
350.332500
20
146.405000
0
VERTEX
8
1
10
347.310000
20
142.132500
0
VERTEX
8
1
10
343.977500
20
138.045000
0
VERTEX
8
1
10
340.170000
20
134.010000
0
VERTEX
8
1
10
332.277500
20
127.577500
0
VERTEX
8
1
10
324.682500
20
122.067500
0
VERTEX
8
1
10
317.882500
20
116.640000
0
VERTEX
8
1
10
315.892500
20
114.717500
0
VERTEX
8
1
10
313.947500
20
112.595000
0
VERTEX
8
1
10
312.175000
20
110.352500
0
VERTEX
8
1
10
310.802500
20
108.362500
0
VERTEX
8
1
10
309.447500
20
106.212500
0
VERTEX
8
1
10
307.972500
20
103.752500
0
VERTEX
8
1
10
305.662500
20
99.900000
0
VERTEX
8
1
10
299.402500
20
99.900000
0
VERTEX
8
1
10
256.905000
20
99.900000
0
VERTEX
8
1
10
253.405000
20
103.897500
0
VERTEX
8
1
10
249.907500
20
99.900000
0
VERTEX
8
1
10
208.905000
20
99.900000
0
VERTEX
8
1
10
138.407500
20
99.900000
0
VERTEX
8
1
10
136.907500
20
99.900000
0
VERTEX
8
1
10
133.407500
20
103.897500
0
VERTEX
8
1
10
129.910000
20
99.900000
0
VERTEX
8
1
10
118.407500
20
99.900000
0
VERTEX
8
1
10
98.407500
20
99.900000
0
VERTEX
8
1
10
98.407500
20
108.900000
0
VERTEX
8
1
10
98.407500
20
153.307500
0
VERTEX
8
1
10
98.407500
20
197.715000
0
VERTEX
8
1
10
98.407500
20
197.990000
0
SEQEND
8
1
0
TEXT
8
1
10
632.180000
20
544.122500
40
5.000000
50
-180.000000
1
Piece Name: 新NBA职业球员版.boke_右手心
7
STANDARD
0
TEXT
8
1
10
632.180000
20
539.122500
40
5.000000
50
-180.000000
1
Category: 19
7
STANDARD
0
TEXT
8
1
10
632.180000
20
534.122500
40
5.000000
50
-180.000000
1
Fabric: 面布
7
STANDARD
0
TEXT
8
1
10
632.180000
20
529.122500
40
5.000000
50
-180.000000
1
Size: 100
7
STANDARD
0
POLYLINE
8
1
66
 1
70
1
0
VERTEX
8
1
10
411.330000
20
551.677500
0
VERTEX
8
1
10
426.455000
20
560.120000
0
VERTEX
8
1
10
431.065000
20
562.692500
0
VERTEX
8
1
10
475.255000
20
586.915000
0
VERTEX
8
1
10
520.452500
20
610.805000
0
VERTEX
8
1
10
538.252500
20
619.657500
0
VERTEX
8
1
10
547.622500
20
623.845000
0
VERTEX
8
1
10
557.272500
20
627.642500
0
VERTEX
8
1
10
567.277500
20
630.912500
0
VERTEX
8
1
10
578.075000
20
633.602500
0
VERTEX
8
1
10
600.020000
20
635.677500
0
VERTEX
8
1
10
606.017500
20
635.532500
0
VERTEX
8
1
10
611.762500
20
635.075000
0
VERTEX
8
1
10
617.397500
20
634.290000
0
VERTEX
8
1
10
622.982500
20
633.147500
0
VERTEX
8
1
10
628.510000
20
631.607500
0
VERTEX
8
1
10
633.910000
20
629.655000
0
VERTEX
8
1
10
639.157500
20
627.257500
0
VERTEX
8
1
10
644.285000
20
624.340000
0
VERTEX
8
1
10
648.080000
20
621.575000
0
VERTEX
8
1
10
651.497500
20
618.702500
0
VERTEX
8
1
10
654.752500
20
615.582500
0
VERTEX
8
1
10
657.785000
20
612.295000
0
VERTEX
8
1
10
660.595000
20
608.860000
0
VERTEX
8
1
10
663.300000
20
605.152500
0
VERTEX
8
1
10
667.897500
20
597.682500
0
VERTEX
8
1
10
671.805000
20
589.670000
0
VERTEX
8
1
10
674.967500
20
581.295000
0
VERTEX
8
1
10
676.447500
20
575.417500
0
VERTEX
8
1
10
677.517500
20
569.755000
0
VERTEX
8
1
10
678.262500
20
564.070000
0
VERTEX
8
1
10
678.675000
20
558.420000
0
VERTEX
8
1
10
678.765000
20
555.480000
0
VERTEX
8
1
10
678.772500
20
552.577500
0
VERTEX
8
1
10
678.557500
20
546.955000
0
VERTEX
8
1
10
678.017500
20
541.270000
0
VERTEX
8
1
10
677.165000
20
535.627500
0
VERTEX
8
1
10
676.012500
20
530.092500
0
VERTEX
8
1
10
674.545000
20
524.572500
0
VERTEX
8
1
10
672.775000
20
519.172500
0
VERTEX
8
1
10
670.620000
20
513.660000
0
VERTEX
8
1
10
666.067500
20
504.632500
0
VERTEX
8
1
10
663.257500
20
500.077500
0
VERTEX
8
1
10
660.232500
20
495.802500
0
VERTEX
8
1
10
656.897500
20
491.715000
0
VERTEX
8
1
10
653.092500
20
487.682500
0
VERTEX
8
1
10
645.200000
20
481.252500
0
VERTEX
8
1
10
637.607500
20
475.740000
0
VERTEX
8
1
10
630.805000
20
470.312500
0
VERTEX
8
1
10
628.815000
20
468.390000
0
VERTEX
8
1
10
626.870000
20
466.265000
0
VERTEX
8
1
10
625.095000
20
464.025000
0
VERTEX
8
1
10
623.725000
20
462.037500
0
VERTEX
8
1
10
622.370000
20
459.882500
0
VERTEX
8
1
10
620.895000
20
457.432500
0
VERTEX
8
1
10
618.577500
20
453.580000
0
VERTEX
8
1
10
612.322500
20
453.580000
0
VERTEX
8
1
10
569.825000
20
453.580000
0
VERTEX
8
1
10
566.325000
20
457.577500
0
VERTEX
8
1
10
562.827500
20
453.580000
0
VERTEX
8
1
10
521.825000
20
453.580000
0
VERTEX
8
1
10
451.325000
20
453.580000
0
VERTEX
8
1
10
449.827500
20
453.580000
0
VERTEX
8
1
10
446.327500
20
457.577500
0
VERTEX
8
1
10
442.830000
20
453.580000
0
VERTEX
8
1
10
431.327500
20
453.580000
0
VERTEX
8
1
10
411.330000
20
453.580000
0
VERTEX
8
1
10
411.330000
20
462.577500
0
VERTEX
8
1
10
411.330000
20
506.985000
0
VERTEX
8
1
10
411.330000
20
551.390000
0
VERTEX
8
1
10
411.330000
20
551.677500
0
SEQEND
8
1
0
TEXT
8
1
10
220.850000
20
366.717500
40
5.000000
50
-180.000000
1
Piece Name: 新NBA职业球员版.boke_右手背
7
STANDARD
0
TEXT
8
1
10
220.850000
20
361.717500
40
5.000000
50
-180.000000
1
Category: 21
7
STANDARD
0
TEXT
8
1
10
220.850000
20
356.717500
40
5.000000
50
-180.000000
1
Fabric: 面布
7
STANDARD
0
TEXT
8
1
10
220.850000
20
351.717500
40
5.000000
50
-180.000000
1
Size: 100
7
STANDARD
0
POLYLINE
8
1
66
 1
70
1
0
VERTEX
8
1
10
0.000000
20
359.165000
0
VERTEX
8
1
10
0.000000
20
359.447500
0
VERTEX
8
1
10
0.000000
20
403.855000
0
VERTEX
8
1
10
0.000000
20
448.260000
0
VERTEX
8
1
10
0.000000
20
457.260000
0
VERTEX
8
1
10
19.997500
20
457.260000
0
VERTEX
8
1
10
31.500000
20
457.260000
0
VERTEX
8
1
10
34.997500
20
453.262500
0
VERTEX
8
1
10
38.497500
20
457.260000
0
VERTEX
8
1
10
39.995000
20
457.260000
0
VERTEX
8
1
10
110.495000
20
457.260000
0
VERTEX
8
1
10
151.497500
20
457.260000
0
VERTEX
8
1
10
154.995000
20
453.262500
0
VERTEX
8
1
10
158.495000
20
457.260000
0
VERTEX
8
1
10
200.992500
20
457.260000
0
VERTEX
8
1
10
207.250000
20
457.260000
0
VERTEX
8
1
10
209.565000
20
453.407500
0
VERTEX
8
1
10
211.040000
20
450.952500
0
VERTEX
8
1
10
212.395000
20
448.800000
0
VERTEX
8
1
10
213.765000
20
446.812500
0
VERTEX
8
1
10
215.540000
20
444.572500
0
VERTEX
8
1
10
217.482500
20
442.450000
0
VERTEX
8
1
10
219.475000
20
440.525000
0
VERTEX
8
1
10
226.275000
20
435.100000
0
VERTEX
8
1
10
233.870000
20
429.587500
0
VERTEX
8
1
10
241.760000
20
423.155000
0
VERTEX
8
1
10
245.567500
20
419.122500
0
VERTEX
8
1
10
248.900000
20
415.035000
0
VERTEX
8
1
10
251.925000
20
410.760000
0
VERTEX
8
1
10
254.735000
20
406.207500
0
VERTEX
8
1
10
259.290000
20
397.177500
0
VERTEX
8
1
10
261.445000
20
391.665000
0
VERTEX
8
1
10
263.212500
20
386.267500
0
VERTEX
8
1
10
264.682500
20
380.745000
0
VERTEX
8
1
10
265.835000
20
375.210000
0
VERTEX
8
1
10
266.687500
20
369.565000
0
VERTEX
8
1
10
267.225000
20
363.885000
0
VERTEX
8
1
10
267.442500
20
358.260000
0
VERTEX
8
1
10
267.437500
20
355.362500
0
VERTEX
8
1
10
267.347500
20
352.415000
0
VERTEX
8
1
10
266.935000
20
346.767500
0
VERTEX
8
1
10
266.190000
20
341.080000
0
VERTEX
8
1
10
265.117500
20
335.420000
0
VERTEX
8
1
10
263.640000
20
329.542500
0
VERTEX
8
1
10
260.477500
20
321.170000
0
VERTEX
8
1
10
256.570000
20
313.157500
0
VERTEX
8
1
10
251.970000
20
305.685000
0
VERTEX
8
1
10
249.265000
20
301.977500
0
VERTEX
8
1
10
246.455000
20
298.542500
0
VERTEX
8
1
10
243.422500
20
295.257500
0
VERTEX
8
1
10
240.170000
20
292.135000
0
VERTEX
8
1
10
236.750000
20
289.265000
0
VERTEX
8
1
10
232.955000
20
286.500000
0
VERTEX
8
1
10
227.830000
20
283.582500
0
VERTEX
8
1
10
222.577500
20
281.182500
0
VERTEX
8
1
10
217.182500
20
279.232500
0
VERTEX
8
1
10
211.655000
20
277.692500
0
VERTEX
8
1
10
206.070000
20
276.550000
0
VERTEX
8
1
10
200.435000
20
275.765000
0
VERTEX
8
1
10
194.690000
20
275.307500
0
VERTEX
8
1
10
188.690000
20
275.160000
0
VERTEX
8
1
10
166.750000
20
277.232500
0
VERTEX
8
1
10
155.950000
20
279.922500
0
VERTEX
8
1
10
145.945000
20
283.192500
0
VERTEX
8
1
10
136.295000
20
286.990000
0
VERTEX
8
1
10
126.925000
20
291.180000
0
VERTEX
8
1
10
109.127500
20
300.030000
0
VERTEX
8
1
10
63.927500
20
323.920000
0
VERTEX
8
1
10
19.740000
20
348.142500
0
VERTEX
8
1
10
15.125000
20
350.720000
0
VERTEX
8
1
10
0.000000
20
359.165000
0
SEQEND
8
1
0
TEXT
8
1
10
362.277500
20
1540.592500
40
5.000000
50
-180.000000
1
Piece Name: 新NBA职业球员版.boke_裤右前
7
STANDARD
0
TEXT
8
1
10
362.277500
20
1535.592500
40
5.000000
50
-180.000000
1
Category: 23
7
STANDARD
0
TEXT
8
1
10
362.277500
20
1530.592500
40
5.000000
50
-180.000000
1
Fabric: 面布
7
STANDARD
0
TEXT
8
1
10
362.277500
20
1525.592500
40
5.000000
50
-180.000000
1
Size: 100
7
STANDARD
0
POLYLINE
8
1
66
 1
70
1
0
VERTEX
8
1
10
382.277500
20
1462.422500
0
VERTEX
8
1
10
357.280000
20
1471.170000
0
VERTEX
8
1
10
332.282500
20
1462.422500
0
VERTEX
8
1
10
315.090000
20
1456.400000
0
VERTEX
8
1
10
311.080000
20
1460.292500
0
VERTEX
8
1
10
310.372500
20
1454.750000
0
VERTEX
8
1
10
309.920000
20
1454.592500
0
VERTEX
8
1
10
259.920000
20
1437.095000
0
VERTEX
8
1
10
245.762500
20
1432.145000
0
VERTEX
8
1
10
244.185000
20
1436.645000
0
VERTEX
8
1
10
212.772500
20
1436.645000
0
VERTEX
8
1
10
210.275000
20
1431.647500
0
VERTEX
8
1
10
207.775000
20
1436.645000
0
VERTEX
8
1
10
147.280000
20
1436.645000
0
VERTEX
8
1
10
94.775000
20
1436.645000
0
VERTEX
8
1
10
92.277500
20
1431.647500
0
VERTEX
8
1
10
89.777500
20
1436.645000
0
VERTEX
8
1
10
54.280000
20
1436.645000
0
VERTEX
8
1
10
37.280000
20
1436.645000
0
VERTEX
8
1
10
20.280000
20
1436.645000
0
VERTEX
8
1
10
20.280000
20
1444.645000
0
VERTEX
8
1
10
20.280000
20
1524.645000
0
VERTEX
8
1
10
20.277500
20
1604.647500
0
VERTEX
8
1
10
20.277500
20
1612.082500
0
VERTEX
8
1
10
37.012500
20
1612.640000
0
VERTEX
8
1
10
73.827500
20
1613.865000
0
VERTEX
8
1
10
111.060000
20
1615.122500
0
VERTEX
8
1
10
148.167500
20
1616.412500
0
VERTEX
8
1
10
159.895000
20
1616.830000
0
VERTEX
8
1
10
171.627500
20
1617.240000
0
VERTEX
8
1
10
183.495000
20
1617.635000
0
VERTEX
8
1
10
194.735000
20
1618.002500
0
VERTEX
8
1
10
205.760000
20
1618.475000
0
VERTEX
8
1
10
216.650000
20
1619.200000
0
VERTEX
8
1
10
221.407500
20
1619.662500
0
VERTEX
8
1
10
226.060000
20
1620.280000
0
VERTEX
8
1
10
230.580000
20
1621.127500
0
VERTEX
8
1
10
234.525000
20
1622.192500
0
VERTEX
8
1
10
237.972500
20
1623.540000
0
VERTEX
8
1
10
240.755000
20
1625.200000
0
VERTEX
8
1
10
242.337500
20
1626.602500
0
VERTEX
8
1
10
243.922500
20
1628.485000
0
VERTEX
8
1
10
245.460000
20
1630.790000
0
VERTEX
8
1
10
246.965000
20
1633.495000
0
VERTEX
8
1
10
250.052500
20
1639.977500
0
VERTEX
8
1
10
252.757500
20
1645.662500
0
VERTEX
8
1
10
258.920000
20
1644.367500
0
VERTEX
8
1
10
274.210000
20
1641.150000
0
VERTEX
8
1
10
289.660000
20
1637.965000
0
VERTEX
8
1
10
305.357500
20
1634.872500
0
VERTEX
8
1
10
322.860000
20
1631.652500
0
VERTEX
8
1
10
332.280000
20
1630.020000
0
VERTEX
8
1
10
341.112500
20
1628.482500
0
VERTEX
8
1
10
357.277500
20
1625.755000
0
VERTEX
8
1
10
373.442500
20
1628.482500
0
VERTEX
8
1
10
382.275000
20
1630.020000
0
VERTEX
8
1
10
382.275000
20
1617.645000
0
VERTEX
8
1
10
382.275000
20
1548.642500
0
VERTEX
8
1
10
382.277500
20
1479.642500
0
VERTEX
8
1
10
382.277500
20
1462.422500
0
SEQEND
8
1
0
TEXT
8
1
10
711.412500
20
274.045000
40
5.000000
50
-180.000000
1
Piece Name: 新NBA职业球员版.boke_裤左后
7
STANDARD
0
TEXT
8
1
10
711.412500
20
269.045000
40
5.000000
50
-180.000000
1
Category: 25
7
STANDARD
0
TEXT
8
1
10
711.412500
20
264.045000
40
5.000000
50
-180.000000
1
Fabric: 面布
7
STANDARD
0
TEXT
8
1
10
711.412500
20
259.045000
40
5.000000
50
-180.000000
1
Size: 100
7
STANDARD
0
POLYLINE
8
1
66
 1
70
1
0
VERTEX
8
1
10
631.377500
20
445.760000
0
VERTEX
8
1
10
640.150000
20
442.742500
0
VERTEX
8
1
10
655.315000
20
437.525000
0
VERTEX
8
1
10
671.670000
20
432.047500
0
VERTEX
8
1
10
693.287500
20
425.120000
0
VERTEX
8
1
10
709.305000
20
420.182500
0
VERTEX
8
1
10
714.695000
20
418.517500
0
VERTEX
8
1
10
734.107500
20
412.645000
0
VERTEX
8
1
10
753.805000
20
417.487500
0
VERTEX
8
1
10
759.275000
20
418.862500
0
VERTEX
8
1
10
758.822500
20
401.620000
0
VERTEX
8
1
10
755.262500
20
267.122500
0
VERTEX
8
1
10
751.702500
20
132.625000
0
VERTEX
8
1
10
751.130000
20
111.227500
0
VERTEX
8
1
10
745.655000
20
113.712500
0
VERTEX
8
1
10
726.427500
20
122.437500
0
VERTEX
8
1
10
706.765000
20
114.732500
0
VERTEX
8
1
10
701.165000
20
112.542500
0
VERTEX
8
1
10
683.167500
20
105.492500
0
VERTEX
8
1
10
668.882500
20
99.900000
0
VERTEX
8
1
10
665.237500
20
109.212500
0
VERTEX
8
1
10
649.817500
20
114.607500
0
VERTEX
8
1
10
625.020000
20
123.282500
0
VERTEX
8
1
10
516.715000
20
123.280000
0
VERTEX
8
1
10
406.715000
20
123.280000
0
VERTEX
8
1
10
390.782500
20
123.280000
0
VERTEX
8
1
10
389.832500
20
131.277500
0
VERTEX
8
1
10
386.685000
20
157.802500
0
VERTEX
8
1
10
390.245000
20
161.747500
0
VERTEX
8
1
10
385.862500
20
164.750000
0
VERTEX
8
1
10
377.282500
20
237.027500
0
VERTEX
8
1
10
364.732500
20
342.777500
0
VERTEX
8
1
10
363.545000
20
352.775000
0
VERTEX
8
1
10
380.480000
20
354.712500
0
VERTEX
8
1
10
461.362500
20
363.962500
0
VERTEX
8
1
10
542.245000
20
373.212500
0
VERTEX
8
1
10
542.915000
20
373.267500
0
VERTEX
8
1
10
551.747500
20
373.677500
0
VERTEX
8
1
10
560.462500
20
374.210000
0
VERTEX
8
1
10
569.047500
20
374.992500
0
VERTEX
8
1
10
572.965000
20
375.485000
0
VERTEX
8
1
10
576.745000
20
376.060000
0
VERTEX
8
1
10
580.590000
20
376.770000
0
VERTEX
8
1
10
583.990000
20
377.545000
0
VERTEX
8
1
10
587.207500
20
378.462500
0
VERTEX
8
1
10
589.842500
20
379.432500
0
VERTEX
8
1
10
595.197500
20
382.357500
0
VERTEX
8
1
10
597.447500
20
383.955000
0
VERTEX
8
1
10
599.807500
20
385.907500
0
VERTEX
8
1
10
602.020000
20
388.005000
0
VERTEX
8
1
10
603.932500
20
390.075000
0
VERTEX
8
1
10
608.480000
20
396.380000
0
VERTEX
8
1
10
612.475000
20
403.437500
0
VERTEX
8
1
10
616.210000
20
411.137500
0
VERTEX
8
1
10
620.102500
20
419.710000
0
VERTEX
8
1
10
623.912500
20
428.405000
0
VERTEX
8
1
10
627.712500
20
437.237500
0
VERTEX
8
1
10
631.377500
20
445.760000
0
SEQEND
8
1
0
TEXT
8
1
10
1589.097500
20
-1073.437500
40
5.000000
50
-180.000000
1
Piece Name: 新NBA职业球员版.boke_裤左前
7
STANDARD
0
TEXT
8
1
10
1589.097500
20
-1078.437500
40
5.000000
50
-180.000000
1
Category: 2
7
STANDARD
0
TEXT
8
1
10
1589.097500
20
-1083.437500
40
5.000000
50
-180.000000
1
Fabric: 面布
7
STANDARD
0
TEXT
8
1
10
1589.097500
20
-1088.437500
40
5.000000
50
-180.000000
1
Size: 5XL
7
STANDARD
0
POLYLINE
8
1
66
 1
70
1
0
VERTEX
8
1
10
1731.597500
20
-920.610000
0
VERTEX
8
1
10
1731.597500
20
-937.832500
0
VERTEX
8
1
10
1731.597500
20
-1071.335000
0
VERTEX
8
1
10
1731.597500
20
-1204.835000
0
VERTEX
8
1
10
1731.597500
20
-1217.165000
0
VERTEX
8
1
10
1706.600000
20
-1212.945000
0
VERTEX
8
1
10
1681.602500
20
-1217.165000
0
VERTEX
8
1
10
1668.920000
20
-1219.310000
0
VERTEX
8
1
10
1629.777500
20
-1226.015000
0
VERTEX
8
1
10
1590.155000
20
-1232.985000
0
VERTEX
8
1
10
1556.422500
20
-1239.120000
0
VERTEX
8
1
10
1522.342500
20
-1245.460000
0
VERTEX
8
1
10
1488.072500
20
-1251.905000
0
VERTEX
8
1
10
1481.745000
20
-1253.092500
0
VERTEX
8
1
10
1479.232500
20
-1247.165000
0
VERTEX
8
1
10
1476.967500
20
-1241.820000
0
VERTEX
8
1
10
1474.627500
20
-1236.670000
0
VERTEX
8
1
10
1472.185000
20
-1231.950000
0
VERTEX
8
1
10
1470.962500
20
-1229.880000
0
VERTEX
8
1
10
1469.715000
20
-1227.985000
0
VERTEX
8
1
10
1466.852500
20
-1224.370000
0
VERTEX
8
1
10
1463.710000
20
-1221.407500
0
VERTEX
8
1
10
1461.497500
20
-1219.832500
0
VERTEX
8
1
10
1458.887500
20
-1218.337500
0
VERTEX
8
1
10
1456.017500
20
-1216.995000
0
VERTEX
8
1
10
1452.950000
20
-1215.807500
0
VERTEX
8
1
10
1446.175000
20
-1213.757500
0
VERTEX
8
1
10
1438.795000
20
-1212.147500
0
VERTEX
8
1
10
1431.220000
20
-1210.907500
0
VERTEX
8
1
10
1423.415000
20
-1209.897500
0
VERTEX
8
1
10
1406.232500
20
-1208.130000
0
VERTEX
8
1
10
1388.667500
20
-1206.777500
0
VERTEX
8
1
10
1371.242500
20
-1205.830000
0
VERTEX
8
1
10
1352.982500
20
-1205.245000
0
VERTEX
8
1
10
1335.000000
20
-1204.890000
0
VERTEX
8
1
10
1316.150000
20
-1204.617500
0
VERTEX
8
1
10
1258.360000
20
-1203.595000
0
VERTEX
8
1
10
1199.517500
20
-1202.275000
0
VERTEX
8
1
10
1141.402500
20
-1200.835000
0
VERTEX
8
1
10
1124.600000
20
-1200.417500
0
VERTEX
8
1
10
1124.600000
20
-1192.837500
0
VERTEX
8
1
10
1124.600000
20
-1047.837500
0
VERTEX
8
1
10
1124.600000
20
-902.835000
0
VERTEX
8
1
10
1124.600000
20
-894.837500
0
VERTEX
8
1
10
1141.600000
20
-894.837500
0
VERTEX
8
1
10
1158.600000
20
-894.837500
0
VERTEX
8
1
10
1204.097500
20
-894.837500
0
VERTEX
8
1
10
1206.597500
20
-889.837500
0
VERTEX
8
1
10
1209.095000
20
-894.837500
0
VERTEX
8
1
10
1352.095000
20
-894.837500
0
VERTEX
8
1
10
1354.595000
20
-889.837500
0
VERTEX
8
1
10
1357.092500
20
-894.837500
0
VERTEX
8
1
10
1374.100000
20
-894.837500
0
VERTEX
8
1
10
1593.505000
20
-894.837500
0
VERTEX
8
1
10
1595.082500
20
-890.332500
0
VERTEX
8
1
10
1609.240000
20
-895.287500
0
VERTEX
8
1
10
1659.240000
20
-912.787500
0
VERTEX
8
1
10
1659.690000
20
-912.947500
0
VERTEX
8
1
10
1660.397500
20
-918.490000
0
VERTEX
8
1
10
1664.407500
20
-914.597500
0
VERTEX
8
1
10
1681.602500
20
-920.610000
0
VERTEX
8
1
10
1706.600000
20
-929.360000
0
VERTEX
8
1
10
1731.597500
20
-920.610000
0
SEQEND
8
1
0
TEXT
8
1
10
251.797500
20
-587.167500
40
5.000000
50
-180.000000
1
Piece Name: 新NBA职业球员版.boke_左手背
7
STANDARD
0
TEXT
8
1
10
251.797500
20
-592.167500
40
5.000000
50
-180.000000
1
Category: 4
7
STANDARD
0
TEXT
8
1
10
251.797500
20
-597.167500
40
5.000000
50
-180.000000
1
Fabric: 面布
7
STANDARD
0
TEXT
8
1
10
251.797500
20
-602.167500
40
5.000000
50
-180.000000
1
Size: 5XL
7
STANDARD
0
POLYLINE
8
1
66
 1
70
1
0
VERTEX
8
1
10
-4.030000
20
-597.377500
0
VERTEX
8
1
10
-4.030000
20
-542.280000
0
VERTEX
8
1
10
-4.030000
20
-485.095000
0
VERTEX
8
1
10
-4.030000
20
-476.097500
0
VERTEX
8
1
10
20.970000
20
-476.097500
0
VERTEX
8
1
10
32.472500
20
-476.097500
0
VERTEX
8
1
10
35.970000
20
-480.095000
0
VERTEX
8
1
10
39.470000
20
-476.097500
0
VERTEX
8
1
10
45.970000
20
-476.097500
0
VERTEX
8
1
10
133.467500
20
-476.097500
0
VERTEX
8
1
10
182.470000
20
-476.097500
0
VERTEX
8
1
10
185.967500
20
-480.095000
0
VERTEX
8
1
10
189.467500
20
-476.097500
0
VERTEX
8
1
10
245.965000
20
-476.097500
0
VERTEX
8
1
10
252.145000
20
-476.097500
0
VERTEX
8
1
10
254.457500
20
-479.820000
0
VERTEX
8
1
10
256.342500
20
-482.857500
0
VERTEX
8
1
10
258.167500
20
-485.655000
0
VERTEX
8
1
10
259.960000
20
-488.165000
0
VERTEX
8
1
10
262.330000
20
-491.057500
0
VERTEX
8
1
10
264.957500
20
-493.845000
0
VERTEX
8
1
10
267.605000
20
-496.320000
0
VERTEX
8
1
10
276.270000
20
-503.012500
0
VERTEX
8
1
10
285.907500
20
-509.777500
0
VERTEX
8
1
10
295.742500
20
-517.540000
0
VERTEX
8
1
10
300.430000
20
-522.347500
0
VERTEX
8
1
10
304.542500
20
-527.237500
0
VERTEX
8
1
10
308.317500
20
-532.397500
0
VERTEX
8
1
10
311.807500
20
-537.855000
0
VERTEX
8
1
10
317.600000
20
-548.907500
0
VERTEX
8
1
10
320.315000
20
-555.542500
0
VERTEX
8
1
10
322.577500
20
-562.110000
0
VERTEX
8
1
10
324.490000
20
-568.860000
0
VERTEX
8
1
10
326.012500
20
-575.635000
0
VERTEX
8
1
10
327.170000
20
-582.552500
0
VERTEX
8
1
10
327.935000
20
-589.465000
0
VERTEX
8
1
10
328.315000
20
-596.410000
0
VERTEX
8
1
10
328.360000
20
-599.967500
0
VERTEX
8
1
10
328.310000
20
-603.477500
0
VERTEX
8
1
10
327.907500
20
-610.482500
0
VERTEX
8
1
10
327.110000
20
-617.460000
0
VERTEX
8
1
10
325.907500
20
-624.382500
0
VERTEX
8
1
10
324.220000
20
-631.575000
0
VERTEX
8
1
10
320.512500
20
-641.882500
0
VERTEX
8
1
10
315.952500
20
-651.617500
0
VERTEX
8
1
10
313.247500
20
-656.447500
0
VERTEX
8
1
10
310.322500
20
-661.102500
0
VERTEX
8
1
10
307.240000
20
-665.467500
0
VERTEX
8
1
10
305.567500
20
-667.640000
0
VERTEX
8
1
10
303.767500
20
-669.847500
0
VERTEX
8
1
10
300.200000
20
-673.837500
0
VERTEX
8
1
10
296.340000
20
-677.660000
0
VERTEX
8
1
10
292.242500
20
-681.215000
0
VERTEX
8
1
10
287.700000
20
-684.632500
0
VERTEX
8
1
10
281.582500
20
-688.240000
0
VERTEX
8
1
10
275.247500
20
-691.260000
0
VERTEX
8
1
10
268.752500
20
-693.725000
0
VERTEX
8
1
10
262.047500
20
-695.705000
0
VERTEX
8
1
10
255.200000
20
-697.222500
0
VERTEX
8
1
10
248.332500
20
-698.287500
0
VERTEX
8
1
10
241.452500
20
-698.947500
0
VERTEX
8
1
10
237.882500
20
-699.137500
0
VERTEX
8
1
10
234.270000
20
-699.240000
0
VERTEX
8
1
10
227.427500
20
-699.172500
0
VERTEX
8
1
10
220.437500
20
-698.772500
0
VERTEX
8
1
10
213.555000
20
-698.067500
0
VERTEX
8
1
10
206.572500
20
-697.047500
0
VERTEX
8
1
10
193.647500
20
-694.042500
0
VERTEX
8
1
10
181.187500
20
-690.187500
0
VERTEX
8
1
10
169.177500
20
-685.682500
0
VERTEX
8
1
10
157.530000
20
-680.692500
0
VERTEX
8
1
10
135.050000
20
-669.952500
0
VERTEX
8
1
10
78.367500
20
-641.127500
0
VERTEX
8
1
10
21.937500
20
-611.340000
0
VERTEX
8
1
10
16.232500
20
-608.272500
0
VERTEX
8
1
10
-4.030000
20
-597.377500
0
SEQEND
8
1
0
TEXT
8
1
10
793.392500
20
-754.747500
40
5.000000
50
-180.000000
1
Piece Name: 新NBA职业球员版.boke_裤右后
7
STANDARD
0
TEXT
8
1
10
793.392500
20
-759.747500
40
5.000000
50
-180.000000
1
Category: 6
7
STANDARD
0
TEXT
8
1
10
793.392500
20
-764.747500
40
5.000000
50
-180.000000
1
Fabric: 面布
7
STANDARD
0
TEXT
8
1
10
793.392500
20
-769.747500
40
5.000000
50
-180.000000
1
Size: 5XL
7
STANDARD
0
POLYLINE
8
1
66
 1
70
1
0
VERTEX
8
1
10
726.797500
20
-1030.967500
0
VERTEX
8
1
10
723.777500
20
-1021.545000
0
VERTEX
8
1
10
719.030000
20
-1006.725000
0
VERTEX
8
1
10
714.087500
20
-991.647500
0
VERTEX
8
1
10
709.045000
20
-976.922500
0
VERTEX
8
1
10
704.025000
20
-963.402500
0
VERTEX
8
1
10
701.342500
20
-957.007500
0
VERTEX
8
1
10
698.405000
20
-950.780000
0
VERTEX
8
1
10
695.210000
20
-944.867500
0
VERTEX
8
1
10
691.712500
20
-939.315000
0
VERTEX
8
1
10
688.472500
20
-935.050000
0
VERTEX
8
1
10
684.892500
20
-930.930000
0
VERTEX
8
1
10
681.060000
20
-927.090000
0
VERTEX
8
1
10
677.137500
20
-923.690000
0
VERTEX
8
1
10
668.172500
20
-917.610000
0
VERTEX
8
1
10
663.322500
20
-915.277500
0
VERTEX
8
1
10
657.862500
20
-913.130000
0
VERTEX
8
1
10
652.175000
20
-911.242500
0
VERTEX
8
1
10
645.907500
20
-909.447500
0
VERTEX
8
1
10
639.407500
20
-907.807500
0
VERTEX
8
1
10
632.945000
20
-906.357500
0
VERTEX
8
1
10
618.970000
20
-903.715000
0
VERTEX
8
1
10
604.542500
20
-901.430000
0
VERTEX
8
1
10
590.482500
20
-899.410000
0
VERTEX
8
1
10
460.430000
20
-886.680000
0
VERTEX
8
1
10
330.180000
20
-873.930000
0
VERTEX
8
1
10
313.100000
20
-872.257500
0
VERTEX
8
1
10
314.265000
20
-862.050000
0
VERTEX
8
1
10
334.515000
20
-684.800000
0
VERTEX
8
1
10
349.800000
20
-551.027500
0
VERTEX
8
1
10
354.170000
20
-548.002500
0
VERTEX
8
1
10
350.595000
20
-544.075000
0
VERTEX
8
1
10
354.765000
20
-507.550000
0
VERTEX
8
1
10
355.685000
20
-499.480000
0
VERTEX
8
1
10
371.655000
20
-499.480000
0
VERTEX
8
1
10
604.155000
20
-499.482500
0
VERTEX
8
1
10
834.957500
20
-499.482500
0
VERTEX
8
1
10
859.757500
20
-490.805000
0
VERTEX
8
1
10
875.182500
20
-485.407500
0
VERTEX
8
1
10
878.827500
20
-476.097500
0
VERTEX
8
1
10
893.107500
20
-481.690000
0
VERTEX
8
1
10
911.115000
20
-488.742500
0
VERTEX
8
1
10
916.705000
20
-490.932500
0
VERTEX
8
1
10
936.375000
20
-498.635000
0
VERTEX
8
1
10
955.620000
20
-489.927500
0
VERTEX
8
1
10
961.090000
20
-487.452500
0
VERTEX
8
1
10
961.645000
20
-508.837500
0
VERTEX
8
1
10
967.445000
20
-732.835000
0
VERTEX
8
1
10
973.245000
20
-956.832500
0
VERTEX
8
1
10
973.660000
20
-972.997500
0
VERTEX
8
1
10
948.517500
20
-967.747500
0
VERTEX
8
1
10
923.680000
20
-974.292500
0
VERTEX
8
1
10
907.740000
20
-978.497500
0
VERTEX
8
1
10
865.262500
20
-989.947500
0
VERTEX
8
1
10
822.435000
20
-1001.997500
0
VERTEX
8
1
10
790.705000
20
-1011.370000
0
VERTEX
8
1
10
758.337500
20
-1021.225000
0
VERTEX
8
1
10
736.247500
20
-1028.050000
0
VERTEX
8
1
10
726.797500
20
-1030.967500
0
SEQEND
8
1
0
TEXT
8
1
10
592.912500
20
-1600.490000
40
5.000000
50
-180.000000
1
Piece Name: 新NBA职业球员版.boke_前片
7
STANDARD
0
TEXT
8
1
10
592.912500
20
-1605.490000
40
5.000000
50
-180.000000
1
Category: 14
7
STANDARD
0
TEXT
8
1
10
592.912500
20
-1610.490000
40
5.000000
50
-180.000000
1
Fabric: 面布
7
STANDARD
0
TEXT
8
1
10
592.912500
20
-1615.490000
40
5.000000
50
-180.000000
1
Size: 5XL
7
STANDARD
0
POLYLINE
8
1
66
 1
70
1
0
VERTEX
8
1
10
103.790000
20
-1735.492500
0
VERTEX
8
1
10
99.560000
20
-1732.002500
0
VERTEX
8
1
10
99.287500
20
-1727.985000
0
VERTEX
8
1
10
98.472500
20
-1720.315000
0
VERTEX
8
1
10
97.130000
20
-1713.117500
0
VERTEX
8
1
10
95.287500
20
-1706.952500
0
VERTEX
8
1
10
92.810000
20
-1700.965000
0
VERTEX
8
1
10
89.665000
20
-1695.010000
0
VERTEX
8
1
10
87.932500
20
-1692.195000
0
VERTEX
8
1
10
86.072500
20
-1689.422500
0
VERTEX
8
1
10
81.820000
20
-1683.820000
0
VERTEX
8
1
10
77.135000
20
-1678.465000
0
VERTEX
8
1
10
72.050000
20
-1673.357500
0
VERTEX
8
1
10
66.560000
20
-1668.445000
0
VERTEX
8
1
10
60.762500
20
-1663.787500
0
VERTEX
8
1
10
54.712500
20
-1659.402500
0
VERTEX
8
1
10
48.560000
20
-1655.360000
0
VERTEX
8
1
10
42.350000
20
-1651.655000
0
VERTEX
8
1
10
32.785000
20
-1646.995000
0
VERTEX
8
1
10
22.977500
20
-1642.870000
0
VERTEX
8
1
10
12.917500
20
-1639.170000
0
VERTEX
8
1
10
0.510000
20
-1635.185000
0
VERTEX
8
1
10
-12.022500
20
-1631.637500
0
VERTEX
8
1
10
-24.912500
20
-1628.372500
0
VERTEX
8
1
10
-37.677500
20
-1625.422500
0
VERTEX
8
1
10
-51.355000
20
-1622.502500
0
VERTEX
8
1
10
-61.280000
20
-1620.382500
0
VERTEX
8
1
10
-57.990000
20
-1610.782500
0
VERTEX
8
1
10
-48.295000
20
-1582.517500
0
VERTEX
8
1
10
-38.600000
20
-1554.250000
0
VERTEX
8
1
10
-35.930000
20
-1546.467500
0
VERTEX
8
1
10
-27.940000
20
-1548.430000
0
VERTEX
8
1
10
-17.380000
20
-1551.025000
0
VERTEX
8
1
10
-5.950000
20
-1553.662500
0
VERTEX
8
1
10
6.590000
20
-1556.290000
0
VERTEX
8
1
10
19.007500
20
-1558.605000
0
VERTEX
8
1
10
31.685000
20
-1560.680000
0
VERTEX
8
1
10
44.097500
20
-1562.440000
0
VERTEX
8
1
10
69.487500
20
-1565.215000
0
VERTEX
8
1
10
82.477500
20
-1566.107500
0
VERTEX
8
1
10
95.330000
20
-1566.605000
0
VERTEX
8
1
10
108.275000
20
-1566.605000
0
VERTEX
8
1
10
114.622500
20
-1566.390000
0
VERTEX
8
1
10
121.022500
20
-1566.010000
0
VERTEX
8
1
10
133.750000
20
-1564.715000
0
VERTEX
8
1
10
146.467500
20
-1562.607500
0
VERTEX
8
1
10
154.127500
20
-1560.762500
0
VERTEX
8
1
10
161.900000
20
-1558.527500
0
VERTEX
8
1
10
169.552500
20
-1555.945000
0
VERTEX
8
1
10
176.997500
20
-1553.030000
0
VERTEX
8
1
10
184.345000
20
-1549.722500
0
VERTEX
8
1
10
191.372500
20
-1546.090000
0
VERTEX
8
1
10
198.182500
20
-1542.062500
0
VERTEX
8
1
10
201.400000
20
-1539.957500
0
VERTEX
8
1
10
204.480000
20
-1537.797500
0
VERTEX
8
1
10
210.590000
20
-1533.045000
0
VERTEX
8
1
10
216.177500
20
-1528.022500
0
VERTEX
8
1
10
221.317500
20
-1522.640000
0
VERTEX
8
1
10
225.840000
20
-1517.057500
0
VERTEX
8
1
10
229.780000
20
-1510.615000
0
VERTEX
8
1
10
233.365000
20
-1503.572500
0
VERTEX
8
1
10
236.500000
20
-1496.230000
0
VERTEX
8
1
10
237.032500
20
-1494.762500
0
VERTEX
8
1
10
241.985000
20
-1492.830000
0
VERTEX
8
1
10
239.330000
20
-1488.155000
0
VERTEX
8
1
10
240.767500
20
-1483.542500
0
VERTEX
8
1
10
242.507500
20
-1477.055000
0
VERTEX
8
1
10
243.997500
20
-1470.527500
0
VERTEX
8
1
10
245.200000
20
-1463.887500
0
VERTEX
8
1
10
246.587500
20
-1456.225000
0
VERTEX
8
1
10
254.367500
20
-1456.495000
0
VERTEX
8
1
10
314.565000
20
-1458.592500
0
VERTEX
8
1
10
374.027500
20
-1460.447500
0
VERTEX
8
1
10
433.870000
20
-1461.867500
0
VERTEX
8
1
10
499.352500
20
-1462.750000
0
VERTEX
8
1
10
564.652500
20
-1463.112500
0
VERTEX
8
1
10
630.022500
20
-1463.225000
0
VERTEX
8
1
10
683.642500
20
-1463.302500
0
VERTEX
8
1
10
737.220000
20
-1463.390000
0
VERTEX
8
1
10
765.805000
20
-1463.437500
0
VERTEX
8
1
10
790.805000
20
-1463.482500
0
VERTEX
8
1
10
815.805000
20
-1463.437500
0
VERTEX
8
1
10
815.805000
20
-1472.482500
0
VERTEX
8
1
10
815.805000
20
-1603.987500
0
VERTEX
8
1
10
815.805000
20
-1735.492500
0
VERTEX
8
1
10
815.805000
20
-1866.997500
0
VERTEX
8
1
10
815.805000
20
-1998.502500
0
VERTEX
8
1
10
815.805000
20
-2007.547500
0
VERTEX
8
1
10
790.805000
20
-2007.502500
0
VERTEX
8
1
10
765.805000
20
-2007.547500
0
VERTEX
8
1
10
737.220000
20
-2007.595000
0
VERTEX
8
1
10
683.642500
20
-2007.682500
0
VERTEX
8
1
10
630.022500
20
-2007.760000
0
VERTEX
8
1
10
564.652500
20
-2007.872500
0
VERTEX
8
1
10
499.352500
20
-2008.235000
0
VERTEX
8
1
10
433.870000
20
-2009.117500
0
VERTEX
8
1
10
374.027500
20
-2010.537500
0
VERTEX
8
1
10
314.565000
20
-2012.392500
0
VERTEX
8
1
10
254.367500
20
-2014.490000
0
VERTEX
8
1
10
246.587500
20
-2014.760000
0
VERTEX
8
1
10
245.200000
20
-2007.097500
0
VERTEX
8
1
10
243.997500
20
-2000.457500
0
VERTEX
8
1
10
242.507500
20
-1993.930000
0
VERTEX
8
1
10
240.767500
20
-1987.442500
0
VERTEX
8
1
10
239.332500
20
-1982.837500
0
VERTEX
8
1
10
241.985000
20
-1978.157500
0
VERTEX
8
1
10
237.035000
20
-1976.230000
0
VERTEX
8
1
10
236.500000
20
-1974.755000
0
VERTEX
8
1
10
233.365000
20
-1967.412500
0
VERTEX
8
1
10
229.780000
20
-1960.370000
0
VERTEX
8
1
10
225.840000
20
-1953.927500
0
VERTEX
8
1
10
221.317500
20
-1948.345000
0
VERTEX
8
1
10
216.177500
20
-1942.962500
0
VERTEX
8
1
10
210.590000
20
-1937.940000
0
VERTEX
8
1
10
204.480000
20
-1933.187500
0
VERTEX
8
1
10
201.400000
20
-1931.027500
0
VERTEX
8
1
10
198.182500
20
-1928.922500
0
VERTEX
8
1
10
191.372500
20
-1924.895000
0
VERTEX
8
1
10
184.345000
20
-1921.262500
0
VERTEX
8
1
10
176.997500
20
-1917.955000
0
VERTEX
8
1
10
169.552500
20
-1915.040000
0
VERTEX
8
1
10
161.900000
20
-1912.457500
0
VERTEX
8
1
10
154.127500
20
-1910.222500
0
VERTEX
8
1
10
146.467500
20
-1908.377500
0
VERTEX
8
1
10
133.750000
20
-1906.270000
0
VERTEX
8
1
10
121.022500
20
-1904.975000
0
VERTEX
8
1
10
114.622500
20
-1904.595000
0
VERTEX
8
1
10
108.275000
20
-1904.380000
0
VERTEX
8
1
10
95.330000
20
-1904.380000
0
VERTEX
8
1
10
82.477500
20
-1904.877500
0
VERTEX
8
1
10
69.487500
20
-1905.770000
0
VERTEX
8
1
10
44.097500
20
-1908.545000
0
VERTEX
8
1
10
31.685000
20
-1910.305000
0
VERTEX
8
1
10
19.007500
20
-1912.380000
0
VERTEX
8
1
10
6.590000
20
-1914.695000
0
VERTEX
8
1
10
-5.950000
20
-1917.322500
0
VERTEX
8
1
10
-17.380000
20
-1919.960000
0
VERTEX
8
1
10
-27.940000
20
-1922.555000
0
VERTEX
8
1
10
-35.930000
20
-1924.517500
0
VERTEX
8
1
10
-38.600000
20
-1916.735000
0
VERTEX
8
1
10
-48.295000
20
-1888.467500
0
VERTEX
8
1
10
-57.990000
20
-1860.202500
0
VERTEX
8
1
10
-61.280000
20
-1850.602500
0
VERTEX
8
1
10
-51.355000
20
-1848.482500
0
VERTEX
8
1
10
-37.677500
20
-1845.562500
0
VERTEX
8
1
10
-24.912500
20
-1842.612500
0
VERTEX
8
1
10
-12.022500
20
-1839.347500
0
VERTEX
8
1
10
0.510000
20
-1835.800000
0
VERTEX
8
1
10
12.917500
20
-1831.815000
0
VERTEX
8
1
10
22.977500
20
-1828.115000
0
VERTEX
8
1
10
32.785000
20
-1823.990000
0
VERTEX
8
1
10
42.350000
20
-1819.330000
0
VERTEX
8
1
10
48.560000
20
-1815.625000
0
VERTEX
8
1
10
54.712500
20
-1811.582500
0
VERTEX
8
1
10
60.762500
20
-1807.197500
0
VERTEX
8
1
10
66.560000
20
-1802.540000
0
VERTEX
8
1
10
72.050000
20
-1797.627500
0
VERTEX
8
1
10
77.135000
20
-1792.520000
0
VERTEX
8
1
10
81.820000
20
-1787.165000
0
VERTEX
8
1
10
86.072500
20
-1781.562500
0
VERTEX
8
1
10
87.932500
20
-1778.790000
0
VERTEX
8
1
10
89.665000
20
-1775.975000
0
VERTEX
8
1
10
92.810000
20
-1770.020000
0
VERTEX
8
1
10
95.287500
20
-1764.032500
0
VERTEX
8
1
10
97.130000
20
-1757.867500
0
VERTEX
8
1
10
98.472500
20
-1750.670000
0
VERTEX
8
1
10
99.287500
20
-1743.000000
0
VERTEX
8
1
10
99.560000
20
-1738.985000
0
SEQEND
8
1
0
TEXT
8
1
10
1547.925000
20
-1482.105000
40
5.000000
50
-180.000000
1
Piece Name: 新NBA职业球员版.boke_后片
7
STANDARD
0
TEXT
8
1
10
1547.925000
20
-1487.105000
40
5.000000
50
-180.000000
1
Category: 16
7
STANDARD
0
TEXT
8
1
10
1547.925000
20
-1492.105000
40
5.000000
50
-180.000000
1
Fabric: 面布
7
STANDARD
0
TEXT
8
1
10
1547.925000
20
-1497.105000
40
5.000000
50
-180.000000
1
Size: 5XL
7
STANDARD
0
POLYLINE
8
1
66
 1
70
1
0
VERTEX
8
1
10
878.600000
20
-1667.102500
0
VERTEX
8
1
10
874.712500
20
-1663.607500
0
VERTEX
8
1
10
876.192500
20
-1619.790000
0
VERTEX
8
1
10
876.187500
20
-1609.345000
0
VERTEX
8
1
10
875.887500
20
-1599.270000
0
VERTEX
8
1
10
875.005000
20
-1589.650000
0
VERTEX
8
1
10
874.307500
20
-1585.320000
0
VERTEX
8
1
10
873.367500
20
-1581.105000
0
VERTEX
8
1
10
872.197500
20
-1577.190000
0
VERTEX
8
1
10
870.760000
20
-1573.505000
0
VERTEX
8
1
10
869.062500
20
-1570.122500
0
VERTEX
8
1
10
867.040000
20
-1566.955000
0
VERTEX
8
1
10
864.745000
20
-1564.075000
0
VERTEX
8
1
10
862.047500
20
-1561.225000
0
VERTEX
8
1
10
858.985000
20
-1558.392500
0
VERTEX
8
1
10
855.635000
20
-1555.577500
0
VERTEX
8
1
10
848.832500
20
-1550.292500
0
VERTEX
8
1
10
843.840000
20
-1547.887500
0
VERTEX
8
1
10
837.987500
20
-1545.067500
0
VERTEX
8
1
10
830.805000
20
-1541.605000
0
VERTEX
8
1
10
833.377500
20
-1534.055000
0
VERTEX
8
1
10
843.027500
20
-1505.775000
0
VERTEX
8
1
10
852.677500
20
-1477.492500
0
VERTEX
8
1
10
855.855000
20
-1468.175000
0
VERTEX
8
1
10
864.860000
20
-1472.180000
0
VERTEX
8
1
10
866.012500
20
-1472.692500
0
VERTEX
8
1
10
872.582500
20
-1475.560000
0
VERTEX
8
1
10
874.602500
20
-1480.777500
0
VERTEX
8
1
10
879.222500
20
-1477.625000
0
VERTEX
8
1
10
889.787500
20
-1479.672500
0
VERTEX
8
1
10
904.570000
20
-1482.422500
0
VERTEX
8
1
10
919.482500
20
-1484.962500
0
VERTEX
8
1
10
940.640000
20
-1487.967500
0
VERTEX
8
1
10
951.367500
20
-1489.172500
0
VERTEX
8
1
10
961.872500
20
-1490.122500
0
VERTEX
8
1
10
972.532500
20
-1490.832500
0
VERTEX
8
1
10
983.130000
20
-1491.270000
0
VERTEX
8
1
10
1001.157500
20
-1491.202500
0
VERTEX
8
1
10
1010.095000
20
-1490.817500
0
VERTEX
8
1
10
1019.027500
20
-1490.175000
0
VERTEX
8
1
10
1027.880000
20
-1489.257500
0
VERTEX
8
1
10
1036.725000
20
-1488.045000
0
VERTEX
8
1
10
1045.502500
20
-1486.512500
0
VERTEX
8
1
10
1054.055000
20
-1484.685000
0
VERTEX
8
1
10
1062.602500
20
-1482.487500
0
VERTEX
8
1
10
1071.040000
20
-1479.925000
0
VERTEX
8
1
10
1079.315000
20
-1476.990000
0
VERTEX
8
1
10
1087.315000
20
-1473.710000
0
VERTEX
8
1
10
1092.852500
20
-1470.945000
0
VERTEX
8
1
10
1098.482500
20
-1467.862500
0
VERTEX
8
1
10
1103.917500
20
-1464.610000
0
VERTEX
8
1
10
1109.302500
20
-1461.092500
0
VERTEX
8
1
10
1114.447500
20
-1457.422500
0
VERTEX
8
1
10
1119.470000
20
-1453.505000
0
VERTEX
8
1
10
1124.245000
20
-1449.417500
0
VERTEX
8
1
10
1126.460000
20
-1447.387500
0
VERTEX
8
1
10
1128.770000
20
-1445.160000
0
VERTEX
8
1
10
1133.070000
20
-1440.707500
0
VERTEX
8
1
10
1135.465000
20
-1437.957500
0
VERTEX
8
1
10
1140.872500
20
-1437.742500
0
VERTEX
8
1
10
1139.872500
20
-1432.525000
0
VERTEX
8
1
10
1140.897500
20
-1431.205000
0
VERTEX
8
1
10
1144.275000
20
-1426.322500
0
VERTEX
8
1
10
1147.667500
20
-1420.395000
0
VERTEX
8
1
10
1150.722500
20
-1414.192500
0
VERTEX
8
1
10
1153.402500
20
-1407.850000
0
VERTEX
8
1
10
1156.772500
20
-1398.105000
0
VERTEX
8
1
10
1159.480000
20
-1388.202500
0
VERTEX
8
1
10
1161.722500
20
-1377.897500
0
VERTEX
8
1
10
1163.580000
20
-1367.422500
0
VERTEX
8
1
10
1166.045000
20
-1350.335000
0
VERTEX
8
1
10
1170.540000
20
-1346.972500
0
VERTEX
8
1
10
1166.230000
20
-1343.387500
0
VERTEX
8
1
10
1164.050000
20
-1319.415000
0
VERTEX
8
1
10
1162.245000
20
-1305.667500
0
VERTEX
8
1
10
1160.990000
20
-1298.700000
0
VERTEX
8
1
10
1159.085000
20
-1288.107500
0
VERTEX
8
1
10
1169.847500
20
-1288.107500
0
VERTEX
8
1
10
1438.225000
20
-1288.107500
0
VERTEX
8
1
10
1681.597500
20
-1288.107500
0
VERTEX
8
1
10
1706.597500
20
-1288.107500
0
VERTEX
8
1
10
1731.597500
20
-1288.107500
0
VERTEX
8
1
10
1731.597500
20
-1297.107500
0
VERTEX
8
1
10
1731.597500
20
-1322.105000
0
VERTEX
8
1
10
1731.597500
20
-1347.102500
0
VERTEX
8
1
10
1731.597500
20
-1507.102500
0
VERTEX
8
1
10
1731.597500
20
-1667.102500
0
VERTEX
8
1
10
1731.597500
20
-1827.102500
0
VERTEX
8
1
10
1731.597500
20
-1987.102500
0
VERTEX
8
1
10
1731.597500
20
-2012.100000
0
VERTEX
8
1
10
1731.597500
20
-2037.097500
0
VERTEX
8
1
10
1731.597500
20
-2046.097500
0
VERTEX
8
1
10
1706.597500
20
-2046.097500
0
VERTEX
8
1
10
1681.597500
20
-2046.097500
0
VERTEX
8
1
10
1438.225000
20
-2046.097500
0
VERTEX
8
1
10
1169.847500
20
-2046.097500
0
VERTEX
8
1
10
1159.085000
20
-2046.097500
0
VERTEX
8
1
10
1160.990000
20
-2035.505000
0
VERTEX
8
1
10
1162.245000
20
-2028.537500
0
VERTEX
8
1
10
1164.050000
20
-2014.790000
0
VERTEX
8
1
10
1166.227500
20
-1990.822500
0
VERTEX
8
1
10
1170.540000
20
-1987.235000
0
VERTEX
8
1
10
1166.045000
20
-1983.875000
0
VERTEX
8
1
10
1163.580000
20
-1966.782500
0
VERTEX
8
1
10
1161.722500
20
-1956.307500
0
VERTEX
8
1
10
1159.480000
20
-1946.002500
0
VERTEX
8
1
10
1156.772500
20
-1936.100000
0
VERTEX
8
1
10
1153.402500
20
-1926.355000
0
VERTEX
8
1
10
1150.722500
20
-1920.012500
0
VERTEX
8
1
10
1147.667500
20
-1913.810000
0
VERTEX
8
1
10
1144.275000
20
-1907.882500
0
VERTEX
8
1
10
1140.897500
20
-1903.000000
0
VERTEX
8
1
10
1139.872500
20
-1901.685000
0
VERTEX
8
1
10
1140.872500
20
-1896.465000
0
VERTEX
8
1
10
1135.465000
20
-1896.252500
0
VERTEX
8
1
10
1133.070000
20
-1893.497500
0
VERTEX
8
1
10
1128.770000
20
-1889.045000
0
VERTEX
8
1
10
1126.460000
20
-1886.817500
0
VERTEX
8
1
10
1124.245000
20
-1884.787500
0
VERTEX
8
1
10
1119.470000
20
-1880.700000
0
VERTEX
8
1
10
1114.447500
20
-1876.782500
0
VERTEX
8
1
10
1109.302500
20
-1873.112500
0
VERTEX
8
1
10
1103.917500
20
-1869.595000
0
VERTEX
8
1
10
1098.482500
20
-1866.342500
0
VERTEX
8
1
10
1092.852500
20
-1863.260000
0
VERTEX
8
1
10
1087.315000
20
-1860.495000
0
VERTEX
8
1
10
1079.315000
20
-1857.215000
0
VERTEX
8
1
10
1071.040000
20
-1854.280000
0
VERTEX
8
1
10
1062.602500
20
-1851.717500
0
VERTEX
8
1
10
1054.055000
20
-1849.520000
0
VERTEX
8
1
10
1045.502500
20
-1847.692500
0
VERTEX
8
1
10
1036.725000
20
-1846.160000
0
VERTEX
8
1
10
1027.880000
20
-1844.947500
0
VERTEX
8
1
10
1019.027500
20
-1844.030000
0
VERTEX
8
1
10
1010.095000
20
-1843.387500
0
VERTEX
8
1
10
1001.157500
20
-1843.002500
0
VERTEX
8
1
10
983.130000
20
-1842.935000
0
VERTEX
8
1
10
972.532500
20
-1843.372500
0
VERTEX
8
1
10
961.872500
20
-1844.082500
0
VERTEX
8
1
10
951.367500
20
-1845.032500
0
VERTEX
8
1
10
940.640000
20
-1846.237500
0
VERTEX
8
1
10
919.482500
20
-1849.242500
0
VERTEX
8
1
10
904.570000
20
-1851.782500
0
VERTEX
8
1
10
889.787500
20
-1854.532500
0
VERTEX
8
1
10
879.222500
20
-1856.582500
0
VERTEX
8
1
10
874.602500
20
-1853.430000
0
VERTEX
8
1
10
872.582500
20
-1858.647500
0
VERTEX
8
1
10
866.012500
20
-1861.512500
0
VERTEX
8
1
10
864.860000
20
-1862.025000
0
VERTEX
8
1
10
855.855000
20
-1866.030000
0
VERTEX
8
1
10
852.677500
20
-1856.712500
0
VERTEX
8
1
10
843.027500
20
-1828.430000
0
VERTEX
8
1
10
833.377500
20
-1800.150000
0
VERTEX
8
1
10
830.805000
20
-1792.600000
0
VERTEX
8
1
10
837.987500
20
-1789.137500
0
VERTEX
8
1
10
843.840000
20
-1786.317500
0
VERTEX
8
1
10
848.832500
20
-1783.912500
0
VERTEX
8
1
10
855.635000
20
-1778.627500
0
VERTEX
8
1
10
858.985000
20
-1775.812500
0
VERTEX
8
1
10
862.047500
20
-1772.980000
0
VERTEX
8
1
10
864.745000
20
-1770.130000
0
VERTEX
8
1
10
867.040000
20
-1767.250000
0
VERTEX
8
1
10
869.062500
20
-1764.082500
0
VERTEX
8
1
10
870.760000
20
-1760.700000
0
VERTEX
8
1
10
872.197500
20
-1757.015000
0
VERTEX
8
1
10
873.367500
20
-1753.100000
0
VERTEX
8
1
10
874.307500
20
-1748.885000
0
VERTEX
8
1
10
875.005000
20
-1744.555000
0
VERTEX
8
1
10
875.887500
20
-1734.935000
0
VERTEX
8
1
10
876.187500
20
-1724.860000
0
VERTEX
8
1
10
876.192500
20
-1714.415000
0
VERTEX
8
1
10
874.712500
20
-1670.600000
0
SEQEND
8
1
0
TEXT
8
1
10
884.742500
20
-1123.355000
40
5.000000
50
-180.000000
1
Piece Name: 新NBA职业球员版.boke_左手心
7
STANDARD
0
TEXT
8
1
10
884.742500
20
-1128.355000
40
5.000000
50
-180.000000
1
Category: 18
7
STANDARD
0
TEXT
8
1
10
884.742500
20
-1133.355000
40
5.000000
50
-180.000000
1
Fabric: 面布
7
STANDARD
0
TEXT
8
1
10
884.742500
20
-1138.355000
40
5.000000
50
-180.000000
1
Size: 5XL
7
STANDARD
0
POLYLINE
8
1
66
 1
70
1
0
VERTEX
8
1
10
628.917500
20
-1113.152500
0
VERTEX
8
1
10
649.180000
20
-1102.250000
0
VERTEX
8
1
10
654.882500
20
-1099.180000
0
VERTEX
8
1
10
711.312500
20
-1069.395000
0
VERTEX
8
1
10
767.995000
20
-1040.570000
0
VERTEX
8
1
10
790.472500
20
-1029.827500
0
VERTEX
8
1
10
802.122500
20
-1024.840000
0
VERTEX
8
1
10
814.132500
20
-1020.335000
0
VERTEX
8
1
10
826.592500
20
-1016.480000
0
VERTEX
8
1
10
839.517500
20
-1013.475000
0
VERTEX
8
1
10
846.500000
20
-1012.455000
0
VERTEX
8
1
10
853.382500
20
-1011.750000
0
VERTEX
8
1
10
860.372500
20
-1011.350000
0
VERTEX
8
1
10
867.207500
20
-1011.280000
0
VERTEX
8
1
10
870.825000
20
-1011.380000
0
VERTEX
8
1
10
874.397500
20
-1011.570000
0
VERTEX
8
1
10
881.277500
20
-1012.230000
0
VERTEX
8
1
10
888.142500
20
-1013.295000
0
VERTEX
8
1
10
894.992500
20
-1014.812500
0
VERTEX
8
1
10
901.697500
20
-1016.790000
0
VERTEX
8
1
10
908.192500
20
-1019.257500
0
VERTEX
8
1
10
914.527500
20
-1022.277500
0
VERTEX
8
1
10
920.645000
20
-1025.882500
0
VERTEX
8
1
10
925.187500
20
-1029.302500
0
VERTEX
8
1
10
929.282500
20
-1032.855000
0
VERTEX
8
1
10
933.145000
20
-1036.677500
0
VERTEX
8
1
10
936.710000
20
-1040.667500
0
VERTEX
8
1
10
938.512500
20
-1042.877500
0
VERTEX
8
1
10
940.182500
20
-1045.047500
0
VERTEX
8
1
10
943.265000
20
-1049.412500
0
VERTEX
8
1
10
946.192500
20
-1054.067500
0
VERTEX
8
1
10
948.897500
20
-1058.900000
0
VERTEX
8
1
10
953.455000
20
-1068.635000
0
VERTEX
8
1
10
957.165000
20
-1078.945000
0
VERTEX
8
1
10
958.850000
20
-1086.135000
0
VERTEX
8
1
10
960.052500
20
-1093.057500
0
VERTEX
8
1
10
960.852500
20
-1100.035000
0
VERTEX
8
1
10
961.255000
20
-1107.037500
0
VERTEX
8
1
10
961.307500
20
-1110.545000
0
VERTEX
8
1
10
961.265000
20
-1114.105000
0
VERTEX
8
1
10
960.885000
20
-1121.055000
0
VERTEX
8
1
10
960.117500
20
-1127.965000
0
VERTEX
8
1
10
958.960000
20
-1134.882500
0
VERTEX
8
1
10
957.437500
20
-1141.660000
0
VERTEX
8
1
10
955.525000
20
-1148.407500
0
VERTEX
8
1
10
953.262500
20
-1154.975000
0
VERTEX
8
1
10
950.547500
20
-1161.610000
0
VERTEX
8
1
10
944.757500
20
-1172.660000
0
VERTEX
8
1
10
941.267500
20
-1178.117500
0
VERTEX
8
1
10
937.490000
20
-1183.280000
0
VERTEX
8
1
10
933.377500
20
-1188.170000
0
VERTEX
8
1
10
928.690000
20
-1192.977500
0
VERTEX
8
1
10
918.852500
20
-1200.740000
0
VERTEX
8
1
10
909.217500
20
-1207.502500
0
VERTEX
8
1
10
900.552500
20
-1214.197500
0
VERTEX
8
1
10
897.905000
20
-1216.670000
0
VERTEX
8
1
10
895.280000
20
-1219.457500
0
VERTEX
8
1
10
892.907500
20
-1222.350000
0
VERTEX
8
1
10
891.120000
20
-1224.857500
0
VERTEX
8
1
10
889.292500
20
-1227.657500
0
VERTEX
8
1
10
887.402500
20
-1230.702500
0
VERTEX
8
1
10
885.092500
20
-1234.425000
0
VERTEX
8
1
10
878.910000
20
-1234.425000
0
VERTEX
8
1
10
822.412500
20
-1234.425000
0
VERTEX
8
1
10
818.912500
20
-1230.427500
0
VERTEX
8
1
10
815.415000
20
-1234.425000
0
VERTEX
8
1
10
766.412500
20
-1234.425000
0
VERTEX
8
1
10
678.915000
20
-1234.425000
0
VERTEX
8
1
10
672.415000
20
-1234.425000
0
VERTEX
8
1
10
668.915000
20
-1230.427500
0
VERTEX
8
1
10
665.417500
20
-1234.425000
0
VERTEX
8
1
10
653.915000
20
-1234.425000
0
VERTEX
8
1
10
628.915000
20
-1234.422500
0
VERTEX
8
1
10
628.915000
20
-1225.422500
0
VERTEX
8
1
10
628.915000
20
-1168.237500
0
VERTEX
8
1
10
628.917500
20
-1113.152500
0
SEQEND
8
1
0
TEXT
8
1
10
1065.465000
20
-1301.677500
40
5.000000
50
-180.000000
1
Piece Name: 新NBA职业球员版.boke_右手心
7
STANDARD
0
TEXT
8
1
10
1065.465000
20
-1306.677500
40
5.000000
50
-180.000000
1
Category: 20
7
STANDARD
0
TEXT
8
1
10
1065.465000
20
-1311.677500
40
5.000000
50
-180.000000
1
Fabric: 面布
7
STANDARD
0
TEXT
8
1
10
1065.465000
20
-1316.677500
40
5.000000
50
-180.000000
1
Size: 5XL
7
STANDARD
0
POLYLINE
8
1
66
 1
70
1
0
VERTEX
8
1
10
809.640000
20
-1291.467500
0
VERTEX
8
1
10
829.902500
20
-1280.572500
0
VERTEX
8
1
10
835.607500
20
-1277.505000
0
VERTEX
8
1
10
892.037500
20
-1247.720000
0
VERTEX
8
1
10
948.720000
20
-1218.895000
0
VERTEX
8
1
10
971.197500
20
-1208.155000
0
VERTEX
8
1
10
982.845000
20
-1203.165000
0
VERTEX
8
1
10
994.857500
20
-1198.660000
0
VERTEX
8
1
10
1007.317500
20
-1194.807500
0
VERTEX
8
1
10
1020.240000
20
-1191.800000
0
VERTEX
8
1
10
1027.225000
20
-1190.780000
0
VERTEX
8
1
10
1034.105000
20
-1190.075000
0
VERTEX
8
1
10
1041.095000
20
-1189.675000
0
VERTEX
8
1
10
1047.932500
20
-1189.605000
0
VERTEX
8
1
10
1051.547500
20
-1189.705000
0
VERTEX
8
1
10
1055.120000
20
-1189.895000
0
VERTEX
8
1
10
1062.000000
20
-1190.555000
0
VERTEX
8
1
10
1068.865000
20
-1191.620000
0
VERTEX
8
1
10
1075.715000
20
-1193.135000
0
VERTEX
8
1
10
1082.422500
20
-1195.115000
0
VERTEX
8
1
10
1088.915000
20
-1197.582500
0
VERTEX
8
1
10
1095.250000
20
-1200.600000
0
VERTEX
8
1
10
1101.370000
20
-1204.207500
0
VERTEX
8
1
10
1105.912500
20
-1207.627500
0
VERTEX
8
1
10
1110.007500
20
-1211.180000
0
VERTEX
8
1
10
1113.870000
20
-1215.002500
0
VERTEX
8
1
10
1117.435000
20
-1218.992500
0
VERTEX
8
1
10
1119.237500
20
-1221.202500
0
VERTEX
8
1
10
1120.907500
20
-1223.372500
0
VERTEX
8
1
10
1123.992500
20
-1227.740000
0
VERTEX
8
1
10
1126.917500
20
-1232.392500
0
VERTEX
8
1
10
1129.625000
20
-1237.225000
0
VERTEX
8
1
10
1134.182500
20
-1246.960000
0
VERTEX
8
1
10
1137.890000
20
-1257.270000
0
VERTEX
8
1
10
1139.575000
20
-1264.457500
0
VERTEX
8
1
10
1140.780000
20
-1271.380000
0
VERTEX
8
1
10
1141.577500
20
-1278.360000
0
VERTEX
8
1
10
1141.980000
20
-1285.362500
0
VERTEX
8
1
10
1142.032500
20
-1288.870000
0
VERTEX
8
1
10
1141.990000
20
-1292.430000
0
VERTEX
8
1
10
1141.610000
20
-1299.377500
0
VERTEX
8
1
10
1140.845000
20
-1306.290000
0
VERTEX
8
1
10
1139.687500
20
-1313.207500
0
VERTEX
8
1
10
1138.165000
20
-1319.985000
0
VERTEX
8
1
10
1136.252500
20
-1326.732500
0
VERTEX
8
1
10
1133.990000
20
-1333.300000
0
VERTEX
8
1
10
1131.272500
20
-1339.935000
0
VERTEX
8
1
10
1125.482500
20
-1350.987500
0
VERTEX
8
1
10
1121.992500
20
-1356.445000
0
VERTEX
8
1
10
1118.215000
20
-1361.607500
0
VERTEX
8
1
10
1114.102500
20
-1366.495000
0
VERTEX
8
1
10
1109.415000
20
-1371.302500
0
VERTEX
8
1
10
1099.580000
20
-1379.065000
0
VERTEX
8
1
10
1089.945000
20
-1385.830000
0
VERTEX
8
1
10
1081.280000
20
-1392.525000
0
VERTEX
8
1
10
1078.627500
20
-1395.002500
0
VERTEX
8
1
10
1076.002500
20
-1397.785000
0
VERTEX
8
1
10
1073.635000
20
-1400.677500
0
VERTEX
8
1
10
1071.842500
20
-1403.190000
0
VERTEX
8
1
10
1070.017500
20
-1405.987500
0
VERTEX
8
1
10
1068.127500
20
-1409.025000
0
VERTEX
8
1
10
1065.815000
20
-1412.747500
0
VERTEX
8
1
10
1059.632500
20
-1412.747500
0
VERTEX
8
1
10
1003.135000
20
-1412.747500
0
VERTEX
8
1
10
999.635000
20
-1408.750000
0
VERTEX
8
1
10
996.137500
20
-1412.747500
0
VERTEX
8
1
10
947.135000
20
-1412.747500
0
VERTEX
8
1
10
859.635000
20
-1412.747500
0
VERTEX
8
1
10
853.137500
20
-1412.747500
0
VERTEX
8
1
10
849.637500
20
-1408.750000
0
VERTEX
8
1
10
846.140000
20
-1412.747500
0
VERTEX
8
1
10
834.637500
20
-1412.747500
0
VERTEX
8
1
10
809.640000
20
-1412.747500
0
VERTEX
8
1
10
809.640000
20
-1403.750000
0
VERTEX
8
1
10
809.640000
20
-1346.565000
0
VERTEX
8
1
10
809.640000
20
-1291.467500
0
SEQEND
8
1
0
TEXT
8
1
10
227.335000
20
-899.460000
40
5.000000
50
-180.000000
1
Piece Name: 新NBA职业球员版.boke_右手背
7
STANDARD
0
TEXT
8
1
10
227.335000
20
-904.460000
40
5.000000
50
-180.000000
1
Category: 22
7
STANDARD
0
TEXT
8
1
10
227.335000
20
-909.460000
40
5.000000
50
-180.000000
1
Fabric: 面布
7
STANDARD
0
TEXT
8
1
10
227.335000
20
-914.460000
40
5.000000
50
-180.000000
1
Size: 5XL
7
STANDARD
0
POLYLINE
8
1
66
 1
70
1
0
VERTEX
8
1
10
-28.490000
20
-909.667500
0
VERTEX
8
1
10
-28.490000
20
-854.575000
0
VERTEX
8
1
10
-28.490000
20
-797.390000
0
VERTEX
8
1
10
-28.490000
20
-788.390000
0
VERTEX
8
1
10
-3.492500
20
-788.390000
0
VERTEX
8
1
10
8.010000
20
-788.390000
0
VERTEX
8
1
10
11.507500
20
-792.387500
0
VERTEX
8
1
10
15.007500
20
-788.390000
0
VERTEX
8
1
10
21.505000
20
-788.390000
0
VERTEX
8
1
10
109.005000
20
-788.390000
0
VERTEX
8
1
10
158.007500
20
-788.390000
0
VERTEX
8
1
10
161.505000
20
-792.387500
0
VERTEX
8
1
10
165.005000
20
-788.390000
0
VERTEX
8
1
10
221.502500
20
-788.390000
0
VERTEX
8
1
10
227.685000
20
-788.390000
0
VERTEX
8
1
10
229.997500
20
-792.112500
0
VERTEX
8
1
10
231.885000
20
-795.152500
0
VERTEX
8
1
10
233.712500
20
-797.950000
0
VERTEX
8
1
10
235.505000
20
-800.462500
0
VERTEX
8
1
10
237.872500
20
-803.355000
0
VERTEX
8
1
10
240.497500
20
-806.137500
0
VERTEX
8
1
10
243.147500
20
-808.615000
0
VERTEX
8
1
10
251.812500
20
-815.307500
0
VERTEX
8
1
10
261.447500
20
-822.072500
0
VERTEX
8
1
10
271.285000
20
-829.835000
0
VERTEX
8
1
10
275.972500
20
-834.642500
0
VERTEX
8
1
10
280.085000
20
-839.532500
0
VERTEX
8
1
10
283.860000
20
-844.692500
0
VERTEX
8
1
10
287.350000
20
-850.150000
0
VERTEX
8
1
10
293.142500
20
-861.202500
0
VERTEX
8
1
10
295.857500
20
-867.840000
0
VERTEX
8
1
10
298.120000
20
-874.407500
0
VERTEX
8
1
10
300.032500
20
-881.155000
0
VERTEX
8
1
10
301.555000
20
-887.930000
0
VERTEX
8
1
10
302.712500
20
-894.850000
0
VERTEX
8
1
10
303.477500
20
-901.762500
0
VERTEX
8
1
10
303.857500
20
-908.707500
0
VERTEX
8
1
10
303.902500
20
-912.267500
0
VERTEX
8
1
10
303.852500
20
-915.775000
0
VERTEX
8
1
10
303.450000
20
-922.780000
0
VERTEX
8
1
10
302.650000
20
-929.757500
0
VERTEX
8
1
10
301.447500
20
-936.677500
0
VERTEX
8
1
10
299.762500
20
-943.870000
0
VERTEX
8
1
10
296.052500
20
-954.180000
0
VERTEX
8
1
10
291.495000
20
-963.915000
0
VERTEX
8
1
10
288.790000
20
-968.745000
0
VERTEX
8
1
10
285.862500
20
-973.400000
0
VERTEX
8
1
10
282.780000
20
-977.765000
0
VERTEX
8
1
10
281.107500
20
-979.937500
0
VERTEX
8
1
10
279.305000
20
-982.145000
0
VERTEX
8
1
10
275.742500
20
-986.135000
0
VERTEX
8
1
10
271.880000
20
-989.957500
0
VERTEX
8
1
10
267.782500
20
-993.512500
0
VERTEX
8
1
10
263.240000
20
-996.930000
0
VERTEX
8
1
10
257.122500
20
-1000.537500
0
VERTEX
8
1
10
250.787500
20
-1003.557500
0
VERTEX
8
1
10
244.292500
20
-1006.022500
0
VERTEX
8
1
10
237.587500
20
-1008.002500
0
VERTEX
8
1
10
230.737500
20
-1009.517500
0
VERTEX
8
1
10
223.875000
20
-1010.582500
0
VERTEX
8
1
10
216.995000
20
-1011.242500
0
VERTEX
8
1
10
213.422500
20
-1011.432500
0
VERTEX
8
1
10
209.807500
20
-1011.535000
0
VERTEX
8
1
10
202.967500
20
-1011.467500
0
VERTEX
8
1
10
195.977500
20
-1011.067500
0
VERTEX
8
1
10
189.095000
20
-1010.362500
0
VERTEX
8
1
10
182.112500
20
-1009.342500
0
VERTEX
8
1
10
169.190000
20
-1006.335000
0
VERTEX
8
1
10
156.730000
20
-1002.482500
0
VERTEX
8
1
10
144.717500
20
-997.977500
0
VERTEX
8
1
10
133.070000
20
-992.987500
0
VERTEX
8
1
10
110.592500
20
-982.247500
0
VERTEX
8
1
10
53.910000
20
-953.422500
0
VERTEX
8
1
10
-2.520000
20
-923.635000
0
VERTEX
8
1
10
-8.227500
20
-920.565000
0
VERTEX
8
1
10
-28.490000
20
-909.667500
0
SEQEND
8
1
0
TEXT
8
1
10
1449.575000
20
-655.750000
40
5.000000
50
-180.000000
1
Piece Name: 新NBA职业球员版.boke_裤右前
7
STANDARD
0
TEXT
8
1
10
1449.575000
20
-660.750000
40
5.000000
50
-180.000000
1
Category: 24
7
STANDARD
0
TEXT
8
1
10
1449.575000
20
-665.750000
40
5.000000
50
-180.000000
1
Fabric: 面布
7
STANDARD
0
TEXT
8
1
10
1449.575000
20
-670.750000
40
5.000000
50
-180.000000
1
Size: 5XL
7
STANDARD
0
POLYLINE
8
1
66
 1
70
1
0
VERTEX
8
1
10
1592.075000
20
-808.575000
0
VERTEX
8
1
10
1567.077500
20
-799.827500
0
VERTEX
8
1
10
1542.080000
20
-808.575000
0
VERTEX
8
1
10
1524.887500
20
-814.597500
0
VERTEX
8
1
10
1520.877500
20
-810.705000
0
VERTEX
8
1
10
1520.170000
20
-816.247500
0
VERTEX
8
1
10
1519.717500
20
-816.405000
0
VERTEX
8
1
10
1469.717500
20
-833.902500
0
VERTEX
8
1
10
1455.560000
20
-838.852500
0
VERTEX
8
1
10
1453.982500
20
-834.352500
0
VERTEX
8
1
10
1234.577500
20
-834.352500
0
VERTEX
8
1
10
1217.570000
20
-834.352500
0
VERTEX
8
1
10
1215.072500
20
-839.350000
0
VERTEX
8
1
10
1212.572500
20
-834.352500
0
VERTEX
8
1
10
1069.572500
20
-834.352500
0
VERTEX
8
1
10
1067.075000
20
-839.350000
0
VERTEX
8
1
10
1064.575000
20
-834.352500
0
VERTEX
8
1
10
1019.077500
20
-834.352500
0
VERTEX
8
1
10
1002.077500
20
-834.352500
0
VERTEX
8
1
10
985.077500
20
-834.352500
0
VERTEX
8
1
10
985.077500
20
-826.352500
0
VERTEX
8
1
10
985.077500
20
-681.352500
0
VERTEX
8
1
10
985.077500
20
-536.350000
0
VERTEX
8
1
10
985.077500
20
-528.772500
0
VERTEX
8
1
10
1001.880000
20
-528.355000
0
VERTEX
8
1
10
1059.990000
20
-526.915000
0
VERTEX
8
1
10
1118.835000
20
-525.595000
0
VERTEX
8
1
10
1176.627500
20
-524.572500
0
VERTEX
8
1
10
1195.477500
20
-524.300000
0
VERTEX
8
1
10
1213.455000
20
-523.945000
0
VERTEX
8
1
10
1231.715000
20
-523.360000
0
VERTEX
8
1
10
1249.140000
20
-522.412500
0
VERTEX
8
1
10
1266.705000
20
-521.060000
0
VERTEX
8
1
10
1283.890000
20
-519.292500
0
VERTEX
8
1
10
1291.692500
20
-518.282500
0
VERTEX
8
1
10
1299.267500
20
-517.042500
0
VERTEX
8
1
10
1306.647500
20
-515.432500
0
VERTEX
8
1
10
1313.420000
20
-513.382500
0
VERTEX
8
1
10
1316.490000
20
-512.192500
0
VERTEX
8
1
10
1319.360000
20
-510.850000
0
VERTEX
8
1
10
1321.972500
20
-509.355000
0
VERTEX
8
1
10
1324.185000
20
-507.780000
0
VERTEX
8
1
10
1327.327500
20
-504.817500
0
VERTEX
8
1
10
1330.187500
20
-501.205000
0
VERTEX
8
1
10
1331.437500
20
-499.305000
0
VERTEX
8
1
10
1332.660000
20
-497.237500
0
VERTEX
8
1
10
1335.100000
20
-492.517500
0
VERTEX
8
1
10
1337.440000
20
-487.367500
0
VERTEX
8
1
10
1339.707500
20
-482.025000
0
VERTEX
8
1
10
1342.222500
20
-476.097500
0
VERTEX
8
1
10
1348.547500
20
-477.285000
0
VERTEX
8
1
10
1382.807500
20
-483.725000
0
VERTEX
8
1
10
1416.892500
20
-490.062500
0
VERTEX
8
1
10
1450.635000
20
-496.200000
0
VERTEX
8
1
10
1490.245000
20
-503.170000
0
VERTEX
8
1
10
1529.392500
20
-509.875000
0
VERTEX
8
1
10
1542.080000
20
-512.017500
0
VERTEX
8
1
10
1567.077500
20
-516.242500
0
VERTEX
8
1
10
1592.075000
20
-512.017500
0
VERTEX
8
1
10
1592.075000
20
-524.352500
0
VERTEX
8
1
10
1592.075000
20
-657.855000
0
VERTEX
8
1
10
1592.075000
20
-791.355000
0
VERTEX
8
1
10
1592.075000
20
-808.575000
0
SEQEND
8
1
0
TEXT
8
1
10
437.845000
20
-1169.235000
40
5.000000
50
-180.000000
1
Piece Name: 新NBA职业球员版.boke_裤左后
7
STANDARD
0
TEXT
8
1
10
437.845000
20
-1174.235000
40
5.000000
50
-180.000000
1
Category: 26
7
STANDARD
0
TEXT
8
1
10
437.845000
20
-1179.235000
40
5.000000
50
-180.000000
1
Fabric: 面布
7
STANDARD
0
TEXT
8
1
10
437.845000
20
-1184.235000
40
5.000000
50
-180.000000
1
Size: 5XL
7
STANDARD
0
POLYLINE
8
1
66
 1
70
1
0
VERTEX
8
1
10
371.250000
20
-893.020000
0
VERTEX
8
1
10
380.702500
20
-895.937500
0
VERTEX
8
1
10
402.792500
20
-902.757500
0
VERTEX
8
1
10
435.152500
20
-912.610000
0
VERTEX
8
1
10
466.885000
20
-921.987500
0
VERTEX
8
1
10
509.710000
20
-934.035000
0
VERTEX
8
1
10
552.192500
20
-945.480000
0
VERTEX
8
1
10
568.135000
20
-949.685000
0
VERTEX
8
1
10
592.970000
20
-956.235000
0
VERTEX
8
1
10
618.110000
20
-950.975000
0
VERTEX
8
1
10
617.697500
20
-967.152500
0
VERTEX
8
1
10
611.895000
20
-1191.150000
0
VERTEX
8
1
10
606.095000
20
-1415.145000
0
VERTEX
8
1
10
605.537500
20
-1436.515000
0
VERTEX
8
1
10
600.070000
20
-1434.050000
0
VERTEX
8
1
10
580.825000
20
-1425.345000
0
VERTEX
8
1
10
561.155000
20
-1433.050000
0
VERTEX
8
1
10
555.567500
20
-1435.232500
0
VERTEX
8
1
10
537.555000
20
-1442.290000
0
VERTEX
8
1
10
523.277500
20
-1447.882500
0
VERTEX
8
1
10
519.632500
20
-1438.572500
0
VERTEX
8
1
10
504.207500
20
-1433.175000
0
VERTEX
8
1
10
479.410000
20
-1424.497500
0
VERTEX
8
1
10
248.605000
20
-1424.497500
0
VERTEX
8
1
10
16.105000
20
-1424.500000
0
VERTEX
8
1
10
0.137500
20
-1424.497500
0
VERTEX
8
1
10
-0.785000
20
-1416.427500
0
VERTEX
8
1
10
-4.957500
20
-1379.907500
0
VERTEX
8
1
10
-1.380000
20
-1375.977500
0
VERTEX
8
1
10
-5.750000
20
-1372.955000
0
VERTEX
8
1
10
-21.035000
20
-1239.180000
0
VERTEX
8
1
10
-41.282500
20
-1061.930000
0
VERTEX
8
1
10
-42.447500
20
-1051.722500
0
VERTEX
8
1
10
-25.367500
20
-1050.050000
0
VERTEX
8
1
10
104.882500
20
-1037.302500
0
VERTEX
8
1
10
234.932500
20
-1024.572500
0
VERTEX
8
1
10
248.992500
20
-1022.552500
0
VERTEX
8
1
10
263.422500
20
-1020.267500
0
VERTEX
8
1
10
277.395000
20
-1017.625000
0
VERTEX
8
1
10
283.857500
20
-1016.175000
0
VERTEX
8
1
10
290.357500
20
-1014.537500
0
VERTEX
8
1
10
296.627500
20
-1012.742500
0
VERTEX
8
1
10
302.312500
20
-1010.855000
0
VERTEX
8
1
10
307.775000
20
-1008.707500
0
VERTEX
8
1
10
312.622500
20
-1006.375000
0
VERTEX
8
1
10
321.587500
20
-1000.295000
0
VERTEX
8
1
10
325.507500
20
-996.895000
0
VERTEX
8
1
10
329.342500
20
-993.052500
0
VERTEX
8
1
10
332.922500
20
-988.935000
0
VERTEX
8
1
10
336.162500
20
-984.670000
0
VERTEX
8
1
10
339.660000
20
-979.115000
0
VERTEX
8
1
10
342.855000
20
-973.202500
0
VERTEX
8
1
10
345.792500
20
-966.977500
0
VERTEX
8
1
10
348.475000
20
-960.580000
0
VERTEX
8
1
10
353.495000
20
-947.062500
0
VERTEX
8
1
10
358.537500
20
-932.340000
0
VERTEX
8
1
10
363.477500
20
-917.265000
0
VERTEX
8
1
10
368.230000
20
-902.442500
0
VERTEX
8
1
10
371.250000
20
-893.020000
0
SEQEND
8
1
0
ENDSEC
0
EOF
